<svg xmlns="http://www.w3.org/2000/svg" width="24" height="24" viewBox="0 0 24 24"><defs><linearGradient id="dgq3a" x1="15.5" x2="20.62" y1="14.32" y2="22.47" gradientUnits="userSpaceOnUse"><stop offset="0" stop-color="#7093ff"/><stop offset="1" stop-color="#3d5afe"/></linearGradient></defs><g><g><g><path fill="#1b2331" d="M0 14.996a2 2 0 0 1 2-2h7a2 2 0 0 1 2 2v7a2 2 0 0 1-2 2H2a2 2 0 0 1-2-2zm9.745-13.26a2 2 0 0 1 3.4 0l3.85 6.206a2 2 0 0 1-1.7 3.054h-7.7a2 2 0 0 1-1.7-3.054z"/></g><g><path fill="url(#dgq3a)" d="M18.5 24a5.5 5.5 0 1 0 0-11 5.5 5.5 0 0 0 0 11z"/></g></g></g></svg>