<?xml version="1.0" encoding="UTF-8"?>
<svg width="84px" height="81px" viewBox="0 0 84 81" version="1.1" xmlns="http://www.w3.org/2000/svg" xmlns:xlink="http://www.w3.org/1999/xlink">
    <!-- Generator: Sketch 59 (86127) - https://sketch.com -->
    <title>api-ico</title>
    <desc>Created with Sketch.</desc>
    <defs>
        <linearGradient x1="50%" y1="36.706543%" x2="18.3948864%" y2="61.4170632%" id="linearGradient-1">
            <stop stop-color="#EAECEE" offset="0%"></stop>
            <stop stop-color="#D1D4D8" offset="100%"></stop>
        </linearGradient>
        <linearGradient x1="50%" y1="0%" x2="18.3948864%" y2="92.9424157%" id="linearGradient-2">
            <stop stop-color="#EAECEE" offset="0%"></stop>
            <stop stop-color="#D1D4D8" offset="100%"></stop>
        </linearGradient>
        <linearGradient x1="26.1262123%" y1="12.0214844%" x2="66.9000949%" y2="86.0888672%" id="linearGradient-3">
            <stop stop-color="#7093FF" offset="0%"></stop>
            <stop stop-color="#3D5AFE" offset="100%"></stop>
        </linearGradient>
        <path d="M42.0972222,47.3333333 C39.2173611,47.3333333 36.8611111,49.6583333 36.8611111,52.5 C36.8611111,55.3416667 39.2173611,57.6666667 42.0972222,57.6666667 C44.9770833,57.6666667 47.3333333,55.3416667 47.3333333,52.5 C47.3333333,49.6583333 44.9770833,47.3333333 42.0972222,47.3333333 Z M53.6808136,52.5 C53.6808136,53.0092857 53.63822,53.5185714 53.5743296,54.0057143 L56.7262542,56.5742857 C57.0031125,56.8178571 57.0882996,57.2385714 56.8966285,57.5707143 L53.9150782,62.9292857 C53.7234071,63.2614286 53.340065,63.3942857 52.9993164,63.2614286 L49.2936753,61.7114286 C48.5269909,62.3314286 47.6751194,62.8407143 46.7806543,63.2392857 L46.2269379,67.3357143 C46.1630475,67.7121429 45.8435957,68 45.4815503,68 L39.5184497,68 C39.1564043,68 38.8369525,67.7121429 38.7730621,67.3578571 L38.2193457,63.2614286 C37.3035838,62.8628571 36.4730091,62.3535714 35.7063247,61.7335714 L32.0006836,63.2835714 C31.659935,63.4164286 31.2765929,63.2835714 31.0849218,62.9514286 L28.1033715,57.5928571 C27.9117004,57.2607143 27.9968875,56.84 28.2737458,56.5964286 L31.4256704,54.0278571 C31.36178,53.5185714 31.3191864,53.0092857 31.3191864,52.5 C31.3191864,51.9907143 31.36178,51.4814286 31.4256704,50.9942857 L28.2737458,48.4257143 C27.9968875,48.1821429 27.9117004,47.7614286 28.1033715,47.4292857 L31.0849218,42.0707143 C31.2765929,41.7385714 31.659935,41.6057143 32.0006836,41.7385714 L35.7063247,43.2885714 C36.4730091,42.6685714 37.3248806,42.1592857 38.2193457,41.7607143 L38.7730621,37.6642857 C38.8369525,37.2878571 39.1564043,37 39.5184497,37 L45.4815503,37 C45.8435957,37 46.1630475,37.2878571 46.2269379,37.6421429 L46.7806543,41.7385714 C47.6964162,42.1371429 48.5269909,42.6464286 49.2936753,43.2664286 L52.9993164,41.7164286 C53.340065,41.5835714 53.7234071,41.7164286 53.9150782,42.0485714 L56.8966285,47.4071429 C57.0882996,47.7392857 57.0031125,48.16 56.7262542,48.4035714 L53.5743296,50.9721429 C53.63822,51.4814286 53.6808136,51.9907143 53.6808136,52.5 Z" id="path-4"></path>
        <filter x="-46.6%" y="-24.2%" width="193.1%" height="187.1%" filterUnits="objectBoundingBox" id="filter-5">
            <feOffset dx="0" dy="6" in="SourceAlpha" result="shadowOffsetOuter1"></feOffset>
            <feGaussianBlur stdDeviation="3.5" in="shadowOffsetOuter1" result="shadowBlurOuter1"></feGaussianBlur>
            <feColorMatrix values="0 0 0 0 0   0 0 0 0 0   0 0 0 0 0  0 0 0 0.3 0" type="matrix" in="shadowBlurOuter1"></feColorMatrix>
        </filter>
    </defs>
    <g id="-" stroke="none" stroke-width="1" fill="none" fill-rule="evenodd">
        <g id="product_2" transform="translate(-540.000000, -2481.000000)">
            <g id="api-ico" transform="translate(540.000000, 2481.000000)">
                <g id="Group-2">
                    <rect id="Rectangle" fill="url(#linearGradient-1)" x="0" y="18" width="64" height="33" rx="16.5"></rect>
                    <path d="M44,0 C58.3594035,0 70,11.6405965 70,26 C70,26.0358148 69.9999276,26.0716127 69.9997829,26.1073936 L70,52 L46.4761905,52 L46.4765471,51.8835855 C45.6614023,51.9606098 44.8353012,52 44,52 C29.6405965,52 18,40.3594035 18,26 C18,11.6405965 29.6405965,0 44,0 Z" id="Combined-Shape" fill="url(#linearGradient-2)"></path>
                    <circle id="Oval-Copy" fill="url(#linearGradient-2)" cx="71" cy="39" r="13"></circle>
                </g>
                <g id="Shape">
                    <use fill="black" fill-opacity="1" filter="url(#filter-5)" xlink:href="#path-4"></use>
                    <use fill="url(#linearGradient-3)" fill-rule="evenodd" xlink:href="#path-4"></use>
                </g>
            </g>
        </g>
    </g>
</svg>