<?xml version="1.0" encoding="UTF-8"?>
<svg width="24px" height="27px" viewBox="0 0 24 27" version="1.1" xmlns="http://www.w3.org/2000/svg" xmlns:xlink="http://www.w3.org/1999/xlink">
    <!-- Generator: Sketch 56.3 (81716) - https://sketch.com -->
    <title>bell-ico</title>
    <desc>Created with Sketch.</desc>
    <defs>
        <linearGradient x1="22.7197266%" y1="20.922699%" x2="69.3115234%" y2="77.6305389%" id="linearGradient-1">
            <stop stop-color="#7093FF" offset="0%"></stop>
            <stop stop-color="#3D5AFE" offset="100%"></stop>
        </linearGradient>
        <linearGradient x1="50%" y1="42%" x2="18.3948864%" y2="56.8707865%" id="linearGradient-2">
            <stop stop-color="#EAECEE" offset="0%"></stop>
            <stop stop-color="#D1D4D8" offset="100%"></stop>
        </linearGradient>
    </defs>
    <g id="Symbols" stroke="none" stroke-width="1" fill="none" fill-rule="evenodd">
        <g id="quick_links" transform="translate(-73.000000, -71.000000)">
            <g id="bell-ico" transform="translate(73.000000, 71.000000)">
                <path d="M21,13.1260175 C22.7252272,13.5700603 24,15.1361606 24,17 L24,20 C24,20.5522847 23.5522847,21 23,21 L1,21 C0.44771525,21 6.76353751e-17,20.5522847 0,20 L0,17 C-2.28254499e-16,15.1361606 1.27477279,13.5700603 3,13.1260175 L3,9 C3,4.02943725 7.02943725,9.13077564e-16 12,0 C16.9705627,-9.13077564e-16 21,4.02943725 21,9 L21,13.1260175 Z" id="Combined-Shape" fill="url(#linearGradient-1)"></path>
                <path d="M7,23 L17,23 C17,25.209139 15.209139,27 13,27 L11,27 C8.790861,27 7,25.209139 7,23 L7,23 Z" id="Rectangle" fill="url(#linearGradient-2)"></path>
            </g>
        </g>
    </g>
</svg>