<?xml version="1.0" encoding="UTF-8"?>
<svg width="21px" height="21px" viewBox="0 0 21 21" version="1.1" xmlns="http://www.w3.org/2000/svg" xmlns:xlink="http://www.w3.org/1999/xlink">
    <!-- Generator: Sketch 56.3 (81716) - https://sketch.com -->
    <title>blog-ico</title>
    <desc>Created with Sketch.</desc>
    <defs>
        <linearGradient x1="27.668529%" y1="12.0214844%" x2="65.8082992%" y2="86.0888672%" id="linearGradient-1">
            <stop stop-color="#7093FF" offset="0%"></stop>
            <stop stop-color="#3D5AFE" offset="100%"></stop>
        </linearGradient>
    </defs>
    <g id="Navigation" stroke="none" stroke-width="1" fill="none" fill-rule="evenodd">
        <g id="navigation" transform="translate(-752.000000, -1471.000000)">
            <g id="blog-ico" transform="translate(752.000000, 1471.000000)">
                <path d="M5.62255166,16.2675757 C3.48299267,16.625638 1.30216559,15.5066933 0.389670069,13.4446033 C-0.617932927,11.1675861 0.411130606,8.50487537 2.6881478,7.49727238 C2.7384369,7.47501895 2.78912894,7.45368748 2.84019847,7.43328869 L6.25313557,6.07005331 C6.2526625,6.06332981 6.25219023,6.05660243 6.25171875,6.04987117 C8.46957807,5.23972747 10.3964648,3.61059226 12.032379,1.16246554 C12.8988846,-0.215346506 13.5923639,-0.368369966 14.1128169,0.703395161 L18.8286156,13.0329005 C19.3060559,14.3093876 18.7859614,14.7636714 17.2683319,14.3957521 C14.4761867,13.8807794 12.3066545,13.8605174 10.7597353,14.3349661 L10.2030917,14.5573072 C9.82692151,14.7664943 9.79169344,15.0777025 10.0974075,15.4909317 L11.3278678,17.2715778 C12.4907624,18.6885108 12.5764093,19.7656841 11.5848086,20.5030976 C10.5932078,21.2405111 9.71899578,21.1571719 8.9621724,20.2530798 C7.66717323,18.4237709 6.87386876,17.2915009 6.58225897,16.8562698 C6.29064918,16.4210388 5.9685721,16.2311737 5.61602774,16.2866745 L5.62255166,16.2675757 Z" id="Combined-Shape" fill="url(#linearGradient-1)"></path>
                <path d="M17.1940627,4.77589831 L18.438719,7.96320469 C18.5390411,8.22030425 18.8287093,8.3474525 19.0858867,8.24733036 C20.3263365,7.76440902 20.6804387,6.78105042 20.1481934,5.29725456 C19.6847406,4.18130905 18.8143053,3.7853462 17.5368876,4.109366 C17.2692132,4.1772509 17.1072626,4.4492819 17.1751581,4.71695362 C17.1802362,4.73697344 17.1865498,4.75665938 17.1940627,4.77589831 Z" id="Path-15" fill="#1B2331"></path>
            </g>
        </g>
    </g>
</svg>