<svg xmlns="http://www.w3.org/2000/svg" width="20" height="25" viewBox="0 0 20 25"><defs><linearGradient id="ey2ta" x1="10.73" x2="16.32" y1="3.01" y2="21.52" gradientUnits="userSpaceOnUse"><stop offset="0" stop-color="#7093ff"/><stop offset="1" stop-color="#3d5afe"/></linearGradient></defs><g><g><g><path fill="url(#ey2ta)" d="M8 2A2 2 0 0 1 10.77.154l8.307 3.461A1.5 1.5 0 0 1 20 5v15a1.5 1.5 0 0 1-.923 1.385l-8.308 3.461A2 2 0 0 1 8 23zm4.5 12a1.5 1.5 0 1 0 0-3 1.5 1.5 0 0 0 0 3z"/></g><g><path fill="#1b2331" d="M0 4.5A1.5 1.5 0 0 1 1.5 3H6v19H1.5A1.5 1.5 0 0 1 0 20.5z"/></g></g></g></svg>