<?xml version="1.0" encoding="UTF-8"?>
<svg width="54px" height="56px" viewBox="0 0 54 56" version="1.1" xmlns="http://www.w3.org/2000/svg" xmlns:xlink="http://www.w3.org/1999/xlink">
    <!-- Generator: Sketch 59 (86127) - https://sketch.com -->
    <title>coding-ico</title>
    <desc>Created with Sketch.</desc>
    <defs>
        <linearGradient x1="96.4923469%" y1="0%" x2="-122.772341%" y2="212.310268%" id="linearGradient-1">
            <stop stop-color="#506791" offset="0%"></stop>
            <stop stop-color="#000104" offset="100%"></stop>
        </linearGradient>
        <linearGradient x1="22.7197266%" y1="36.3277344%" x2="69.3115234%" y2="62.9919922%" id="linearGradient-2">
            <stop stop-color="#7093FF" offset="0%"></stop>
            <stop stop-color="#3D5AFE" offset="100%"></stop>
        </linearGradient>
        <path d="M12.380048,27.0928252 L20.1724571,19.3785395 C20.6554546,18.9003844 21.4248534,18.8752183 21.9379984,19.3030413 L22.0210568,19.3785395 L23.8392856,21.1785395 C24.3193462,21.6537872 24.3446126,22.4067222 23.9150846,22.9112002 L23.8392856,22.9928891 L18.7814671,28 L23.8392856,33.0071109 C24.3193462,33.4823587 24.3446126,34.2352936 23.9150846,34.7397716 L23.8392856,34.8214605 L22.0210568,36.6214605 C21.5380593,37.0996156 20.7686605,37.1247817 20.2555155,36.6969587 L20.1724571,36.6214605 L12.380048,28.9071748 C11.8999874,28.4319271 11.874721,27.6789921 12.304249,27.1745141 L12.380048,27.0928252 L20.1724571,19.3785395 L12.380048,27.0928252 Z M33.8275429,19.3785395 L41.619952,27.0928252 C42.1266827,27.5944756 42.1266827,28.4055244 41.619952,28.9071748 L33.8275429,36.6214605 C33.3177122,37.1261798 32.4887739,37.1261798 31.9789432,36.6214605 L30.1607144,34.8214605 C29.6539838,34.3198101 29.6539838,33.5087613 30.1607144,33.0071109 L35.2185329,28 L30.1607144,22.9928891 C29.6539838,22.4912387 29.6539838,21.6801899 30.1607144,21.1785395 L31.9789432,19.3785395 C32.4887739,18.8738202 33.3177122,18.8738202 33.8275429,19.3785395 Z" id="path-3"></path>
        <filter x="-38.3%" y="-36.1%" width="176.7%" height="227.8%" filterUnits="objectBoundingBox" id="filter-4">
            <feOffset dx="0" dy="5" in="SourceAlpha" result="shadowOffsetOuter1"></feOffset>
            <feGaussianBlur stdDeviation="3" in="shadowOffsetOuter1" result="shadowBlurOuter1"></feGaussianBlur>
            <feColorMatrix values="0 0 0 0 0   0 0 0 0 0   0 0 0 0 0  0 0 0 0.3 0" type="matrix" in="shadowBlurOuter1"></feColorMatrix>
        </filter>
    </defs>
    <g id="-" stroke="none" stroke-width="1" fill="none" fill-rule="evenodd">
        <g id="product_2" transform="translate(-785.000000, -3565.000000)">
            <g id="coding-ico" transform="translate(785.000000, 3565.000000)">
                <path d="M47.819446,28 C47.819446,28.92 47.7401338,29.84 47.6211655,30.72 L53.4902665,35.36 C54.0057956,35.8 54.16442,36.56 53.8075152,37.16 L48.2556629,46.84 C47.8987581,47.44 47.1849486,47.68 46.5504512,47.44 L39.6502919,44.64 C38.2226728,45.76 36.6364293,46.68 34.9708736,47.4 L33.9398153,54.8 C33.8208471,55.48 33.2260057,56 32.5518523,56 L21.4481477,56 C20.7739943,56 20.1791529,55.48 20.0601847,54.84 L19.0291264,47.44 C17.3239146,46.72 15.7773272,45.8 14.3497081,44.68 L7.44954884,47.48 C6.81505144,47.72 6.10124187,47.48 5.74433708,46.88 L0.192484825,37.2 C-0.164419963,36.6 -0.00579561282,35.84 0.509733525,35.4 L6.37883448,30.76 C6.25986622,29.84 6.18055404,28.92 6.18055404,28 C6.18055404,27.08 6.25986622,26.16 6.37883448,25.28 L0.509733525,20.64 C-0.00579561282,20.2 -0.164419963,19.44 0.192484825,18.84 L5.74433708,9.16 C6.10124187,8.56 6.81505144,8.32 7.44954884,8.56 L14.3497081,11.36 C15.7773272,10.24 17.3635707,9.32 19.0291264,8.6 L20.0601847,1.2 C20.1791529,0.52 20.7739943,0 21.4481477,0 L32.5518523,0 C33.2260057,0 33.8208471,0.52 33.9398153,1.16 L34.9708736,8.56 C36.6760854,9.28 38.2226728,10.2 39.6502919,11.32 L46.5504512,8.52 C47.1849486,8.28 47.8987581,8.52 48.2556629,9.12 L53.8075152,18.8 C54.16442,19.4 54.0057956,20.16 53.4902665,20.6 L47.6211655,25.24 C47.7401338,26.16 47.819446,27.08 47.819446,28 Z" id="Shape" fill="url(#linearGradient-1)"></path>
                <g id="Shape">
                    <use fill="black" fill-opacity="1" filter="url(#filter-4)" xlink:href="#path-3"></use>
                    <use fill="url(#linearGradient-2)" fill-rule="evenodd" xlink:href="#path-3"></use>
                </g>
            </g>
        </g>
    </g>
</svg>