<svg xmlns="http://www.w3.org/2000/svg" width="26" height="18" viewBox="0 0 26 18"><defs><linearGradient id="2e4pa" x1="2.73" x2="8.32" y1="2.16" y2="15.5" gradientUnits="userSpaceOnUse"><stop offset="0" stop-color="#7093ff"/><stop offset="1" stop-color="#3d5afe"/></linearGradient></defs><g><g><g><path fill="url(#2e4pa)" d="M12 17.314V4.124C12 .507 10.234 0 6.702 0H2.404C.801-.042 0 1.006 0 3.143v10.324c.102 1.747 1.087 2.62 2.956 2.62h4.756c1.129 0 2.137.55 3.025 1.65.24.298.685.35.992.117a.679.679 0 0 0 .271-.54z"/></g><g><path fill="#1b2331" d="M14 17.314V4.124C14 .507 15.766 0 19.298 0h4.298C25.199-.042 26 1.006 26 3.143v10.324c-.102 1.747-1.087 2.62-2.956 2.62h-4.756c-1.129 0-2.137.55-3.025 1.65a.721.721 0 0 1-.992.117.679.679 0 0 1-.271-.54z"/></g></g></g></svg>