<svg xmlns="http://www.w3.org/2000/svg" width="32" height="25" viewBox="0 0 32 25"><defs><linearGradient id="fcn9a" x1="3.38" x2="10.31" y1="2.93" y2="21.01" gradientUnits="userSpaceOnUse"><stop offset="0" stop-color="#7093ff"/><stop offset="1" stop-color="#3d5afe"/></linearGradient><linearGradient id="fcn9b" x1="24.43" x2="19.74" y1="0" y2="22.69" gradientUnits="userSpaceOnUse"><stop offset="0" stop-color="#eaecee"/><stop offset="1" stop-color="#d1d4d8"/></linearGradient></defs><g><g><g><path fill="url(#fcn9a)" d="M14.875 23.708v-19.5C14.875 1.402 13.125 0 9.628 0H2.381C.794-.042 0 1.026 0 3.207v16.576c.1 1.782 1.077 2.673 2.928 2.673h7.7c1.118 0 2.116.56 2.995 1.683a.7.7 0 0 0 1.252-.431z"/></g><g><path fill="url(#fcn9b)" d="M17 23.708v-19.5C17 1.402 18.749 0 22.247 0h7.246c1.588-.043 2.382 1.025 2.382 3.206v16.576c-.101 1.782-1.077 2.673-2.928 2.673h-7.7c-1.118 0-2.117.56-2.996 1.683A.7.7 0 0 1 17 23.708z"/></g></g></g></svg>