<svg xmlns="http://www.w3.org/2000/svg" width="24" height="26" viewBox="0 0 24 26"><defs><linearGradient id="m6s5a" x1="5.45" x2="16.63" y1="9.2" y2="16.61" gradientUnits="userSpaceOnUse"><stop offset="0" stop-color="#7093ff"/><stop offset="1" stop-color="#3d5afe"/></linearGradient></defs><g><g><g><path fill="#1b2331" d="M2 1a1 1 0 0 1 1-1h18a1 1 0 0 1 1 1v4a1 1 0 0 1-1 1H3a1 1 0 0 1-1-1z"/></g><g><path fill="#1b2331" d="M2 21a1 1 0 0 1 1-1h18a1 1 0 0 1 1 1v4a1 1 0 0 1-1 1H3a1 1 0 0 1-1-1z"/></g><g><path fill="url(#m6s5a)" d="M0 10a2 2 0 0 1 2-2h20a2 2 0 0 1 2 2v6a2 2 0 0 1-2 2H2a2 2 0 0 1-2-2z"/></g><g><path fill="#fff" d="M4 12h10v2H4z"/></g></g></g></svg>