<?xml version="1.0" encoding="UTF-8"?>
<svg width="90px" height="98px" viewBox="0 0 90 98" version="1.1" xmlns="http://www.w3.org/2000/svg" xmlns:xlink="http://www.w3.org/1999/xlink">
    <!-- Generator: Sketch 59 (86127) - https://sketch.com -->
    <title>hand-ico</title>
    <desc>Created with Sketch.</desc>
    <defs>
        <linearGradient x1="27.7830492%" y1="12.0214844%" x2="65.7272312%" y2="86.0888672%" id="linearGradient-1">
            <stop stop-color="#7093FF" offset="0%"></stop>
            <stop stop-color="#3D5AFE" offset="100%"></stop>
        </linearGradient>
        <path d="M694.208067,327.372625 C695.366139,327.496489 699.201539,327.496489 699.201539,332.374376 C699.201539,337.252264 695.852594,345.533012 696.704803,349.199481 L723.618897,311.338799 C725.412926,309.858479 727.348076,309.60576 729.424346,310.580641 C731.500616,311.555523 732.055345,313.842699 731.088532,317.44217 C721.073851,333.619218 716.06651,341.707742 716.06651,341.707742 C715.972023,343.696828 717.087272,344.07205 719.412256,342.833409 C733.616662,325.633385 740.718866,317.033373 740.718866,317.033373 C742.219986,314.847375 744.391048,314.128388 747.232051,314.876413 C750.073054,315.624437 750.826815,318.036687 749.493332,322.113163 C735.5733,339.641979 728.613284,348.406387 728.613284,348.406387 C727.748273,349.974123 727.788811,351.035815 728.734898,351.591465 C729.680984,352.147114 730.733902,351.771892 731.893651,350.465798 L749.493332,332.374376 C751.392516,330.672038 753.377195,330.451684 755.447369,331.713314 C757.517544,332.974943 757.517544,335.707516 755.447369,339.911032 C742.000381,354.730868 735.276886,362.140787 735.276886,362.140787 C734.749284,363.195522 734.870441,363.955494 735.640355,364.420703 C735.938751,364.892869 736.637343,364.686126 737.736132,363.800475 C739.384317,362.471998 750.49733,352.613684 750.49733,352.613684 C752.085013,350.837845 753.686258,350.172245 755.301067,350.616885 C757.350211,351.622015 757.373375,353.666151 755.370561,356.749294 C744.336642,370.464486 734.729473,380.559791 726.549053,387.035208 C715.385901,394.923795 704.076903,393.411715 692.622061,382.498968 C683.88356,375.303052 681.097116,365.908737 684.262727,354.316022 C687.428338,342.723307 689.400368,334.824285 690.178817,330.618954 C690.93593,328.454734 692.279013,327.372625 694.208067,327.372625 Z" id="path-2"></path>
        <filter x="-20.9%" y="-10.4%" width="141.9%" height="137.8%" filterUnits="objectBoundingBox" id="filter-3">
            <feOffset dx="0" dy="7" in="SourceAlpha" result="shadowOffsetOuter1"></feOffset>
            <feGaussianBlur stdDeviation="4" in="shadowOffsetOuter1" result="shadowBlurOuter1"></feGaussianBlur>
            <feColorMatrix values="0 0 0 0 0   0 0 0 0 0   0 0 0 0 0  0 0 0 0.3 0" type="matrix" in="shadowBlurOuter1"></feColorMatrix>
        </filter>
    </defs>
    <g id="Contact-us" stroke="none" stroke-width="1" fill="none" fill-rule="evenodd">
        <g id="message_sent" transform="translate(-675.000000, -309.000000)">
            <g id="hand-ico">
                <use fill="black" fill-opacity="1" filter="url(#filter-3)" xlink:href="#path-2"></use>
                <use fill="url(#linearGradient-1)" fill-rule="evenodd" xlink:href="#path-2"></use>
            </g>
        </g>
    </g>
</svg>