<?xml version="1.0" encoding="UTF-8"?>
<svg width="75px" height="87px" viewBox="0 0 75 87" version="1.1" xmlns="http://www.w3.org/2000/svg" xmlns:xlink="http://www.w3.org/1999/xlink">
    <!-- Generator: Sketch 56.3 (81716) - https://sketch.com -->
    <title>hands-ico</title>
    <desc>Created with Sketch.</desc>
    <defs>
        <linearGradient x1="50%" y1="0%" x2="41.3018212%" y2="92.9424157%" id="linearGradient-1">
            <stop stop-color="#EAECEE" offset="0%"></stop>
            <stop stop-color="#D1D4D8" offset="100%"></stop>
        </linearGradient>
        <linearGradient x1="37.4552029%" y1="12.0214844%" x2="58.8803781%" y2="86.0888672%" id="linearGradient-2">
            <stop stop-color="#7093FF" offset="0%"></stop>
            <stop stop-color="#3D5AFE" offset="100%"></stop>
        </linearGradient>
        <path d="M39,27.0151367 L42,27.0151367 L42,3 C42,1.34314575 43.3431458,3.04359188e-16 45,0 C46.6568542,-3.04359188e-16 48,1.34314575 48,3 L48,27.0151367 L51,27.0151367 L51,6 C51,4.34314575 52.3431458,3 54,3 C55.6568542,3 57,4.34314575 57,6 L57,27.0151367 L60,27.0151367 L60,10 C60,8.34314575 61.3431458,7 63,7 C64.6568542,7 66,8.34314575 66,10 L66,38 L66,45.9911165 C66,52.7538368 61.8241893,58.8141814 55.5048828,61.2226563 L55.5048828,65.1645508 C55.5048828,67.3736898 53.7140218,69.1645508 51.5048828,69.1645508 L38.8081055,69.1645508 C36.5989665,69.1645508 34.8081055,67.3736898 34.8081055,65.1645508 L34.8081055,60.0429688 C28.5613607,56.266276 24.6393229,49.702474 23.0419922,40.3515625 C21.6259766,34.4127604 20.6183268,31.0022786 20.019043,30.1201172 C18.3481445,27.5566406 18.5507813,21.3540039 24.0253906,23.7548828 C25.8714193,25.0823568 27.6762695,29.1422526 29.4399414,35.9345703 C31.8133138,36.2355143 33,35.2573242 33,33 L33,5 C33,3.34314575 34.3431458,2 36,2 C37.6568542,2 39,3.34314575 39,5 L39,27.0151367 Z" id="path-3"></path>
        <filter x="-37.3%" y="-13.7%" width="174.6%" height="150.6%" filterUnits="objectBoundingBox" id="filter-4">
            <feOffset dx="0" dy="8" in="SourceAlpha" result="shadowOffsetOuter1"></feOffset>
            <feGaussianBlur stdDeviation="4.5" in="shadowOffsetOuter1" result="shadowBlurOuter1"></feGaussianBlur>
            <feColorMatrix values="0 0 0 0 0   0 0 0 0 0   0 0 0 0 0  0 0 0 0.3 0" type="matrix" in="shadowBlurOuter1"></feColorMatrix>
        </filter>
    </defs>
    <g id="Careers" stroke="none" stroke-width="1" fill="none" fill-rule="evenodd">
        <g id="careers" transform="translate(-953.000000, -1722.000000)">
            <g id="hands-ico" transform="translate(953.000000, 1723.000000)">
                <path d="M24,24.212895 L24,7.5 C24,6.11928813 25.1192881,5 26.5,5 C27.8807119,5 29,6.11928813 29,7.5 L29,34.5 C29,35.3915206 28.5333422,36.1740474 27.830969,36.6166381 C28.610323,41.4627332 29,44.6534282 29,46.1887229 C29,48.7839392 27.886556,50.8501006 25.659668,52.387207 L25.659668,58.2792969 C25.659668,58.2792969 20.3580729,58.2792969 9.75488281,58.2792969 C9.75488281,58.2792969 9.76611328,56.3982747 9.78857422,52.6362305 C3.26285807,50.4773763 -1.13686838e-13,44.8971354 -1.13686838e-13,35.8955078 L-1.13686838e-13,29.90625 L-1.13686838e-13,12.5 C-1.13855926e-13,11.1192881 1.11928813,10 2.5,10 C3.88071187,10 5,11.1192881 5,12.5 L5,24.212895 L8,24.212895 L8,7.5 C8,6.11928813 9.11928813,5 10.5,5 C11.8807119,5 13,6.11928813 13,7.5 L13,24.212895 L16,24.212895 L16,5.5 C16,4.11928813 17.1192881,3 18.5,3 C19.8807119,3 21,4.11928813 21,5.5 L21,24.212895 L24,24.212895 Z" id="Combined-Shape" fill="url(#linearGradient-1)"></path>
                <g id="Combined-Shape">
                    <use fill="black" fill-opacity="1" filter="url(#filter-4)" xlink:href="#path-3"></use>
                    <use fill="url(#linearGradient-2)" fill-rule="evenodd" xlink:href="#path-3"></use>
                </g>
            </g>
        </g>
    </g>
</svg>