<?xml version="1.0" encoding="UTF-8"?>
<svg width="16px" height="21px" viewBox="0 0 16 21" version="1.1" xmlns="http://www.w3.org/2000/svg" xmlns:xlink="http://www.w3.org/1999/xlink">
    <!-- Generator: Sketch 59 (86127) - https://sketch.com -->
    <title>lock-ico</title>
    <desc>Created with Sketch.</desc>
    <g id="Resources-inner-pages" stroke="none" stroke-width="1" fill="none" fill-rule="evenodd">
        <g id="White_paper_locked" transform="translate(-712.000000, -1929.000000)">
            <g id="lock" transform="translate(712.000000, 1929.000000)">
                <g>
                    <rect id="Rectangle" fill="#3D5AFE" x="1" y="8" width="14" height="12"></rect>
                    <path d="M14,7 L13,7 L13,5 C13,2.24 10.76,0 8,0 C5.24,0 3,2.24 3,5 L3,7 L2,7 C0.9,7 0,7.9 0,9 L0,19 C0,20.1 0.9,21 2,21 L14,21 C15.1,21 16,20.1 16,19 L16,9 C16,7.9 15.1,7 14,7 Z M5,5 C5,3.34 6.34,2 8,2 C9.66,2 11,3.34 11,5 L11,7 L5,7 L5,5 Z M14,19 L2,19 L2,9 L14,9 L14,19 Z" id="Shape" fill="#1B2331" fill-rule="nonzero"></path>
                    <path d="M8,16 C9.1,16 10,15.1 10,14 C10,12.9 9.1,12 8,12 C6.9,12 6,12.9 6,14 C6,15.1 6.9,16 8,16 Z" id="Path" fill="#FFFFFF" fill-rule="nonzero"></path>
                </g>
            </g>
        </g>
    </g>
</svg>