<svg xmlns="http://www.w3.org/2000/svg" width="20" height="20" viewBox="0 0 20 20"><defs><linearGradient id="uu1ga" x1="4.54" x2="13.86" y1="2.4" y2="17.22" gradientUnits="userSpaceOnUse"><stop offset="0" stop-color="#7093ff"/><stop offset="1" stop-color="#3d5afe"/></linearGradient></defs><g><g><path fill="url(#uu1ga)" d="M9 9h3a1 1 0 0 1 0 2H9a1 1 0 0 1 0-2zM5.63 6.989L3.299 4.702a1.002 1.002 0 0 1-.026-1.399.96.96 0 0 1 1.374-.026l3.056 2.996c.396.387.397 1.032.004 1.421L4.649 10.72a.96.96 0 0 1-1.374-.02 1.002 1.002 0 0 1 .02-1.398zM0 16a4 4 0 0 0 4 4h12a4 4 0 0 0 4-4V4a4 4 0 0 0-4-4H4a4 4 0 0 0-4 4z"/></g></g></svg>