<?xml version="1.0" encoding="UTF-8"?>
<svg width="26px" height="26px" viewBox="0 0 26 26" version="1.1" xmlns="http://www.w3.org/2000/svg" xmlns:xlink="http://www.w3.org/1999/xlink">
    <!-- Generator: Sketch 56.3 (81716) - https://sketch.com -->
    <title>author</title>
    <desc>Created with Sketch.</desc>
    <defs>
        <linearGradient x1="22.7197266%" y1="35.9806898%" x2="69.3115234%" y2="63.3217693%" id="linearGradient-1">
            <stop stop-color="#7093FF" offset="0%"></stop>
            <stop stop-color="#3D5AFE" offset="100%"></stop>
        </linearGradient>
    </defs>
    <g id="Product-page" stroke="none" stroke-width="1" fill="none" fill-rule="evenodd">
        <g id="product" transform="translate(-863.000000, -1579.000000)">
            <g id="author" transform="translate(858.000000, 1578.000000)">
                <path d="M21.7961333,3.69526592 L27.0738777,3.69526592 C29.3165184,3.69526592 31.1345379,5.5132854 31.1345379,7.75592609 L31.1345379,10.3199697 C31.1345379,11.1470743 30.4650277,11.8180981 29.6379251,11.8199658 L19.2215892,11.8434875 C18.3931642,11.8453582 17.7200765,11.1753035 17.7182058,10.3468785 C17.7182029,10.3455898 17.7182016,10.3443011 17.718202,10.3430124 L17.7190231,7.77107468 C17.7197418,5.5198572 19.5449157,3.69526592 21.7961333,3.69526592 Z" id="Rectangle" fill="url(#linearGradient-1)" transform="translate(24.426130, 7.771075) rotate(-315.000000) translate(-24.426130, -7.771075) "></path>
                <path d="M7.38266136,8.98362646 L17.8853207,8.98362646 C18.7069354,8.98362646 19.3756528,9.64460261 19.385219,10.4661617 L19.5263405,22.5858504 C19.531043,22.9897034 19.3726889,23.3783889 19.0871024,23.6639754 L13.5232864,29.2277913 C12.9375,29.8135777 11.9877525,29.8135777 11.4019661,29.2277913 L6.44616954,24.2719948 C6.16844878,23.994274 6.01073254,23.6187053 6.00690109,23.2259675 L5.88273273,10.4982594 C5.87465119,9.66987168 6.53964072,8.99177938 7.36802843,8.98369783 C7.37290593,8.98365025 7.37778363,8.98362646 7.38266136,8.98362646 Z" id="Rectangle" fill="#1B2331" transform="translate(12.700825, 19.636039) rotate(-315.000000) translate(-12.700825, -19.636039) "></path>
            </g>
        </g>
    </g>
</svg>