<?xml version="1.0" encoding="UTF-8"?>
<svg width="25px" height="24px" viewBox="0 0 25 24" version="1.1" xmlns="http://www.w3.org/2000/svg" xmlns:xlink="http://www.w3.org/1999/xlink">
    <!-- Generator: Sketch 56.3 (81716) - https://sketch.com -->
    <title>s-stories-ico</title>
    <desc>Created with Sketch.</desc>
    <defs>
        <linearGradient x1="22.7197266%" y1="17.7808034%" x2="69.3115234%" y2="80.6161073%" id="linearGradient-1">
            <stop stop-color="#7093FF" offset="0%"></stop>
            <stop stop-color="#3D5AFE" offset="100%"></stop>
        </linearGradient>
    </defs>
    <g id="Navigation" stroke="none" stroke-width="1" fill="none" fill-rule="evenodd">
        <g id="navigation" transform="translate(-739.000000, -1211.000000)">
            <g id="s-stories-ico" transform="translate(739.000000, 1211.000000)">
                <path d="M19.0466614,19.2794703 L19.014225,19.2888205 C18.9228275,19.3191538 18.8293469,19.3461206 18.733855,19.3696406 L3.0829544,23.8812066 C2.63758635,24.0095894 2.16145382,23.9792978 1.73594617,23.7955096 C0.721922618,23.3575255 0.254950333,22.1804408 0.692934376,21.1664172 L6.87763162,6.84756533 C7.02777095,6.37443536 7.28049619,5.96901917 7.63322944,5.644403 C9.48378246,3.9415218 13.3859566,5.10724315 17.4124291,9.36828975 C21.4389015,13.6293363 22.0959316,16.8651885 20.2454687,18.5681663 C19.9039975,18.882385 19.5010092,19.1224546 19.0455356,19.2782695 L19.0466614,19.2794703 Z M13.0545686,13.2253253 C15.7887128,16.0193591 17.7438612,16.771776 18.2167925,16.3337108 C18.6896273,15.8955455 17.9857853,13.925589 15.2516411,11.1315552 C12.5174969,8.33752142 10.3451703,7.46387085 9.89681669,7.90797942 C9.44849447,8.35212047 10.3204244,10.4312915 13.0545686,13.2253253 Z" id="Combined-Shape" fill="url(#linearGradient-1)"></path>
                <path d="M16.5001577,0.00130677623 C16.6869517,0.458484193 17.0571612,0.997197583 17.5608179,1.50085427 C18.0644746,2.00451095 18.603188,2.37472044 19.0603654,2.56151444 C18.603188,2.74830844 18.0644746,3.11851793 17.5608179,3.62217461 C17.0571612,4.12583129 16.6869517,4.66454468 16.5001577,5.1217221 C16.3133637,4.66454468 15.9431542,4.12583129 15.4394976,3.62217461 C14.9358409,3.11851793 14.3971275,2.74830844 13.9399501,2.56151444 C14.3971275,2.37472044 14.9358409,2.00451095 15.4394976,1.50085427 C15.9431542,0.997197583 16.3133637,0.458484193 16.5001577,0.00130677623 Z M22.4998689,7.44497425 C22.6543618,7.82308397 22.960549,8.26862997 23.377103,8.68518397 C23.793657,9.10173796 24.239203,9.40792517 24.6173127,9.56241807 C24.2392074,9.71690027 23.7936701,10.0230749 23.3771279,10.4396171 C22.9605856,10.8561593 22.654411,11.3016966 22.4999288,11.679802 C22.3454359,11.3016923 22.0392487,10.8561463 21.6226947,10.4395923 C21.2061407,10.0230383 20.7605947,9.71685106 20.382485,9.56235816 C20.7605904,9.40787596 21.2061277,9.10170136 21.6226699,8.68515915 C22.0392121,8.26861694 22.3453867,7.8230796 22.4998689,7.44497425 Z M21.9999994,2.65126157 C22.1028983,2.90318529 22.3068661,3.20002593 22.5843764,3.4775363 C22.8618868,3.75504666 23.1587274,3.95901447 23.4106511,4.0619133 C23.1586956,4.16488994 22.861792,4.36894945 22.5841959,4.64654554 C22.3065998,4.92414164 22.1025403,5.2210453 21.9995636,5.47300081 C21.8966648,5.2210771 21.692697,4.92423646 21.4151866,4.64672609 C21.1376763,4.36921572 20.8408356,4.16524792 20.5889119,4.06234909 C20.8408674,3.95937244 21.1377711,3.75531294 21.4153672,3.47771684 C21.6929633,3.20012074 21.8970228,2.90321708 21.9999994,2.65126157 Z" id="Combined-Shape" fill="#1B2331"></path>
            </g>
        </g>
    </g>
</svg>