<svg xmlns="http://www.w3.org/2000/svg" width="24" height="26" viewBox="0 0 24 26"><defs><linearGradient id="1cnna" x1="15.4" x2="20.49" y1="3.03" y2="21.72" gradientUnits="userSpaceOnUse"><stop offset="0" stop-color="#7093ff"/><stop offset="1" stop-color="#3d5afe"/></linearGradient></defs><g><g><g><path fill="url(#1cnna)" d="M23.033 3.344a2 2 0 0 1 .805 1.756l-.832 11.168a3 3 0 0 1-.927 1.953s-7.382 7.006-9.159 7.006V0c5.595 0 10.113 3.344 10.113 3.344z"/></g><g><path fill="#1b2331" d="M.003 5.1a2 2 0 0 1 .805-1.756S5.327 0 10.921 0v25.227c-1.776 0-9.159-7.006-9.159-7.006a3 3 0 0 1-.927-1.953z"/></g></g></g></svg>