<svg xmlns="http://www.w3.org/2000/svg" width="22" height="18" viewBox="0 0 22 18"><defs><linearGradient id="rxjfa" x1="21.59" x2="0" y1="0" y2="18" gradientUnits="userSpaceOnUse"><stop offset="0" stop-color="#3a495f"/><stop offset="1" stop-color="#1b2331"/></linearGradient></defs><g><g><path fill="#fff" d="M1 5h20v9H1z"/></g><g><path fill="url(#rxjfa)" d="M20.35 11.25c0 .619-.495 1.125-1.1 1.125h-4.4c-.605 0-1.1-.506-1.1-1.125V5.625h1.375v5.074h1.243v-3.96h1.375v3.949h1.232V5.625h1.375zm-7.7-4.207H9.9v1.26h2.75V9.72H9.9v1.249h2.75v1.406h-4.4v-6.75h4.4zm-5.5 5.332H5.83L3.025 8.437v3.938H1.65v-6.75h1.375l2.75 3.938V5.624H7.15zM19.8 0H2.2C.979 0 .011 1.001.011 2.25L0 15.75C0 16.999.979 18 2.2 18h17.6c1.221 0 2.2-1.001 2.2-2.25V2.25C22 1.001 21.021 0 19.8 0z"/></g></g></svg>