<?xml version="1.0" encoding="UTF-8"?>
<svg width="22px" height="16px" viewBox="0 0 22 16" version="1.1" xmlns="http://www.w3.org/2000/svg" xmlns:xlink="http://www.w3.org/1999/xlink">
    <!-- Generator: Sketch 56.3 (81716) - https://sketch.com -->
    <title>videos-ico</title>
    <desc>Created with Sketch.</desc>
    <defs>
        <linearGradient x1="22.7197266%" y1="29.9121901%" x2="69.3115234%" y2="69.0883264%" id="linearGradient-1">
            <stop stop-color="#7093FF" offset="0%"></stop>
            <stop stop-color="#3D5AFE" offset="100%"></stop>
        </linearGradient>
    </defs>
    <g id="Navigation" stroke="none" stroke-width="1" fill="none" fill-rule="evenodd">
        <g id="navigation" transform="translate(-752.000000, -1293.000000)">
            <g id="videos-ico" transform="translate(752.000000, 1293.000000)">
                <path d="M3,0 L19,0 C20.6568542,-3.04359188e-16 22,1.34314575 22,3 L22,3 L0,3 C-2.02906125e-16,1.34314575 1.34314575,3.04359188e-16 3,0 Z" id="Rectangle" fill="#1B2331"></path>
                <path d="M1.73183405,0.280617094 L3.56361101,2.33640253 C3.75335624,2.54935175 4.02500382,2.67114404 4.31022412,2.67114404 L6.52350637,2.67114404 C6.6891918,2.67114404 6.82350637,2.53682947 6.82350637,2.37114404 C6.82350637,2.29212424 6.79232977,2.21629538 6.73674819,2.16012762 L4.59934629,0.000184570312 L7.90618111,0.000184570312 L10.2533683,2.37421856 C10.4412211,2.56421991 10.697297,2.67114404 10.9644845,2.67114404 L13.208565,2.67114404 C13.3742504,2.67114404 13.508565,2.53682947 13.508565,2.37114404 C13.508565,2.29212424 13.4773884,2.21629538 13.4218068,2.16012762 L11.2844049,0.000184570312 L14.5578535,0.000184570312 L16.9050407,2.37421856 C17.0928934,2.56421991 17.3489694,2.67114404 17.6161569,2.67114404 L19.8602373,2.67114404 C20.0259228,2.67114404 20.1602373,2.53682947 20.1602373,2.37114404 C20.1602373,2.29212424 20.1290607,2.21629538 20.0734791,2.16012762 L17.9360772,0.000184570312 L19,0.000184570312 C20.6568542,0.000184570312 22,1.34333032 22,3.00018457 L22,4 L4,4 C3.44771525,4 3,4.44771525 3,5 C3,5.55228475 3.44771525,6 4,6 L22,6 L22,13 C22,14.6568542 20.6568542,16 19,16 L3,16 C1.34314575,16 9.3869722e-16,14.6568542 0,13 L0,3.00018457 C-1.47402847e-16,1.79654898 0.708834047,0.758470459 1.73183405,0.280617094 Z M10,9.40212382 L10,12.5978762 C10,12.8740186 10.2238576,13.0978762 10.5,13.0978762 C10.5937099,13.0978762 10.6855337,13.0715415 10.7649995,13.0218753 L13.3216014,11.4239992 C13.5557696,11.277644 13.6269562,10.9691688 13.480601,10.7350005 C13.4403607,10.670616 13.3859859,10.6162412 13.3216014,10.5760008 L10.7649995,8.97812467 C10.5308312,8.8317695 10.222356,8.90295609 10.0760008,9.13712435 C10.0263347,9.21659015 10,9.30841396 10,9.40212382 Z" id="Combined-Shape" fill="url(#linearGradient-1)"></path>
            </g>
        </g>
    </g>
</svg>