<svg xmlns="http://www.w3.org/2000/svg" width="17" height="20" viewBox="0 0 17 20"><defs><linearGradient id="e27sa" x1="3.86" x2="11.78" y1="2.4" y2="17.22" gradientUnits="userSpaceOnUse"><stop offset="0" stop-color="#7093ff"/><stop offset="1" stop-color="#3d5afe"/></linearGradient></defs><g><g><g><path fill="url(#e27sa)" d="M0 4a4 4 0 0 1 4-4h9a4 4 0 0 1 4 4v12a4 4 0 0 1-4 4H4a4 4 0 0 1-4-4zm4 5a1 1 0 0 0 1 1h7a1 1 0 0 0 1-1V8a1 1 0 0 0-1-1H5a1 1 0 0 0-1 1zm0 5a1 1 0 0 0 1 1h7a1 1 0 0 0 1-1v-1a1 1 0 0 0-1-1H5a1 1 0 0 0-1 1z"/></g><g><path fill="#1b2331" d="M5 0h7v2a1 1 0 0 1-1 1H6a1 1 0 0 1-1-1z"/></g></g></g></svg>