<?xml version="1.0" standalone="no"?>
<!DOCTYPE svg PUBLIC "-//W3C//DTD SVG 1.1//EN" "http://www.w3.org/Graphics/SVG/1.1/DTD/svg11.dtd" >
<svg xmlns="http://www.w3.org/2000/svg" xmlns:xlink="http://www.w3.org/1999/xlink" version="1.1">
<metadata></metadata>
<defs>
<font id="montbook" horiz-adv-x="1417" >
<font-face units-per-em="2048" ascent="1638" descent="-410" />
<missing-glyph horiz-adv-x="548" />
<glyph horiz-adv-x="0" />
<glyph horiz-adv-x="682" />
<glyph unicode=" "  horiz-adv-x="548" />
<glyph unicode="&#x09;" horiz-adv-x="548" />
<glyph unicode="&#xa0;" horiz-adv-x="548" />
<glyph unicode="!" horiz-adv-x="548" d="M191 0v189h167v-189h-167zM204 379v1096h140v-1096h-140z" />
<glyph unicode="&#x22;" horiz-adv-x="714" d="M147 948v490h131v-490h-131zM436 948v490h131v-490h-131z" />
<glyph unicode="#" horiz-adv-x="1308" d="M86 436v122h201l55 348h-209v118h228l64 410h130l-64 -410h422l63 410h129l-62 -410h180v-118h-196l-52 -348h201v-122h-221l-65 -435h-129l62 435h-427l-69 -435h-129l68 435h-180zM417 558h426l52 348h-423z" />
<glyph unicode="$" horiz-adv-x="1140" d="M82 426h140q0 -142 99.5 -224.5t259.5 -82.5q144 0 240 74t96 192q0 29 -6.5 54t-16 44.5t-29 37.5t-35.5 30t-45 24.5t-48.5 20t-56 17t-57.5 14.5t-62 14q-85 18 -132 30.5t-117.5 42t-108 65.5t-66.5 97.5t-29 141.5q0 162 108.5 262t293.5 114v162h122v-163 q182 -16 285 -126t103 -287h-138q0 131 -87 207t-228 76t-230.5 -65.5t-89.5 -174.5q0 -40 10.5 -71.5t40 -56t50.5 -40t74 -32t76.5 -23t88.5 -21.5l12 -3q87 -19 134.5 -32t119 -44t109.5 -68t67 -100.5t29 -145.5q0 -168 -113 -276.5t-303 -124.5v-173h-118v172 q-208 15 -325 133t-117 309z" />
<glyph unicode="%" horiz-adv-x="1546" d="M65 1080q0 131 85 215t218 84t218 -84t85 -215q0 -133 -85 -217t-218 -84q-134 0 -218.5 84t-84.5 217zM176 1080q0 -85 54 -139.5t138 -54.5t138.5 54.5t54.5 139.5q0 84 -54.5 138t-138.5 54t-138 -54t-54 -138zM279 0l822 1364h140l-823 -1364h-139zM879 282 q0 131 84.5 214.5t216.5 83.5t216.5 -83.5t84.5 -214.5t-84.5 -214t-216.5 -83t-216.5 83t-84.5 214zM990 282q0 -83 53.5 -136t136.5 -53t136.5 53t53.5 136t-53.5 136.5t-136.5 53.5t-136.5 -53.5t-53.5 -136.5z" />
<glyph unicode="&#x26;" horiz-adv-x="1261" d="M94 352q0 75 23.5 139.5t69.5 117t93.5 90.5t115.5 80q-97 127 -135 212.5t-38 167.5q0 136 96.5 216.5t254.5 80.5q152 0 248.5 -79.5t96.5 -206.5q0 -60 -20.5 -114.5t-49.5 -93t-80 -81t-90 -68t-103 -63.5q118 -146 369 -420q79 130 79 297h119q0 -228 -110 -392 q1 -1 221 -235h-160q-67 71 -136 145q-170 -167 -435 -167q-193 0 -311 103t-118 271zM226 356q0 -113 85 -182.5t224 -69.5q200 0 337 134q-273 293 -401 448q-56 -36 -95.5 -67t-76 -71.5t-55 -88.5t-18.5 -103zM348 1159q0 -109 155 -316q56 33 90 55t77 55.5t66.5 63.5 t40.5 70t17 83q0 77 -61.5 126t-158.5 49q-101 0 -163.5 -51.5t-62.5 -134.5z" />
<glyph unicode="'" horiz-adv-x="425" d="M147 948v490h131v-490h-131z" />
<glyph unicode="(" horiz-adv-x="589" d="M106 680q0 265 75.5 506t213.5 440h155q-138 -189 -222 -435t-84 -511q0 -266 84 -512.5t223 -431.5h-156q-138 197 -213.5 438.5t-75.5 505.5z" />
<glyph unicode=")" horiz-adv-x="589" d="M39 -264q139 185 223 431.5t84 512.5q0 265 -84 511t-222 435h155q138 -199 213.5 -440t75.5 -506q0 -264 -75.5 -505.5t-213.5 -438.5h-156z" />
<glyph unicode="*" horiz-adv-x="800" d="M91 1189l35 102l219 -75v232h109v-232l220 75l36 -102l-224 -74l147 -192l-84 -68l-149 198l-151 -198l-85 68l149 192z" />
<glyph unicode="+" horiz-adv-x="1067" d="M68 643v129h398v403h136v-403h397v-129h-397v-413h-136v413h-398z" />
<glyph unicode="," horiz-adv-x="462" d="M141 0v187h181v-174q0 -111 -43.5 -175t-130.5 -94v84q51 21 73 62t22 110h-102z" />
<glyph unicode="-" horiz-adv-x="935" d="M145 504v135h646v-135h-646z" />
<glyph unicode="." horiz-adv-x="446" d="M139 0v189h168v-189h-168z" />
<glyph unicode="/" horiz-adv-x="851" d="M57 -134l591 1693h145l-590 -1693h-146z" />
<glyph unicode="0" horiz-adv-x="1267" d="M115 682q0 325 140 514t380 189q239 0 378.5 -189t139.5 -514q0 -324 -140 -514.5t-378 -190.5q-239 0 -379.5 190t-140.5 515zM252 682q0 -269 102 -422.5t281 -153.5q177 0 279 153.5t102 422.5q0 268 -102 421t-279 153q-178 0 -280.5 -153t-102.5 -421z" />
<glyph unicode="1" horiz-adv-x="663" d="M51 1237v125h408v-1362h-133v1237h-275z" />
<glyph unicode="2" horiz-adv-x="1062" d="M76 0v49q245 253 380.5 401t212 254.5t96.5 165.5t20 132q0 114 -72.5 184t-192.5 70q-123 0 -199.5 -71t-76.5 -184v-35h-135v35q0 173 114.5 278.5t296.5 105.5q178 0 289.5 -106.5t111.5 -276.5q0 -79 -19 -143.5t-80.5 -163t-175 -230.5t-306.5 -336h640v-129h-904z " />
<glyph unicode="3" horiz-adv-x="1081" d="M88 390h134q10 -127 94.5 -205.5t213.5 -78.5q135 0 224 89.5t89 225.5q0 135 -95 223.5t-239 88.5h-140v30l346 475h-580v125h792v-35l-352 -485q179 -14 291.5 -134t112.5 -293q0 -191 -128.5 -315t-320.5 -124q-185 0 -308 115.5t-134 297.5z" />
<glyph unicode="4" horiz-adv-x="1093" d="M43 295v36l488 1034h142l-447 -950h528l22 448h109v-448h152v-120h-152v-295h-132v295h-710z" />
<glyph unicode="5" horiz-adv-x="1067" d="M88 390h133q8 -126 95 -205t217 -79q133 0 221 88t88 222t-94.5 224t-236.5 90h-338l-20 24l66 609h667v-125h-554l-42 -386h226q200 0 331.5 -125.5t131.5 -310.5q0 -190 -128.5 -314.5t-318.5 -124.5q-187 0 -311.5 116.5t-132.5 296.5z" />
<glyph unicode="6" horiz-adv-x="1124" d="M101 432q0 192 150 459l274 486h148q-255 -454 -311 -569q109 66 237 66q190 0 325.5 -124.5t135.5 -317.5q0 -199 -135 -327t-343 -128q-210 0 -345.5 128.5t-135.5 326.5zM238 432q0 -141 97 -233.5t245 -92.5t245.5 92.5t97.5 233.5q0 142 -97 233.5t-246 91.5 q-148 0 -245 -92t-97 -233z" />
<glyph unicode="7" horiz-adv-x="1005" d="M52 1238v125h906v-27l-540 -1336h-146l505 1238h-725z" />
<glyph unicode="8" horiz-adv-x="1169" d="M110 386q0 114 58.5 206t159.5 140q-76 44 -121 124t-45 175q0 157 117.5 255.5t304.5 98.5q188 0 304 -98t116 -256q0 -96 -44.5 -176.5t-117.5 -122.5q100 -44 158.5 -137t58.5 -209q0 -180 -132.5 -294.5t-342.5 -114.5q-212 0 -343 113t-131 296zM246 382 q0 -126 94 -205.5t244 -79.5q151 0 245 79.5t94 205.5q0 131 -94 210t-245 79q-149 0 -243.5 -79t-94.5 -210zM296 1031q0 -110 80 -177t208 -67q126 0 206 67.5t80 176.5q0 105 -79 171.5t-207 66.5q-129 0 -208.5 -66.5t-79.5 -171.5z" />
<glyph unicode="9" horiz-adv-x="1120" d="M65 930q0 199 134.5 327t341.5 128q208 0 343 -128.5t135 -326.5q0 -203 -147 -459l-274 -477h-148q270 475 310 558q-108 -64 -236 -64q-194 0 -326.5 127.5t-132.5 314.5zM202 930q0 -141 97 -232.5t244 -91.5t243.5 92t96.5 232t-96.5 233t-243.5 93t-244 -92.5 t-97 -233.5z" />
<glyph unicode=":" horiz-adv-x="460" d="M147 0v189h167v-189h-167zM147 783v189h167v-189h-167z" />
<glyph unicode=";" horiz-adv-x="485" d="M153 0v187h180v-174q0 -111 -43 -175t-130 -94v84q51 21 73 62t22 110h-102zM157 785v188h167v-188h-167z" />
<glyph unicode="&#x3c;" horiz-adv-x="1085" d="M57 681v28l881 560v-157l-661 -414l661 -409v-156z" />
<glyph unicode="=" horiz-adv-x="1282" d="M150 412v130h983v-130h-983zM150 863v129h983v-129h-983z" />
<glyph unicode="&#x3e;" horiz-adv-x="1085" d="M147 133v156l661 409l-661 414v157l880 -560v-28z" />
<glyph unicode="?" horiz-adv-x="1040" d="M61 1119q6 122 68 213.5t159.5 137.5t214.5 46q190 0 314.5 -113.5t124.5 -303.5q0 -61 -13.5 -114t-31 -88.5t-51 -74t-56 -59t-62.5 -53.5q-36 -31 -53.5 -47t-45.5 -46.5t-41 -55.5t-23.5 -61t-10.5 -76v-45h-140v45q0 55 13 104t29 81t49 69.5t53 55.5t60 52 q37 30 57 48t49 49.5t44 59.5t26 69t11 87q0 130 -83.5 208t-218.5 78q-127 0 -214 -72.5t-96 -193.5h-132zM400 0v189h168v-189h-168z" />
<glyph unicode="@" horiz-adv-x="2080" d="M96 516q0 197 68.5 363.5t191 282.5t297.5 181.5t381 65.5q276 0 490.5 -111t333 -311.5t118.5 -459.5q0 -201 -93.5 -327t-241.5 -126q-91 0 -160 50t-96 133q-59 -98 -158 -153.5t-222 -55.5q-198 0 -329 133t-131 333t131 333.5t329 133.5q115 0 210 -49.5t156 -137.5 l21 143h76v-551q0 -89 50 -146.5t128 -57.5q97 0 157.5 95.5t60.5 249.5q0 227 -104 403t-292 273t-431 97t-431 -98.5t-292 -277t-104 -408.5q0 -171 58 -315.5t161.5 -245t251.5 -157t324 -56.5q104 0 204.5 26t172.5 72v-113q-179 -96 -390 -96q-262 0 -466 111.5 t-317 313t-113 460.5zM670 516q0 -150 97.5 -249.5t245.5 -99.5q149 0 246 98.5t97 250.5q0 151 -97 249t-246 98q-148 0 -245.5 -99t-97.5 -248z" />
<glyph unicode="A" d="M40 0l594 1434h132l610 -1434h-156l-154 366h-721l-152 -366h-153zM399 498h612l-309 737z" />
<glyph unicode="B" horiz-adv-x="1320" d="M204 0v1434h558q173 0 284.5 -103t111.5 -257q0 -102 -52.5 -192.5t-138.5 -134.5q105 -40 168 -136.5t63 -217.5q0 -166 -122.5 -279.5t-307.5 -113.5h-564zM346 142h425q119 0 199 76.5t80 190.5q0 113 -79 189t-196 76h-429v-532zM346 815h423q103 0 173 70.5 t70 169.5q0 101 -71.5 169.5t-176.5 68.5h-418v-478z" />
<glyph unicode="C" horiz-adv-x="1591" d="M103 716q0 212 94 381t261.5 264t377.5 95q244 0 426.5 -132.5t247.5 -357.5h-147q-62 164 -201.5 256.5t-325.5 92.5q-256 0 -421.5 -168.5t-165.5 -430.5t165.5 -429.5t421.5 -167.5q192 0 333 98.5t202 272.5h147q-65 -236 -248.5 -374t-433.5 -138 q-158 0 -294.5 55.5t-232.5 152.5t-151 234t-55 296z" />
<glyph unicode="D" horiz-adv-x="1495" d="M204 0v1434h460q156 0 291.5 -54t231 -148.5t150 -228t54.5 -286.5q0 -205 -93.5 -369t-259.5 -256t-374 -92h-460zM347 135h312q255 0 420 164.5t165 417.5q0 166 -74.5 299t-208 208t-302.5 75h-312v-1164z" />
<glyph unicode="E" horiz-adv-x="1124" d="M204 0v1434h798v-137h-655v-489h602v-134h-602v-536h678v-138h-821z" />
<glyph unicode="F" horiz-adv-x="1062" d="M204 0v1434h792v-137h-649v-519h595v-133h-595v-645h-143z" />
<glyph unicode="G" horiz-adv-x="1636" d="M104 716q0 210 93 378.5t257.5 264t369.5 95.5q257 0 451.5 -145t241.5 -371h-148q-46 167 -196.5 271.5t-345.5 104.5q-251 0 -414 -168.5t-163 -429.5q0 -264 160.5 -430.5t416.5 -166.5q217 0 370 122.5t188 321.5h-615v136h770q-5 -210 -97 -374t-252.5 -255.5 t-363.5 -91.5q-208 0 -373 95t-257.5 263.5t-92.5 379.5z" />
<glyph unicode="H" horiz-adv-x="1492" d="M204 0v1434h143v-624h798v624h144v-1434h-144v672h-798v-672h-143z" />
<glyph unicode="I" horiz-adv-x="550" d="M204 0v1434h143v-1434h-143z" />
<glyph unicode="J" horiz-adv-x="1216" d="M60 470v24h142v-18q0 -155 98 -257t247 -102q145 0 242.5 102.5t97.5 256.5v958h143v-964q0 -213 -137.5 -353t-345.5 -140q-209 0 -348 140t-139 353z" />
<glyph unicode="K" horiz-adv-x="1280" d="M204 0v1434h143v-624h208l491 624h183l-544 -689l594 -745h-185l-538 675h-209v-675h-143z" />
<glyph unicode="L" horiz-adv-x="1042" d="M204 0v1434h143v-1299h653v-135h-796z" />
<glyph unicode="M" horiz-adv-x="1949" d="M95 0l245 1434h137l496 -1114l499 1114h140l242 -1434h-147l-200 1179l-512 -1133h-40l-512 1132l-202 -1178h-146z" />
<glyph unicode="N" horiz-adv-x="1531" d="M204 0v1434h130l853 -1172v1172h141v-1434h-121l-863 1182v-1182h-140z" />
<glyph unicode="O" horiz-adv-x="1699" d="M103 716q0 157 56.5 294t154.5 235.5t237 155t299 56.5q213 0 384 -96.5t266.5 -266t95.5 -378.5t-95.5 -378t-266.5 -265t-384 -96q-160 0 -299 56.5t-237 154.5t-154.5 235t-56.5 293zM249 716q0 -168 77.5 -305t215 -215.5t308.5 -78.5q259 0 429.5 171t170.5 428 q0 169 -77 306.5t-214.5 215.5t-308.5 78t-308.5 -78.5t-215 -215.5t-77.5 -306z" />
<glyph unicode="P" horiz-adv-x="1241" d="M204 0v1434h504q200 0 333.5 -128.5t133.5 -321.5t-133 -322t-334 -129h-361v-533h-143zM347 672h353q142 0 235.5 89t93.5 223t-93.5 222t-235.5 88h-353v-622z" />
<glyph unicode="Q" horiz-adv-x="1699" d="M103 716q0 157 56.5 294t154.5 235.5t237 155t299 56.5q213 0 384 -96.5t266.5 -266t95.5 -378.5q0 -176 -68.5 -324.5t-192.5 -249.5l285 -325h-176l-220 251q-167 -91 -374 -91q-160 0 -299 56.5t-237 154.5t-154.5 235t-56.5 293zM249 716q0 -168 77.5 -305 t215 -215.5t308.5 -78.5q150 0 277 62l-354 405h176l291 -332q100 82 155 202t55 262q0 169 -77 306.5t-214.5 215.5t-308.5 78t-308.5 -78.5t-215 -215.5t-77.5 -306z" />
<glyph unicode="R" horiz-adv-x="1312" d="M204 0v1434h536q198 0 327.5 -121.5t129.5 -307.5q0 -153 -92.5 -264.5t-242.5 -146.5l353 -594h-162l-343 581h-363v-581h-143zM347 717h386q141 0 229 81.5t88 208.5t-88.5 208.5t-228.5 81.5h-386v-580z" />
<glyph unicode="S" horiz-adv-x="1212" d="M98 435h147q0 -144 103 -228t270 -84q151 0 249.5 76t98.5 200q0 31 -7 57.5t-17 47t-31 39.5t-36.5 31.5t-47.5 26t-51.5 21t-59.5 18.5t-60 16t-65 15q-49 11 -75.5 17.5t-72 19.5t-72 24t-64.5 29.5t-60.5 37.5t-48 46t-39 58t-23 70.5t-9.5 85.5q0 181 130 286.5 t349 105.5q216 0 342.5 -112.5t126.5 -303.5h-143q0 128 -91.5 203.5t-237.5 75.5q-147 0 -240 -68t-93 -181q0 -33 7 -60.5t24.5 -49.5t34 -39t48 -32t54 -25t64 -21.5t66.5 -17.5t72 -17q50 -12 76.5 -18.5t73.5 -20t74 -25t66 -30.5t61.5 -38.5t49 -48t40.5 -60.5 t23.5 -73.5t9.5 -88.5q0 -192 -139 -305t-356 -113q-235 0 -378 123t-143 330z" />
<glyph unicode="T" horiz-adv-x="1124" d="M44 1299v135h1036v-135h-447v-1299h-143v1299h-446z" />
<glyph unicode="U" horiz-adv-x="1480" d="M186 532v902h145v-892q0 -188 114.5 -305.5t295.5 -117.5q179 0 294 118t115 305v892h145v-902q0 -160 -72 -286.5t-198.5 -197t-283.5 -70.5q-240 0 -397.5 156t-157.5 398z" />
<glyph unicode="V" horiz-adv-x="1384" d="M42 1434h159l494 -1218l484 1218h157l-575 -1434h-131z" />
<glyph unicode="W" horiz-adv-x="2095" d="M50 1434h153l380 -1196l432 1159h60l443 -1160l371 1197h152l-455 -1434h-125l-415 1090l-406 -1090h-125z" />
<glyph unicode="X" horiz-adv-x="1214" d="M20 0l499 750l-459 684h163l386 -576l384 576h163l-458 -688l499 -746h-163l-426 636l-424 -636h-164z" />
<glyph unicode="Y" horiz-adv-x="1335" d="M61 1434h158l449 -728l452 728h158l-537 -864v-570h-148v570z" />
<glyph unicode="Z" horiz-adv-x="1136" d="M52 0v27l782 1272h-750v135h978v-29l-782 -1270h808v-135h-1036z" />
<glyph unicode="[" horiz-adv-x="677" d="M203 -270v1889h427v-119h-296v-1648h300v-122h-431z" />
<glyph unicode="\" horiz-adv-x="851" d="M59 1559h145l592 -1693h-146z" />
<glyph unicode="]" horiz-adv-x="677" d="M44 -148h301v1648h-297v119h427v-1889h-431v122z" />
<glyph unicode="^" horiz-adv-x="1075" d="M70 694l455 744h28l451 -744h-158l-308 515l-309 -515h-159z" />
<glyph unicode="_" horiz-adv-x="1056" d="M0 -106h1057v-134h-1057v134z" />
<glyph unicode="`" horiz-adv-x="1228" d="M219 1549h149l145 -311h-112z" />
<glyph unicode="a" horiz-adv-x="1433" d="M93 553q0 247 163 411.5t407 164.5q143 0 261.5 -59t195.5 -164l18 200h112v-1106h-116l-16 198q-77 -104 -194.5 -162.5t-260.5 -58.5q-120 0 -226 44t-181.5 120.5t-119 183.5t-43.5 228zM235 553q0 -189 125 -315t313 -126q189 0 312 125t123 316t-123 316t-312 125 q-188 0 -313 -126t-125 -315z" />
<glyph unicode="b" horiz-adv-x="1423" d="M184 0v1499h139v-569q78 94 191.5 146.5t247.5 52.5q163 0 293.5 -75t202.5 -206.5t72 -294.5q0 -162 -72 -293.5t-202.5 -207t-293.5 -75.5q-138 0 -254.5 56t-194.5 156l-20 -189h-109zM314 553q0 -188 125 -314.5t313 -126.5q189 0 312.5 125t123.5 316t-123.5 316 t-312.5 125q-188 0 -313 -126t-125 -315z" />
<glyph unicode="c" horiz-adv-x="1267" d="M93 553q0 122 44 229t119.5 183t182 120t226.5 44q192 0 334.5 -103.5t195.5 -277.5h-138q-52 115 -156 180.5t-236 65.5q-184 0 -307 -126.5t-123 -314.5t123.5 -314.5t306.5 -126.5q131 0 234.5 66t157.5 185h141q-54 -177 -198.5 -281.5t-334.5 -104.5q-120 0 -226 44 t-182 120.5t-120 183.5t-44 228z" />
<glyph unicode="d" horiz-adv-x="1423" d="M93 553q0 163 72.5 294.5t202.5 206.5t293 75q134 0 247.5 -52t191.5 -146v568h139v-1499h-109l-20 188q-78 -100 -194 -155.5t-255 -55.5q-246 0 -407 164.5t-161 411.5zM235 553q0 -190 124 -315.5t312 -125.5t312.5 126t124.5 315q0 190 -124 315.5t-313 125.5 q-188 0 -312 -125.5t-124 -315.5z" />
<glyph unicode="e" horiz-adv-x="1296" d="M93 554q0 162 73 293.5t202 206.5t286 75q161 0 288.5 -77t196 -208.5t68.5 -291.5q0 -8 -0.5 -16.5t-1.5 -18.5t-1 -16h-972q17 -173 133.5 -280.5t288.5 -107.5q124 0 221 57t154 160h147q-73 -169 -209 -261t-313 -92q-118 0 -222 44t-178.5 120.5t-117.5 184 t-43 228.5zM235 630h834q-24 167 -138 267t-277 100q-166 0 -281 -101t-138 -266z" />
<glyph unicode="f" horiz-adv-x="780" d="M34 982v118h225v89q0 184 84 269t271 85h139v-114h-114q-134 0 -189.5 -55t-55.5 -188v-86h360v-118h-356v-982h-139v982h-225z" />
<glyph unicode="g" horiz-adv-x="1382" d="M93 582q0 152 71.5 277.5t196 197.5t275.5 72q139 0 254.5 -59t190.5 -163l23 199h94v-949q0 -268 -143 -421t-393 -153q-196 0 -331 96t-182 268h140q40 -112 140 -174t233 -62q183 0 291.5 114.5t108.5 314.5v92q-75 -92 -185 -143.5t-241 -51.5q-151 0 -276 71.5 t-196 196.5t-71 277zM236 582q0 -177 118 -294.5t296 -117.5t294.5 117t116.5 295q0 179 -116.5 296.5t-294.5 117.5t-296 -118.5t-118 -295.5z" />
<glyph unicode="h" horiz-adv-x="1312" d="M184 0v1499h139v-571q64 94 167.5 147.5t228.5 53.5q198 0 313.5 -126.5t115.5 -342.5v-660h-139v628q0 178 -84.5 275.5t-239.5 97.5q-151 0 -256.5 -112.5t-105.5 -272.5v-616h-139z" />
<glyph unicode="i" horiz-adv-x="505" d="M174 1315v172h159v-172h-159zM184 0v1106h139v-1106h-139z" />
<glyph unicode="j" horiz-adv-x="530" d="M-85 -266h57q113 0 174.5 62.5t61.5 175.5v1134h140v-1145q0 -161 -97.5 -257.5t-259.5 -96.5h-76v127zM200 1315v172h159v-172h-159z" />
<glyph unicode="k" horiz-adv-x="1103" d="M198 0v1499h139v-858h177l369 465h171l-421 -530l462 -576h-175l-408 512h-175v-512h-139z" />
<glyph unicode="l" horiz-adv-x="505" d="M184 0v1499h139v-1499h-139z" />
<glyph unicode="m" horiz-adv-x="1949" d="M184 0v1106h102l23 -170q61 91 156.5 142t207.5 51q120 0 210.5 -61t133.5 -168q58 107 159.5 168t223.5 61q172 0 277.5 -118t105.5 -307v-704h-139v663q0 157 -72.5 247.5t-198.5 90.5q-136 0 -228 -107.5t-93 -269.5v-624h-136v663q0 158 -72.5 248t-200.5 90 q-136 0 -227.5 -107.5t-92.5 -269.5v-624h-139z" />
<glyph unicode="n" horiz-adv-x="1312" d="M184 0v1106h100l28 -195q62 102 169 160t238 58q196 0 312.5 -130t116.5 -339v-660h-139v628q0 178 -84.5 275.5t-239.5 97.5q-151 0 -256.5 -112.5t-105.5 -272.5v-616h-139z" />
<glyph unicode="o" horiz-adv-x="1351" d="M93 553q0 249 166.5 412.5t416.5 163.5q164 0 297.5 -74.5t209 -206.5t75.5 -295t-75.5 -295t-209 -206.5t-297.5 -74.5t-297.5 74.5t-209.5 206.5t-76 295zM235 553q0 -191 125 -316t316 -125t315.5 125t124.5 316t-124.5 316t-315.5 125t-316 -125t-125 -316z" />
<glyph unicode="p" horiz-adv-x="1425" d="M184 -393v1499h97l29 -199q78 104 196.5 163t258.5 59q246 0 406 -164t160 -412q0 -162 -72.5 -294t-202 -207t-291.5 -75q-135 0 -249.5 54.5t-192.5 151.5v-576h-139zM317 553q0 -189 125 -315t313 -126q189 0 312.5 125t123.5 316t-123.5 316t-312.5 125 q-188 0 -313 -126t-125 -315z" />
<glyph unicode="q" horiz-adv-x="1423" d="M93 553q0 122 43 229t117.5 183t180 120t226.5 44q141 0 258.5 -58.5t194.5 -162.5l30 198h97v-1499h-139v575q-78 -97 -191.5 -151t-249.5 -54q-161 0 -291 75t-203 207t-73 294zM233 553q0 -190 124.5 -315.5t312.5 -125.5q189 0 313 125.5t124 315.5t-124 315.5 t-313 125.5q-188 0 -312.5 -125.5t-124.5 -315.5z" />
<glyph unicode="r" horiz-adv-x="786" d="M184 0v1106h100l24 -190q121 195 365 195h97v-132h-108q-158 0 -248.5 -101t-90.5 -270v-608h-139z" />
<glyph unicode="s" horiz-adv-x="1046" d="M88 327h136q9 -105 91 -163t213 -58q129 0 209 53.5t80 144.5q0 31 -9.5 57t-23.5 44t-40 33.5t-48 25t-59.5 18.5t-62.5 14t-68 12q-54 9 -83 15t-78 19t-76.5 26.5t-62 37t-53 51.5t-31.5 69t-13 91q0 140 112.5 226t296.5 86q183 0 293.5 -89.5t116.5 -241.5h-132 q-6 98 -79.5 152t-201.5 54q-124 0 -197.5 -49.5t-73.5 -132.5q0 -24 5.5 -44.5t19 -36.5t26.5 -28t38 -22t43 -16.5t51.5 -13.5t53.5 -11t59 -10q78 -13 119.5 -21.5t107 -32.5t99.5 -55.5t61 -88t27 -132.5q0 -151 -118 -242t-313 -91q-193 0 -309.5 94t-125.5 256z" />
<glyph unicode="t" horiz-adv-x="798" d="M46 980v27l306 315h23v-216h359v-126h-359v-605q0 -118 64 -182t182 -64h120v-129h-138q-171 0 -269 99t-98 271v610h-190z" />
<glyph unicode="u" horiz-adv-x="1292" d="M164 466v640h139v-619q0 -174 92.5 -274.5t251.5 -100.5t251 100.5t92 274.5v619h139v-640q0 -223 -130.5 -356t-351.5 -133q-220 0 -351.5 133.5t-131.5 355.5z" />
<glyph unicode="v" horiz-adv-x="1165" d="M37 1106h146l403 -923l395 923h142l-474 -1106h-126z" />
<glyph unicode="w" horiz-adv-x="1738" d="M47 1106h146l295 -871l353 848h52l356 -854l304 877h142l-382 -1106h-112l-334 814l-332 -814h-112z" />
<glyph unicode="x" horiz-adv-x="1034" d="M19 0l414 577l-378 529h157l306 -432l309 432h154l-380 -524l415 -582h-156l-344 485l-343 -485h-154z" />
<glyph unicode="y" horiz-adv-x="1191" d="M37 1106h152l421 -881l396 881h149l-539 -1168q-86 -188 -176.5 -259.5t-239.5 -71.5h-98v126h87q112 0 172 46.5t128 189.5l48 102z" />
<glyph unicode="z" horiz-adv-x="968" d="M52 0v24l625 953h-588v129h810v-26l-623 -949h630v-131h-854z" />
<glyph unicode="{" horiz-adv-x="702" d="M69 614v118h25q52 0 88.5 36t36.5 89v500q0 104 72.5 175.5t177.5 71.5h184v-123h-139q-68 0 -112.5 -44.5t-44.5 -112.5v-460q0 -65 -34 -116.5t-85 -73.5q51 -21 85 -73.5t34 -116.5v-464q0 -67 44.5 -112.5t112.5 -45.5h142v-124h-187q-105 0 -177.5 72.5t-72.5 177.5 v504q0 51 -36.5 86.5t-88.5 35.5h-25z" />
<glyph unicode="|" horiz-adv-x="538" d="M204 -389v2109h130v-2109h-130z" />
<glyph unicode="}" horiz-adv-x="702" d="M45 -138h142q68 0 113 45.5t45 112.5v464q0 64 34 116.5t85 73.5q-51 22 -85 73.5t-34 116.5v460q0 68 -45 112.5t-113 44.5h-138v123h184q105 0 177.5 -71.5t72.5 -175.5v-500q0 -53 36.5 -89t88.5 -36h25v-118h-25q-52 0 -88.5 -35.5t-36.5 -86.5v-504 q0 -105 -72.5 -177.5t-177.5 -72.5h-188v124z" />
<glyph unicode="~" horiz-adv-x="1175" d="M150 497v34q0 139 66 222t177 83q69 0 125.5 -29.5t123.5 -102.5q50 -54 83 -73.5t70 -19.5q63 0 101.5 50t38.5 133v30h101v-32q0 -139 -64.5 -220.5t-174.5 -81.5q-65 0 -120.5 29t-127.5 99q-54 56 -86 76t-68 20q-64 0 -104 -51.5t-40 -135.5v-30h-101z" />
<glyph unicode="&#xa1;" horiz-adv-x="491" d="M161 917v189h168v-189h-168zM175 -369v1096h141v-1096h-141z" />
<glyph unicode="&#xa2;" horiz-adv-x="1222" d="M97 528q0 221 138 373.5t351 172.5v178h114v-178q163 -16 282 -113t166 -250h-134q-49 111 -148 173t-225 62q-175 0 -292 -119.5t-117 -298.5q0 -178 117.5 -298.5t291.5 -120.5q125 0 224 64t150 176l134 -3q-48 -153 -168 -251t-281 -114v-169h-114v169 q-211 20 -350 174.5t-139 372.5z" />
<glyph unicode="&#xa3;" horiz-adv-x="1212" d="M92 0v99l148 18v479h-129v118h129v271q0 181 119 298t300 117q177 0 292 -114t115 -289v-15h-125v8q0 120 -81 200.5t-201 80.5q-123 0 -203.5 -83t-80.5 -210v-264h397v-118h-397v-477h616v192h125v-311h-1024z" />
<glyph unicode="&#xa4;" horiz-adv-x="1220" d="M104 183l168 172q-86 113 -86 254q0 146 90 262l-169 171l81 81l172 -171q112 80 249 80q136 0 249 -82l172 173l82 -81l-171 -172q90 -116 90 -261q0 -141 -85 -253l172 -174l-81 -82l-173 174q-113 -86 -255 -86q-143 0 -256 86l-167 -172zM303 611q0 -126 90.5 -216 t216.5 -90q125 0 214 90t89 216t-88.5 215t-214.5 89t-216.5 -89t-90.5 -215z" />
<glyph unicode="&#xa5;" horiz-adv-x="1292" d="M70 1362h145l429 -640l435 640h146l-511 -753v-49h410v-93h-410v-157h410v-92h-410v-218h-137v218h-410v92h410v157h-410v93h410v48z" />
<glyph unicode="&#xa6;" horiz-adv-x="538" d="M204 -389v921h130v-921h-130zM204 819v901h130v-901h-130z" />
<glyph unicode="&#xa7;" horiz-adv-x="1036" d="M101 687q0 185 183 270q-117 75 -117 217q0 135 93.5 209.5t243.5 74.5q172 0 274.5 -86.5t102.5 -229.5h-118q0 95 -72 150.5t-189 55.5q-96 0 -156.5 -46.5t-60.5 -125.5q0 -39 15.5 -69.5t36.5 -50.5t61 -38t71 -27.5t84 -24.5q49 -12 77 -20t73.5 -24t73 -32 t60.5 -41.5t51.5 -55t31 -71.5t12.5 -91q0 -175 -176 -267q123 -78 123 -220q0 -134 -97.5 -208.5t-253.5 -74.5q-173 0 -276.5 87t-103.5 230h118q0 -95 73 -150.5t190 -55.5q104 0 167.5 46t63.5 125q0 38 -16 68t-38 49.5t-64 37.5t-74 28t-88 25q-48 12 -76 20t-73.5 24 t-73 32t-61 42t-51.5 55.5t-31 71.5t-13 91zM221 696q0 -33 9.5 -61.5t22.5 -49t39.5 -39.5t46.5 -30t58 -25t60.5 -20.5t66.5 -18.5q48 -12 111 -34q84 26 130 79t46 125q0 27 -6 50.5t-14 42t-25.5 36t-30.5 29t-39.5 24.5t-42 20t-48.5 17.5t-49 15.5t-52 15 q-37 11 -97 32q-90 -27 -138 -81.5t-48 -126.5z" />
<glyph unicode="&#xa8;" horiz-adv-x="1228" d="M203 1315v172h168v-172h-168zM587 1315v172h168v-172h-168z" />
<glyph unicode="&#xa9;" horiz-adv-x="1726" d="M103 715q0 213 97 381t269.5 261.5t391.5 93.5t393 -94t271.5 -262t97.5 -380t-97.5 -380.5t-271.5 -262.5t-393 -94q-218 0 -391 93.5t-270 262t-97 381.5zM197 715q0 -188 84.5 -335.5t236 -229t343.5 -81.5q292 0 479.5 181t187.5 465t-187.5 465t-479.5 181 q-192 0 -343.5 -81.5t-236 -229t-84.5 -335.5zM487 717q0 162 107 268.5t269 106.5q123 0 215.5 -67.5t127.5 -180.5h-95q-34 73 -99.5 114t-148.5 41q-120 0 -200 -81t-80 -201q0 -119 80 -199t200 -80q83 0 147.5 41t98.5 115h98q-35 -115 -128 -183t-216 -68 q-160 0 -268 108t-108 266z" />
<glyph unicode="&#xaa;" horiz-adv-x="952" d="M93 1107q0 147 98.5 248.5t241.5 101.5q82 0 151 -33.5t116 -93.5l15 117h86v-681h-89l-13 115q-47 -59 -116 -92.5t-150 -33.5q-143 0 -241.5 102t-98.5 250zM206 1107q0 -106 69 -177.5t171 -71.5q103 0 171 70.5t68 178.5q0 107 -68 178t-171 71t-171.5 -71.5 t-68.5 -177.5z" />
<glyph unicode="&#xab;" horiz-adv-x="1181" d="M86 534v25l350 413h165l-357 -425l357 -425h-165zM555 534v25l350 413h166l-358 -425l358 -425h-166z" />
<glyph unicode="&#xac;" horiz-adv-x="1193" d="M117 672v131h916v-549h-138v418h-778z" />
<glyph unicode="&#xad;" horiz-adv-x="935" d="M145 504v135h646v-135h-646z" />
<glyph unicode="&#xae;" horiz-adv-x="958" d="M100 1076q0 158 111 268t269 110t268.5 -110t110.5 -268t-110.5 -269.5t-268.5 -111.5t-269 112t-111 269zM162 1076q0 -133 92.5 -225.5t225.5 -92.5t225 92.5t92 225.5q0 131 -93 223t-224 92q-133 0 -225.5 -92t-92.5 -223zM352 881v398h159q55 0 91.5 -36t36.5 -90 q0 -42 -23 -72.5t-61 -41.5l93 -158h-66l-89 152h-77v-152h-64zM416 1090h91q32 0 51.5 17.5t19.5 46.5t-19.5 47.5t-51.5 18.5h-91v-130z" />
<glyph unicode="&#xaf;" horiz-adv-x="1038" d="M199 1346v112h641v-112h-641z" />
<glyph unicode="&#xb0;" horiz-adv-x="768" d="M85 1424q0 123 87 209.5t211 86.5t213 -87t89 -209t-88.5 -209t-213.5 -87t-211.5 86t-86.5 210zM181 1424q0 -86 58.5 -144.5t144.5 -58.5q85 0 145 59t60 144q0 84 -60 143t-145 59q-86 0 -144.5 -59t-58.5 -143z" />
<glyph unicode="&#xb1;" horiz-adv-x="1245" d="M132 51v130h983v-130h-983zM132 788v129h423v392h137v-392h422v-129h-422v-393h-137v393h-423z" />
<glyph unicode="&#xb4;" horiz-adv-x="845" d="M205 1238l145 311h149l-182 -311h-112z" />
<glyph unicode="&#xb6;" horiz-adv-x="1228" d="M65 1025q0 179 119 294t310 115h657v-130h-191v-1428h-126v1428h-274v-1428h-126v747q-166 15 -267.5 125t-101.5 277z" />
<glyph unicode="&#xb7;" horiz-adv-x="460" d="M147 559v189h167v-189h-167z" />
<glyph unicode="&#xb8;" horiz-adv-x="794" d="M209 -392h129q60 0 98 31t38 80t-38 79t-99 30h-45l-15 16l53 201l91 1l-40 -143q88 -8 143 -60t55 -129q0 -84 -62.5 -137t-162.5 -53h-145v84z" />
<glyph unicode="&#xba;" horiz-adv-x="905" d="M96 1106q0 150 102.5 250t255.5 100t254.5 -99.5t101.5 -250.5q0 -150 -101.5 -250t-254.5 -100t-255.5 100t-102.5 250zM208 1106q0 -107 69.5 -176.5t176.5 -69.5t176.5 69.5t69.5 176.5t-69.5 176.5t-176.5 69.5t-176.5 -69.5t-69.5 -176.5z" />
<glyph unicode="&#xbb;" horiz-adv-x="1181" d="M111 122l357 425l-357 425h165l350 -413v-25l-350 -412h-165zM580 122l358 425l-358 425h166l350 -413v-25l-350 -412h-166z" />
<glyph unicode="&#xbc;" horiz-adv-x="1339" d="M47 1334v100h248v-768h-113v668h-135zM103 -61l828 1556h114l-828 -1556h-114zM713 158v25l266 584h113l-235 -510h243l19 224h87v-224h79v-99h-79v-158h-107v158h-386z" />
<glyph unicode="&#xbd;" horiz-adv-x="1378" d="M47 1334v100h248v-768h-113v668h-135zM103 -61l828 1556h114l-828 -1556h-114zM792 0v29q175 190 252.5 283.5t103.5 143t26 99.5q0 56 -35 90.5t-91 34.5q-58 0 -94.5 -35.5t-36.5 -91.5v-18h-110v18q0 103 66 166t174 63q106 0 173 -63t67 -164q0 -81 -55 -168.5 t-227 -278.5h305v-108h-518z" />
<glyph unicode="&#xbe;" horiz-adv-x="1581" d="M69 893h109q5 -61 45.5 -99t101.5 -38q66 0 108.5 42.5t42.5 109.5q0 65 -46 107.5t-116 42.5h-99v23l178 252h-301v101h466v-26l-190 -260q98 -13 158 -80t60 -164q0 -110 -74.5 -181.5t-186.5 -71.5q-108 0 -179.5 67.5t-76.5 174.5zM345 -61l828 1556h114l-828 -1556 h-114zM955 158v25l266 584h113l-235 -510h243l19 224h87v-224h79v-99h-79v-158h-107v158h-386z" />
<glyph unicode="&#xbf;" horiz-adv-x="1015" d="M80 7q0 61 13.5 114t31 88.5t51 74t56 59t62.5 53.5q37 32 54 47t45.5 46t41 55.5t23.5 61t11 76.5v45h139v-45q0 -55 -13 -104t-29 -81t-49 -69.5t-53 -55.5t-60 -52q-37 -30 -57 -48t-49 -49.5t-44 -59.5t-26 -69t-11 -87q0 -130 83.5 -208t218.5 -78q127 0 214 72.5 t96 193.5h133q-6 -122 -68.5 -213.5t-160 -137.5t-214.5 -46q-190 0 -314.5 113.5t-124.5 303.5zM454 917v189h168v-189h-168z" />
<glyph unicode="&#xc0;" d="M40 0l594 1434h132l610 -1434h-156l-154 366h-721l-152 -366h-153zM399 498h612l-309 737zM461 1888h149l158 -291h-112z" />
<glyph unicode="&#xc1;" d="M40 0l594 1434h132l610 -1434h-156l-154 366h-721l-152 -366h-153zM399 498h612l-309 737zM627 1597l159 291h149l-196 -291h-112z" />
<glyph unicode="&#xc2;" d="M40 0l594 1434h132l610 -1434h-156l-154 366h-721l-152 -366h-153zM378 1597l245 291h159l245 -291h-125l-200 210l-198 -210h-126zM399 498h612l-309 737z" />
<glyph unicode="&#xc3;" d="M40 0l594 1434h132l610 -1434h-156l-154 366h-721l-152 -366h-153zM343 1617v27q0 110 51.5 175t140.5 65q57 0 96 -23.5t87 -73.5q38 -41 67.5 -60.5t66.5 -19.5q47 0 74.5 38.5t27.5 106.5v18h90v-21q0 -110 -52 -176t-139 -66q-61 0 -105 25.5t-92 76.5 q-37 39 -63.5 57t-56.5 18q-46 0 -74.5 -39.5t-28.5 -105.5v-22h-90zM399 498h612l-309 737z" />
<glyph unicode="&#xc4;" d="M40 0l594 1434h132l610 -1434h-156l-154 366h-721l-152 -366h-153zM399 498h612l-309 737zM401 1634v172h168v-172h-168zM837 1634v172h167v-172h-167z" />
<glyph unicode="&#xc5;" d="M40 0l594 1434h132l610 -1434h-156l-154 366h-721l-152 -366h-153zM399 498h612l-309 737zM464 1788q0 100 66.5 162t172.5 62q105 0 171.5 -62t66.5 -162q0 -99 -66.5 -163t-171.5 -64t-172 64t-67 163zM558 1788q0 -62 40.5 -101t104.5 -39t104 39t40 101q0 63 -40 101 t-104 38q-65 0 -105 -38t-40 -101z" />
<glyph unicode="&#xc6;" horiz-adv-x="1812" d="M-27 0l867 1434h851v-137h-656v-493h602v-134h-602v-532h679v-138h-823v335h-546l-201 -335h-171zM425 467h466v776z" />
<glyph unicode="&#xc7;" horiz-adv-x="1591" d="M103 716q0 212 94 381t261.5 264t377.5 95q244 0 426.5 -132.5t247.5 -357.5h-147q-62 164 -201.5 256.5t-325.5 92.5q-256 0 -421.5 -168.5t-165.5 -430.5t165.5 -429.5t421.5 -167.5q192 0 333 98.5t202 272.5h147q-63 -229 -237.5 -365.5t-413.5 -145.5l-21 -77 q86 -10 139.5 -61t53.5 -125q0 -84 -68 -138t-172 -54h-135v88h133q57 0 93.5 29.5t36.5 75.5q0 45 -37 75t-95 30h-46l-16 22l35 137q-194 15 -345 112.5t-235.5 260t-84.5 362.5z" />
<glyph unicode="&#xc8;" horiz-adv-x="1124" d="M204 0v1434h798v-137h-655v-489h602v-134h-602v-536h678v-138h-821zM356 1888h149l158 -291h-112z" />
<glyph unicode="&#xc9;" horiz-adv-x="1124" d="M204 0v1434h798v-137h-655v-489h602v-134h-602v-536h678v-138h-821zM522 1597l159 291h149l-196 -291h-112z" />
<glyph unicode="&#xca;" horiz-adv-x="1124" d="M204 0v1434h798v-137h-655v-489h602v-134h-602v-536h678v-138h-821zM274 1597l244 291h159l245 -291h-125l-200 210l-198 -210h-125z" />
<glyph unicode="&#xcb;" horiz-adv-x="1124" d="M204 0v1434h798v-137h-655v-489h602v-134h-602v-536h678v-138h-821zM296 1634v172h168v-172h-168zM732 1634v172h167v-172h-167z" />
<glyph unicode="&#xcc;" horiz-adv-x="550" d="M69 1888h146l106 -291h-113zM204 0v1434h143v-1434h-143z" />
<glyph unicode="&#xcd;" horiz-adv-x="550" d="M199 1598l107 290h144l-142 -290h-109zM204 0v1434h143v-1434h-143z" />
<glyph unicode="&#xce;" horiz-adv-x="550" d="M-9 1597l212 291h144l212 -291h-119l-166 208l-165 -208h-118zM204 0v1434h143v-1434h-143z" />
<glyph unicode="&#xcf;" horiz-adv-x="550" d="M55 1634v172h153v-172h-153zM204 0v1434h143v-1434h-143zM343 1634v172h154v-172h-154z" />
<glyph unicode="&#xd0;" horiz-adv-x="1533" d="M34 657v121h208v656h460q208 0 374.5 -92t260 -256t93.5 -369t-93.5 -369t-260 -256t-374.5 -92h-460v657h-208zM386 135h312q255 0 420 164.5t165 417.5q0 166 -74.5 299t-208 208t-302.5 75h-312v-521h447v-121h-447v-522z" />
<glyph unicode="&#xd1;" horiz-adv-x="1531" d="M204 0v1434h130l853 -1172v1172h141v-1434h-121l-863 1182v-1182h-140zM424 1617v27q0 110 51 175t140 65q57 0 96 -23.5t87 -73.5q38 -41 67.5 -60.5t66.5 -19.5q47 0 74.5 38.5t27.5 106.5v18h91v-21q0 -110 -52 -176t-140 -66q-61 0 -105 25.5t-92 76.5 q-37 40 -63 57.5t-56 17.5q-46 0 -75 -39.5t-29 -105.5v-22h-89z" />
<glyph unicode="&#xd2;" horiz-adv-x="1699" d="M103 716q0 157 56.5 294t154.5 235.5t237 155t299 56.5q213 0 384 -96.5t266.5 -266t95.5 -378.5t-95.5 -378t-266.5 -265t-384 -96q-160 0 -299 56.5t-237 154.5t-154.5 235t-56.5 293zM249 716q0 -168 77.5 -305t215 -215.5t308.5 -78.5q259 0 429.5 171t170.5 428 q0 169 -77 306.5t-214.5 215.5t-308.5 78t-308.5 -78.5t-215 -215.5t-77.5 -306zM607 1888h149l158 -291h-112z" />
<glyph unicode="&#xd3;" horiz-adv-x="1699" d="M103 716q0 157 56.5 294t154.5 235.5t237 155t299 56.5q213 0 384 -96.5t266.5 -266t95.5 -378.5t-95.5 -378t-266.5 -265t-384 -96q-160 0 -299 56.5t-237 154.5t-154.5 235t-56.5 293zM249 716q0 -168 77.5 -305t215 -215.5t308.5 -78.5q259 0 429.5 171t170.5 428 q0 169 -77 306.5t-214.5 215.5t-308.5 78t-308.5 -78.5t-215 -215.5t-77.5 -306zM774 1597l158 291h149l-196 -291h-111z" />
<glyph unicode="&#xd4;" horiz-adv-x="1699" d="M103 716q0 157 56.5 294t154.5 235.5t237 155t299 56.5q213 0 384 -96.5t266.5 -266t95.5 -378.5t-95.5 -378t-266.5 -265t-384 -96q-160 0 -299 56.5t-237 154.5t-154.5 235t-56.5 293zM249 716q0 -168 77.5 -305t215 -215.5t308.5 -78.5q259 0 429.5 171t170.5 428 q0 169 -77 306.5t-214.5 215.5t-308.5 78t-308.5 -78.5t-215 -215.5t-77.5 -306zM525 1597l244 291h160l244 -291h-125l-200 210l-198 -210h-125z" />
<glyph unicode="&#xd5;" horiz-adv-x="1699" d="M103 716q0 157 56.5 294t154.5 235.5t237 155t299 56.5q213 0 384 -96.5t266.5 -266t95.5 -378.5t-95.5 -378t-266.5 -265t-384 -96q-160 0 -299 56.5t-237 154.5t-154.5 235t-56.5 293zM249 716q0 -168 77.5 -305t215 -215.5t308.5 -78.5q259 0 429.5 171t170.5 428 q0 169 -77 306.5t-214.5 215.5t-308.5 78t-308.5 -78.5t-215 -215.5t-77.5 -306zM490 1617v27q0 110 51 175t140 65q57 0 96 -23.5t87 -73.5q38 -41 67.5 -60.5t66.5 -19.5q47 0 74.5 38.5t27.5 106.5v18h91v-21q0 -110 -52 -176t-140 -66q-61 0 -105 25.5t-92 76.5 q-37 40 -63 57.5t-56 17.5q-46 0 -75 -39.5t-29 -105.5v-22h-89z" />
<glyph unicode="&#xd6;" horiz-adv-x="1699" d="M103 716q0 157 56.5 294t154.5 235.5t237 155t299 56.5q213 0 384 -96.5t266.5 -266t95.5 -378.5t-95.5 -378t-266.5 -265t-384 -96q-160 0 -299 56.5t-237 154.5t-154.5 235t-56.5 293zM249 716q0 -168 77.5 -305t215 -215.5t308.5 -78.5q259 0 429.5 171t170.5 428 q0 169 -77 306.5t-214.5 215.5t-308.5 78t-308.5 -78.5t-215 -215.5t-77.5 -306zM547 1634v172h168v-172h-168zM983 1634v172h168v-172h-168z" />
<glyph unicode="&#xd7;" horiz-adv-x="1042" d="M112 381l317 321l-317 321l96 91l313 -319l314 319l94 -91l-316 -321l316 -321l-93 -91l-315 319l-315 -319z" />
<glyph unicode="&#xd8;" horiz-adv-x="1708" d="M102 715q0 155 57 292t156 234.5t237.5 154t295.5 56.5q184 0 337 -75l111 184h156l-150 -247q142 -99 223 -255.5t81 -344.5q0 -155 -56.5 -290.5t-155 -232.5t-236.5 -152.5t-295 -55.5q-170 0 -321 67l-106 -177h-156l144 235q-151 97 -236.5 256t-85.5 351zM248 717 q0 -153 67 -281t184 -208l616 1027q-125 57 -267 57q-168 0 -306 -78t-216 -214.5t-78 -302.5zM615 171q118 -48 245 -48q126 0 237.5 45t190.5 123.5t125 188t46 234.5q0 149 -61.5 273t-170.5 206z" />
<glyph unicode="&#xd9;" horiz-adv-x="1480" d="M186 532v902h145v-892q0 -188 114.5 -305.5t295.5 -117.5q179 0 294 118t115 305v892h145v-902q0 -160 -72 -286.5t-198.5 -197t-283.5 -70.5q-240 0 -397.5 156t-157.5 398zM498 1888h149l158 -291h-111z" />
<glyph unicode="&#xda;" horiz-adv-x="1480" d="M186 532v902h145v-892q0 -188 114.5 -305.5t295.5 -117.5q179 0 294 118t115 305v892h145v-902q0 -160 -72 -286.5t-198.5 -197t-283.5 -70.5q-240 0 -397.5 156t-157.5 398zM665 1597l158 291h149l-195 -291h-112z" />
<glyph unicode="&#xdb;" horiz-adv-x="1480" d="M186 532v902h145v-892q0 -188 114.5 -305.5t295.5 -117.5q179 0 294 118t115 305v892h145v-902q0 -160 -72 -286.5t-198.5 -197t-283.5 -70.5q-240 0 -397.5 156t-157.5 398zM416 1597l244 291h160l245 -291h-126l-200 210l-198 -210h-125z" />
<glyph unicode="&#xdc;" horiz-adv-x="1480" d="M186 532v902h145v-892q0 -188 114.5 -305.5t295.5 -117.5q179 0 294 118t115 305v892h145v-902q0 -160 -72 -286.5t-198.5 -197t-283.5 -70.5q-240 0 -397.5 156t-157.5 398zM439 1634v172h167v-172h-167zM874 1634v172h168v-172h-168z" />
<glyph unicode="&#xdd;" horiz-adv-x="1335" d="M61 1434h158l449 -728l452 728h158l-537 -864v-570h-148v570zM594 1597l158 291h149l-195 -291h-112z" />
<glyph unicode="&#xde;" horiz-adv-x="1267" d="M204 0v1434h143v-265h361q205 0 336 -127.5t131 -324.5q0 -199 -131 -325.5t-336 -126.5h-361v-265h-143zM347 401h353q143 0 236 89t93 227t-93 226.5t-236 88.5h-353v-631z" />
<glyph unicode="&#xdf;" horiz-adv-x="1243" d="M184 0v1017q0 241 124 375t347 134q187 0 310 -114t123 -287q0 -108 -47.5 -199t-125.5 -136q108 -40 170 -137.5t62 -230.5q0 -189 -135.5 -305.5t-355.5 -116.5h-140v135h140q160 0 257.5 82.5t97.5 216.5q0 124 -85 204t-219 80h-172v130h156q114 0 191.5 77.5 t77.5 192.5q0 121 -86 198t-219 77q-158 0 -245 -99t-87 -277v-1017h-139z" />
<glyph unicode="&#xe0;" horiz-adv-x="1433" d="M93 553q0 247 163 411.5t407 164.5q143 0 261.5 -59t195.5 -164l18 200h112v-1106h-116l-16 198q-77 -104 -194.5 -162.5t-260.5 -58.5q-120 0 -226 44t-181.5 120.5t-119 183.5t-43.5 228zM235 553q0 -189 125 -315t313 -126q189 0 312 125t123 316t-123 316t-312 125 q-188 0 -313 -126t-125 -315zM466 1549h149l145 -311h-111z" />
<glyph unicode="&#xe1;" horiz-adv-x="1433" d="M93 553q0 247 163 411.5t407 164.5q143 0 261.5 -59t195.5 -164l18 200h112v-1106h-116l-16 198q-77 -104 -194.5 -162.5t-260.5 -58.5q-120 0 -226 44t-181.5 120.5t-119 183.5t-43.5 228zM235 553q0 -189 125 -315t313 -126q189 0 312 125t123 316t-123 316t-312 125 q-188 0 -313 -126t-125 -315zM599 1238l145 311h149l-182 -311h-112z" />
<glyph unicode="&#xe2;" horiz-adv-x="1433" d="M93 553q0 247 163 411.5t407 164.5q143 0 261.5 -59t195.5 -164l18 200h112v-1106h-116l-16 198q-77 -104 -194.5 -162.5t-260.5 -58.5q-120 0 -226 44t-181.5 120.5t-119 183.5t-43.5 228zM235 553q0 -189 125 -315t313 -126q189 0 312 125t123 316t-123 316t-312 125 q-188 0 -313 -126t-125 -315zM365 1238l244 311h160l246 -311h-125l-201 225l-199 -225h-125z" />
<glyph unicode="&#xe3;" horiz-adv-x="1433" d="M93 553q0 247 163 411.5t407 164.5q143 0 261.5 -59t195.5 -164l18 200h112v-1106h-116l-16 198q-77 -104 -194.5 -162.5t-260.5 -58.5q-120 0 -226 44t-181.5 120.5t-119 183.5t-43.5 228zM235 553q0 -189 125 -315t313 -126q189 0 312 125t123 316t-123 316t-312 125 q-188 0 -313 -126t-125 -315zM336 1266v26q0 109 50.5 173t137.5 64q58 0 98.5 -24t84.5 -74q36 -40 65 -58.5t65 -18.5q46 0 73.5 39t27.5 104v18h89v-21q0 -108 -51 -173t-138 -65q-59 0 -101.5 25t-89.5 75q-38 40 -64 57t-57 17q-45 0 -74 -39t-29 -102v-23h-87z" />
<glyph unicode="&#xe4;" horiz-adv-x="1433" d="M93 553q0 247 163 411.5t407 164.5q143 0 261.5 -59t195.5 -164l18 200h112v-1106h-116l-16 198q-77 -104 -194.5 -162.5t-260.5 -58.5q-120 0 -226 44t-181.5 120.5t-119 183.5t-43.5 228zM235 553q0 -189 125 -315t313 -126q189 0 312 125t123 316t-123 316t-312 125 q-188 0 -313 -126t-125 -315zM412 1315v172h168v-172h-168zM796 1315v172h168v-172h-168z" />
<glyph unicode="&#xe5;" horiz-adv-x="1433" d="M93 553q0 247 163 411.5t407 164.5q143 0 261.5 -59t195.5 -164l18 200h112v-1106h-116l-16 198q-77 -104 -194.5 -162.5t-260.5 -58.5q-120 0 -226 44t-181.5 120.5t-119 183.5t-43.5 228zM235 553q0 -189 125 -315t313 -126q189 0 312 125t123 316t-123 316t-312 125 q-188 0 -313 -126t-125 -315zM465 1423q0 94 62.5 153.5t161.5 59.5t161.5 -59.5t62.5 -153.5q0 -93 -62.5 -152.5t-161.5 -59.5t-161.5 59.5t-62.5 152.5zM552 1423q0 -58 38.5 -94.5t98.5 -36.5t98 36.5t38 94.5q0 60 -38 96.5t-98 36.5t-98.5 -36.5t-38.5 -96.5z" />
<glyph unicode="&#xe6;" horiz-adv-x="2295" d="M93 553q0 161 74.5 293t206 207t294.5 75q133 0 245.5 -54t188.5 -150l8 185h103l8 -203q75 104 187.5 162.5t246.5 58.5q157 0 284 -75t198 -205.5t71 -291.5q0 -1 -3 -55h-974q17 -172 133.5 -279t290.5 -107q123 0 221 56.5t154 159.5h147q-73 -168 -209 -260.5 t-313 -92.5q-134 0 -247 59t-188 163l-8 -202h-104l-7 184q-76 -96 -188 -149.5t-245 -53.5q-162 0 -293.5 75t-206.5 207t-75 293zM235 553q0 -190 123 -315t310 -125t310 125.5t123 314.5q0 192 -122 316t-311 124q-187 0 -310 -125t-123 -315zM1234 628h837 q-21 165 -136 267t-280 102q-167 0 -282.5 -102t-138.5 -267z" />
<glyph unicode="&#xe7;" horiz-adv-x="1267" d="M93 553q0 122 44 229t119.5 183t182 120t226.5 44q192 0 334.5 -103.5t195.5 -277.5h-138q-52 115 -156 180.5t-236 65.5q-184 0 -307 -126.5t-123 -314.5t123.5 -314.5t306.5 -126.5q131 0 234.5 66t157.5 185h141q-53 -170 -188.5 -274t-315.5 -112l-21 -74 q88 -8 143 -60t55 -129q0 -84 -62.5 -137t-162.5 -53h-145v84h129q60 0 98 31t38 80t-38 79t-99 30h-45l-15 16l35 136q-222 22 -366.5 182.5t-144.5 390.5z" />
<glyph unicode="&#xe8;" horiz-adv-x="1296" d="M93 554q0 162 73 293.5t202 206.5t286 75q161 0 288.5 -77t196 -208.5t68.5 -291.5q0 -8 -0.5 -16.5t-1.5 -18.5t-1 -16h-972q17 -173 133.5 -280.5t288.5 -107.5q124 0 221 57t154 160h147q-73 -169 -209 -261t-313 -92q-118 0 -222 44t-178.5 120.5t-117.5 184 t-43 228.5zM235 630h834q-24 167 -138 267t-277 100q-166 0 -281 -101t-138 -266zM427 1549h149l145 -311h-112z" />
<glyph unicode="&#xe9;" horiz-adv-x="1296" d="M93 554q0 162 73 293.5t202 206.5t286 75q161 0 288.5 -77t196 -208.5t68.5 -291.5q0 -8 -0.5 -16.5t-1.5 -18.5t-1 -16h-972q17 -173 133.5 -280.5t288.5 -107.5q124 0 221 57t154 160h147q-73 -169 -209 -261t-313 -92q-118 0 -222 44t-178.5 120.5t-117.5 184 t-43 228.5zM235 630h834q-24 167 -138 267t-277 100q-166 0 -281 -101t-138 -266zM560 1238l145 311h149l-182 -311h-112z" />
<glyph unicode="&#xea;" horiz-adv-x="1296" d="M93 554q0 162 73 293.5t202 206.5t286 75q161 0 288.5 -77t196 -208.5t68.5 -291.5q0 -8 -0.5 -16.5t-1.5 -18.5t-1 -16h-972q17 -173 133.5 -280.5t288.5 -107.5q124 0 221 57t154 160h147q-73 -169 -209 -261t-313 -92q-118 0 -222 44t-178.5 120.5t-117.5 184 t-43 228.5zM235 630h834q-24 167 -138 267t-277 100q-166 0 -281 -101t-138 -266zM326 1238l244 311h160l246 -311h-125l-201 225l-199 -225h-125z" />
<glyph unicode="&#xeb;" horiz-adv-x="1296" d="M93 554q0 162 73 293.5t202 206.5t286 75q161 0 288.5 -77t196 -208.5t68.5 -291.5q0 -8 -0.5 -16.5t-1.5 -18.5t-1 -16h-972q17 -173 133.5 -280.5t288.5 -107.5q124 0 221 57t154 160h147q-73 -169 -209 -261t-313 -92q-118 0 -222 44t-178.5 120.5t-117.5 184 t-43 228.5zM235 630h834q-24 167 -138 267t-277 100q-166 0 -281 -101t-138 -266zM373 1315v172h168v-172h-168zM757 1315v172h168v-172h-168z" />
<glyph unicode="&#xec;" horiz-adv-x="505" d="M57 1549h146l106 -311h-113zM184 0v1106h139v-1106h-139z" />
<glyph unicode="&#xed;" horiz-adv-x="505" d="M184 0v1106h139v-1106h-139zM190 1238l106 311h146l-139 -311h-113z" />
<glyph unicode="&#xee;" horiz-adv-x="505" d="M-34 1238l216 311h144l215 -311h-120l-168 224l-168 -224h-119zM184 0v1106h139v-1106h-139z" />
<glyph unicode="&#xef;" horiz-adv-x="505" d="M37 1314v172h149v-172h-149zM184 0v1106h139v-1106h-139zM319 1313v172h150v-172h-150z" />
<glyph unicode="&#xf0;" horiz-adv-x="1320" d="M95 518q0 152 71 274.5t194 190t273 67.5q119 0 226.5 -46.5t181.5 -131.5q-34 168 -125.5 294.5t-229.5 203.5l-248 -231l-63 62l226 210q-158 64 -350 64v121q254 0 449 -93l149 138l61 -63l-129 -119q204 -126 313 -355.5t110 -538.5q0 -260 -154.5 -423.5 t-401.5 -163.5q-242 0 -397.5 152t-155.5 388zM230 519q0 -176 119 -294t299 -118q178 0 297.5 118t119.5 294q-1 178 -121 295t-296 117q-180 0 -299 -118t-119 -294z" />
<glyph unicode="&#xf1;" horiz-adv-x="1312" d="M184 0v1106h100l28 -195q62 102 169 160t238 58q196 0 312.5 -130t116.5 -339v-660h-139v628q0 178 -84.5 275.5t-239.5 97.5q-151 0 -256.5 -112.5t-105.5 -272.5v-616h-139zM317 1266v26q0 108 51 172.5t138 64.5q58 0 98.5 -24t84.5 -74q36 -40 64.5 -58.5t64.5 -18.5 q46 0 73.5 39t27.5 104v18h89v-21q0 -108 -51 -173t-138 -65q-59 0 -101.5 25t-89.5 75q-38 40 -64 57t-57 17q-45 0 -73.5 -39t-28.5 -102v-23h-88z" />
<glyph unicode="&#xf2;" horiz-adv-x="1351" d="M93 553q0 249 166.5 412.5t416.5 163.5q164 0 297.5 -74.5t209 -206.5t75.5 -295t-75.5 -295t-209 -206.5t-297.5 -74.5t-297.5 74.5t-209.5 206.5t-76 295zM235 553q0 -191 125 -316t316 -125t315.5 125t124.5 316t-124.5 316t-315.5 125t-316 -125t-125 -316zM453 1549 h149l145 -311h-112z" />
<glyph unicode="&#xf3;" horiz-adv-x="1351" d="M93 553q0 249 166.5 412.5t416.5 163.5q164 0 297.5 -74.5t209 -206.5t75.5 -295t-75.5 -295t-209 -206.5t-297.5 -74.5t-297.5 74.5t-209.5 206.5t-76 295zM235 553q0 -191 125 -316t316 -125t315.5 125t124.5 316t-124.5 316t-315.5 125t-316 -125t-125 -316zM586 1238 l145 311h149l-182 -311h-112z" />
<glyph unicode="&#xf4;" horiz-adv-x="1351" d="M93 553q0 249 166.5 412.5t416.5 163.5q164 0 297.5 -74.5t209 -206.5t75.5 -295t-75.5 -295t-209 -206.5t-297.5 -74.5t-297.5 74.5t-209.5 206.5t-76 295zM235 553q0 -191 125 -316t316 -125t315.5 125t124.5 316t-124.5 316t-315.5 125t-316 -125t-125 -316zM352 1238 l244 311h160l246 -311h-125l-201 225l-199 -225h-125z" />
<glyph unicode="&#xf5;" horiz-adv-x="1351" d="M93 553q0 249 166.5 412.5t416.5 163.5q164 0 297.5 -74.5t209 -206.5t75.5 -295t-75.5 -295t-209 -206.5t-297.5 -74.5t-297.5 74.5t-209.5 206.5t-76 295zM235 553q0 -191 125 -316t316 -125t315.5 125t124.5 316t-124.5 316t-315.5 125t-316 -125t-125 -316zM323 1266 v26q0 109 50.5 173t137.5 64q58 0 98.5 -24t84.5 -74q36 -40 64.5 -58.5t64.5 -18.5q46 0 73.5 39t27.5 104v18h90v-21q0 -108 -51 -173t-138 -65q-59 0 -101.5 25t-89.5 75q-38 40 -64 57t-57 17q-45 0 -74 -39t-29 -102v-23h-87z" />
<glyph unicode="&#xf6;" horiz-adv-x="1351" d="M93 553q0 249 166.5 412.5t416.5 163.5q164 0 297.5 -74.5t209 -206.5t75.5 -295t-75.5 -295t-209 -206.5t-297.5 -74.5t-297.5 74.5t-209.5 206.5t-76 295zM235 553q0 -191 125 -316t316 -125t315.5 125t124.5 316t-124.5 316t-315.5 125t-316 -125t-125 -316zM399 1315 v172h168v-172h-168zM783 1315v172h168v-172h-168z" />
<glyph unicode="&#xf7;" horiz-adv-x="1236" d="M127 638v129h983v-129h-983zM533 346q0 36 24.5 60t60.5 24t61 -24t25 -60t-25 -61t-61 -25t-60.5 25t-24.5 61zM533 1058q0 35 24.5 60t60.5 25t61 -25t25 -60q0 -36 -25 -60.5t-61 -24.5t-60.5 24t-24.5 61z" />
<glyph unicode="&#xf8;" horiz-adv-x="1349" d="M91 554q0 244 164.5 407.5t409.5 163.5q119 0 223 -43l80 149h129l-104 -194q122 -76 192.5 -203t70.5 -281q0 -161 -74 -291.5t-205 -204.5t-292 -74q-130 0 -243 51l-88 -159h-129l114 205q-116 76 -182 200t-66 274zM227 554q0 -115 46 -209.5t130 -153.5l425 776 q-82 30 -163 30q-191 0 -314.5 -125.5t-123.5 -317.5zM503 149q87 -38 182 -38q188 0 312 125.5t124 316.5q0 118 -51 214t-141 155z" />
<glyph unicode="&#xf9;" horiz-adv-x="1292" d="M164 466v640h139v-619q0 -174 92.5 -274.5t251.5 -100.5t251 100.5t92 274.5v619h139v-640q0 -223 -130.5 -356t-351.5 -133q-220 0 -351.5 133.5t-131.5 355.5zM424 1549h149l145 -311h-112z" />
<glyph unicode="&#xfa;" horiz-adv-x="1292" d="M164 466v640h139v-619q0 -174 92.5 -274.5t251.5 -100.5t251 100.5t92 274.5v619h139v-640q0 -223 -130.5 -356t-351.5 -133q-220 0 -351.5 133.5t-131.5 355.5zM557 1238l145 311h149l-182 -311h-112z" />
<glyph unicode="&#xfb;" horiz-adv-x="1292" d="M164 466v640h139v-619q0 -174 92.5 -274.5t251.5 -100.5t251 100.5t92 274.5v619h139v-640q0 -223 -130.5 -356t-351.5 -133q-220 0 -351.5 133.5t-131.5 355.5zM323 1238l244 311h160l246 -311h-125l-201 225l-199 -225h-125z" />
<glyph unicode="&#xfc;" horiz-adv-x="1292" d="M164 466v640h139v-619q0 -174 92.5 -274.5t251.5 -100.5t251 100.5t92 274.5v619h139v-640q0 -223 -130.5 -356t-351.5 -133q-220 0 -351.5 133.5t-131.5 355.5zM370 1315v172h168v-172h-168zM754 1315v172h168v-172h-168z" />
<glyph unicode="&#xfd;" horiz-adv-x="1191" d="M37 1106h152l421 -881l396 881h149l-539 -1168q-86 -188 -176.5 -259.5t-239.5 -71.5h-98v126h87q112 0 172 46.5t128 189.5l48 102zM513 1238l145 311h149l-182 -311h-112z" />
<glyph unicode="&#xfe;" horiz-adv-x="1425" d="M184 -393v1892h139v-577q78 97 192.5 151.5t249.5 54.5q162 0 291.5 -75t202 -206.5t72.5 -293.5t-72.5 -294t-202 -207t-291.5 -75q-135 0 -249.5 54.5t-192.5 151.5v-576h-139zM317 553q0 -189 125 -315t313 -126q189 0 312.5 125t123.5 316q0 190 -123.5 315 t-312.5 125q-188 0 -313 -126t-125 -314z" />
<glyph unicode="&#xff;" horiz-adv-x="1191" d="M37 1106h152l421 -881l396 881h149l-539 -1168q-86 -188 -176.5 -259.5t-239.5 -71.5h-98v126h87q112 0 172 46.5t128 189.5l48 102zM326 1315v172h168v-172h-168zM710 1315v172h168v-172h-168z" />
<glyph unicode="&#x152;" horiz-adv-x="1976" d="M104 716q0 207 90.5 377t248 267t349.5 97q119 0 228 -25v2h835v-134h-690v-504h636v-130h-636v-531h712v-135h-857v2q-110 -25 -228 -25q-142 0 -269 56.5t-219 153.5t-146 235t-54 294zM250 716q0 -174 73 -310.5t200 -211.5t286 -75q113 0 211 17v1159 q-119 21 -215 21q-154 0 -281.5 -78.5t-200.5 -216t-73 -305.5z" />
<glyph unicode="&#x153;" horiz-adv-x="2314" d="M93 553q0 164 76 296t208.5 206t296.5 74q167 0 301 -80t205 -218q70 137 200.5 217.5t291.5 80.5q157 0 284 -75t198 -206.5t71 -292.5q0 -8 -0.5 -17t-1.5 -20t-1 -17h-972q17 -172 133 -279.5t289 -107.5q123 0 220.5 56.5t153.5 159.5h147q-73 -169 -208.5 -261 t-312.5 -92q-161 0 -291.5 80.5t-200.5 218.5q-71 -138 -205 -218t-301 -80q-122 0 -230 44t-185 120t-121.5 183t-44.5 228zM235 553q0 -191 124.5 -316t314.5 -125q189 0 313.5 125t124.5 316t-124.5 316t-313.5 125q-190 0 -314.5 -125t-124.5 -316zM1252 629h835 q-22 167 -136 268.5t-279 101.5q-166 0 -281.5 -102t-138.5 -268z" />
<glyph unicode="&#x178;" horiz-adv-x="1335" d="M61 1434h158l449 -728l452 728h158l-537 -864v-570h-148v570zM368 1634v172h167v-172h-167zM803 1634v172h168v-172h-168z" />
<glyph unicode="&#x2c6;" horiz-adv-x="1228" d="M323 1238l244 311h160l246 -311h-126l-200 225l-199 -225h-125z" />
<glyph unicode="&#x2dc;" horiz-adv-x="1228" d="M262 1266v26q0 109 50.5 173t137.5 64q58 0 98.5 -24t84.5 -74q36 -40 65 -58.5t65 -18.5q46 0 73.5 39t27.5 104v18h89v-21q0 -108 -51 -173t-138 -65q-59 0 -101.5 25t-89.5 75q-38 40 -64 57t-57 17q-45 0 -74 -39t-29 -102v-23h-87z" />
<glyph unicode="&#x2000;" horiz-adv-x="1006" />
<glyph unicode="&#x2001;" horiz-adv-x="2012" />
<glyph unicode="&#x2002;" horiz-adv-x="1006" />
<glyph unicode="&#x2003;" horiz-adv-x="2012" />
<glyph unicode="&#x2004;" horiz-adv-x="670" />
<glyph unicode="&#x2005;" horiz-adv-x="503" />
<glyph unicode="&#x2006;" horiz-adv-x="335" />
<glyph unicode="&#x2007;" horiz-adv-x="335" />
<glyph unicode="&#x2008;" horiz-adv-x="251" />
<glyph unicode="&#x2009;" horiz-adv-x="402" />
<glyph unicode="&#x200a;" horiz-adv-x="111" />
<glyph unicode="&#x2010;" horiz-adv-x="935" d="M145 504v135h646v-135h-646z" />
<glyph unicode="&#x2011;" horiz-adv-x="935" d="M145 504v135h646v-135h-646z" />
<glyph unicode="&#x2012;" horiz-adv-x="935" d="M145 504v135h646v-135h-646z" />
<glyph unicode="&#x2013;" horiz-adv-x="1312" d="M145 504v135h1023v-135h-1023z" />
<glyph unicode="&#x2014;" horiz-adv-x="1835" d="M145 504v135h1544v-135h-1544z" />
<glyph unicode="&#x2018;" horiz-adv-x="438" d="M127 1101v173q0 111 43 175.5t130 94.5v-84q-51 -21 -72.5 -62t-21.5 -110h102v-187h-181z" />
<glyph unicode="&#x2019;" horiz-adv-x="425" d="M135 1281v187h181v-174q0 -111 -43 -175t-130 -94v83q51 21 72.5 62.5t21.5 110.5h-102z" />
<glyph unicode="&#x201a;" horiz-adv-x="462" d="M141 0v187h181v-174q0 -111 -43.5 -175t-130.5 -94v84q51 21 73 62t22 110h-102z" />
<glyph unicode="&#x201c;" horiz-adv-x="757" d="M127 1106v174q0 207 168 263l5 -77q-95 -42 -95 -174h103v-186h-181zM446 1106v174q0 207 168 263l5 -77q-95 -42 -95 -174h103v-186h-181z" />
<glyph unicode="&#x201d;" horiz-adv-x="745" d="M135 1280v187h181v-175q0 -207 -169 -263l-4 78q95 42 95 173h-103zM454 1280v187h181v-175q0 -207 -168 -263l-5 78q95 42 95 173h-103z" />
<glyph unicode="&#x201e;" horiz-adv-x="782" d="M141 0v187h181v-175q0 -207 -169 -263l-5 77q96 42 96 174h-103zM460 0v187h181v-175q0 -207 -168 -263l-5 77q95 42 95 174h-103z" />
<glyph unicode="&#x2022;" horiz-adv-x="669" d="M178 600q0 68 45 112.5t112 44.5q68 0 112.5 -44.5t44.5 -112.5q0 -67 -44.5 -112t-112.5 -45q-67 0 -112 45t-45 112z" />
<glyph unicode="&#x2026;" horiz-adv-x="1054" d="M139 0v189h168v-189h-168zM443 0v189h168v-189h-168zM748 0v189h167v-189h-167z" />
<glyph unicode="&#x202f;" horiz-adv-x="402" />
<glyph unicode="&#x2039;" horiz-adv-x="712" d="M86 534v25l350 413h165l-357 -425l357 -425h-165z" />
<glyph unicode="&#x203a;" horiz-adv-x="712" d="M111 122l357 425l-357 425h165l350 -413v-25l-350 -412h-165z" />
<glyph unicode="&#x205f;" horiz-adv-x="503" />
<glyph unicode="&#x20ac;" horiz-adv-x="1327" d="M70 456l28 117h156q-8 59 -8 114q0 66 6 107h-176l27 117h175q68 224 253 355.5t422 131.5q161 0 304 -59l-29 -118q-120 53 -261 53q-186 0 -333.5 -98t-211.5 -265h724l-29 -117h-726q-9 -51 -9 -107q0 -54 10 -114h669l-28 -117h-608q66 -164 212.5 -260t328.5 -96 q118 0 222 39v-125q-113 -39 -239 -39q-232 0 -415 131.5t-253 349.5h-211z" />
<glyph unicode="&#x2122;" horiz-adv-x="1318" d="M63 1369v65h431v-65h-176v-447h-70v447h-185zM526 922l87 512h60l184 -396l183 396h61l86 -512h-67l-68 399l-187 -399h-17l-186 398l-68 -398h-68z" />
<glyph unicode="&#x25fc;" horiz-adv-x="1105" d="M0 0v1106h1106v-1106h-1106z" />
</font>
</defs>
</svg>
