<svg xmlns="http://www.w3.org/2000/svg" width="259" height="196" viewBox="0 0 259 196"><g><g><g><path fill-opacity=".27" d="M148.837 42.46a8 8 0 0 1 8.12-.137l99.111 56.152a4 4 0 0 1 .085 6.912L107.946 194.21a6 6 0 0 1-6.024.084L2.984 138.71a4 4 0 0 1-.129-6.899z"/></g><g><path fill="#263144" d="M148.834 32.457a8 8 0 0 1 8.12-.138l89.727 50.836 11.377-1.503v9.767a4.004 4.004 0 0 1-1.908 3.964l-148.207 88.823a6 6 0 0 1-6.023.085L2.98 128.706a4 4 0 0 1-2.04-3.412v-.035-9.635l15.32-2.024z"/></g><g><path fill="#3c485e" d="M148.837 22.46a8 8 0 0 1 8.12-.137l99.111 56.152a4 4 0 0 1 .085 6.912L107.946 174.21a6 6 0 0 1-6.024.084L2.984 118.71a4 4 0 0 1-.129-6.899z"/></g><g><g><g><path fill="#3d5afe" d="M128.86 66.951l-17.59-10.155V19.43l17.59 9.156z"/></g><g><path fill="#334cd7" d="M128.86 66.951l17.59-10.156V19.43l-17.59 10.156z"/></g><g><path fill="#6f9af1" d="M128.83 29.588l-17.59-10.156L128.72 9.34l17.59 10.156z"/></g><g><path fill="#3d5afe" d="M134.67 10.39V69.992l17.55 10.155V19.546z"/></g><g><path fill="#334cd7" d="M152.232 20.546l-.072 59.601 17.606-10.155V10.39z"/></g><g><path fill="#3d5afe" d="M174.77 94.15l-17.59-10.155V46.63l17.59 9.156z"/></g><g><path fill="#334cd7" d="M174.68 94.151l17.59-10.155V46.63l-17.59 10.156z"/></g><g><path fill="#6f9af1" d="M198.31 84.918l-17.59-10.156L198.2 64.67l17.59 10.156z"/></g><g><path fill="#334cd7" d="M198.22 84.966v23.71l17.59-10.768V74.81z"/></g><g><path fill="#6f9af1" d="M134.67 10.392l17.59 10.156 17.48-10.092L152.15.3z"/></g><g><path fill="#6f9af1" d="M174.82 56.748l-17.59-10.156L174.71 36.5l17.59 10.156z"/></g><g><path fill="#3d5afe" d="M198.39 108.625v-23.71L180.84 74.76v23.71z"/></g></g><g><path fill-opacity=".1" d="M177.12 125.383L86.98 73.34l-3.705 2.139-56.205 32.45 90.141 52.043 49.541-28.603z"/></g><g><path fill="#cadcf7" d="M25 98.356l93.741 54.12 58.449-33.744L83.45 64.61z"/></g><g><path fill-opacity=".1" d="M144.33 128.814l.8-.462L59.407 78.86l-19.98 11.536c-.043.009-.087.016-.129.026L28.36 96.657l85.723 49.492.112.064 15.08-8.707 15.192-8.642z"/></g><g><path fill="#fff" d="M86.309 87.777L68.3 77.379l9.803-5.659 18.009 10.397z"/></g><g><path fill="#fff" d="M108.919 100.837L90.91 90.439l9.803-5.659 18.009 10.397z"/></g><g><path fill="#fff" d="M131.519 113.887L113.51 103.49l9.803-5.66 18.009 10.397z"/></g><g><path fill="#fff" d="M154.129 126.937L136.12 116.54l9.803-5.66 18.009 10.397z"/></g><g><path fill-opacity=".1" d="M83.252 64.52L72.47 70.745l93.741 54.121 10.782-6.225z"/></g><g><path fill="#ebf5ff" d="M114.413 140.953L28.69 91.461 59.626 73.6l85.723 49.492z"/></g><g><g><path fill="#fff" fill-opacity=".5" d="M39.518 85.164c5.456-1.21 11.888-.866 16.898.903 1.968.694 3.841 1.723 4.093 3.044.26 1.357-1.24 2.588-1.875 3.9-1.482 3.066 2.538 6.552 7.943 7.225 6.278.781 12.376-1.662 18.78-1.837 3.45-.095 6.86.478 10.09 1.195 3.84.852 7.997 2.249 8.713 4.585.979 3.194-4.948 5.617-6.489 8.726-1.668 3.366 3.137 7.286 9.202 7.506 4.493.163 9.46-1.328 13.22.114.855.328 1.54.781 2.297 1.18 2.882 1.522 6.808 2.252 10.69 2.428 3.883.175 7.77-.159 11.607-.527l-30.384 17.285L28.58 91.4z"/></g><g><path fill="#656f9b" d="M39.69 85.783c4.96-1.083 10.315-.944 15.196.466 1.2.347 2.406.757 3.485 1.397.74.438 1.734 1.133 1.481 2.123-.266 1.044-1.208 1.845-1.7 2.784-.401.765-.551 1.6-.402 2.453.303 1.734 1.738 3.08 3.165 3.973 2.04 1.273 4.437 1.853 6.816 2.007 5.5.356 10.818-1.473 16.26-1.875 2.88-.213 5.755.044 8.59.554 2.458.443 4.947.97 7.279 1.88 1.364.533 3.74 1.545 3.77 3.315.025 1.47-1.572 2.697-2.56 3.563-1.342 1.176-2.878 2.308-3.795 3.873-.835 1.426-.694 3.08.214 4.437 1.09 1.629 2.858 2.692 4.654 3.383 2.344.901 4.839 1.043 7.322.882 2.558-.165 5.127-.603 7.696-.43 1.278.088 2.5.385 3.635.988 1.07.568 2.101 1.15 3.24 1.577 5.147 1.93 10.916 1.874 16.319 1.49a179.13 179.13 0 0 0 4.334-.375c.813-.078.822-1.36 0-1.282-5.708.547-11.59 1.065-17.246-.179-1.204-.264-2.4-.605-3.54-1.075-1.145-.473-2.167-1.183-3.304-1.667-2.32-.988-4.935-.86-7.394-.652-4.594.39-9.921 1.119-13.673-2.26-1.047-.944-1.968-2.368-1.352-3.805.679-1.585 2.338-2.732 3.598-3.826 1.191-1.035 2.654-2.249 3.04-3.859.425-1.775-.767-3.214-2.17-4.13-1.936-1.263-4.298-1.902-6.525-2.422-2.704-.63-5.461-1.126-8.236-1.289-2.795-.164-5.56.134-8.315.589-2.733.451-5.45 1.04-8.215 1.265-2.602.212-5.268.116-7.742-.786-1.68-.612-3.558-1.677-4.366-3.357-.308-.64-.377-1.36-.122-2.03.376-.99 1.22-1.736 1.686-2.68.454-.922.507-1.924-.096-2.793-.662-.952-1.75-1.563-2.785-2.025-2.236-.997-4.668-1.55-7.087-1.872a33.958 33.958 0 0 0-7.81-.143c-1.238.122-2.47.312-3.685.577-.805.176-.465 1.412.34 1.236"/></g><g><path fill="#5bf4ce" d="M59.903 87.97c-.94.542-2.466.54-3.411-.006-.945-.545-.95-1.427-.011-1.97.94-.541 2.466-.538 3.41.007.946.546.95 1.427.012 1.97"/></g><g><path fill="#5bf4ce" d="M98.563 101.1c-.94.542-2.466.54-3.411-.006-.945-.546-.95-1.427-.011-1.969.94-.542 2.466-.54 3.411.006.945.546.95 1.427.01 1.97"/></g><g><path fill="#5bf4ce" d="M69.183 101.05c-.94.542-2.466.54-3.411-.006-.945-.546-.95-1.427-.011-1.97.94-.541 2.466-.538 3.41.007.946.546.95 1.427.012 1.97"/></g><g><path fill="#5bf4ce" d="M100.253 117.86c-.94.542-2.466.54-3.411-.006-.945-.546-.95-1.427-.01-1.97.938-.541 2.465-.538 3.41.007.945.546.95 1.427.01 1.97"/></g><g><path fill="#5bf4ce" d="M123.383 122.23c-.94.542-2.466.54-3.411-.006-.945-.545-.95-1.427-.011-1.97.94-.541 2.466-.539 3.411.007.945.545.95 1.427.01 1.97"/></g><g><path fill="#3d5afe" d="M166.95 115.767L73.21 61.645l10.782-6.225 93.741 54.121z"/></g><g><path fill="#fff" d="M98.911 69.253L83.56 60.39l1.332-.77 15.352 8.863z"/></g><g><path fill="#fff" d="M87.128 66.41l-6.998-4.04 1.333-.77 6.997 4.04z"/></g><g><path fill="#fff" d="M120.911 81.953l-15.351-8.864 1.332-.769 15.352 8.863z"/></g><g><path fill="#fff" d="M109.127 79.11l-6.997-4.04 1.332-.77 6.998 4.04z"/></g><g><path fill="#fff" d="M144.081 95.333l-15.351-8.864 1.332-.769 15.352 8.863z"/></g><g><path fill="#fff" d="M132.297 92.49l-6.997-4.04 1.332-.77 6.998 4.04z"/></g><g><path fill="#fff" d="M166.081 108.033L150.73 99.17l1.332-.77 15.352 8.863z"/></g><g><path fill="#fff" d="M154.297 105.19l-6.997-4.04 1.332-.77 6.998 4.04z"/></g></g></g></g></g></svg>