<svg xmlns="http://www.w3.org/2000/svg" width="259" height="174" viewBox="0 0 259 174"><g><g><g><path fill-opacity=".27" d="M148.837 20.46a8 8 0 0 1 8.12-.137l99.111 56.152a4 4 0 0 1 .085 6.912L107.946 172.21a6 6 0 0 1-6.024.084L2.984 116.71a4 4 0 0 1-.129-6.899z"/></g><g><path fill="#263144" d="M148.834 11.457a8 8 0 0 1 8.12-.138l89.727 50.836 11.377-1.503v9.767a4.004 4.004 0 0 1-1.908 3.964l-148.207 88.823a6 6 0 0 1-6.023.085L2.98 107.706a4 4 0 0 1-2.04-3.412v-.035-9.635L16.26 92.6z"/></g><g><path fill="#3c485e" d="M148.837 1.46a8 8 0 0 1 8.12-.137l99.111 56.152a4 4 0 0 1 .085 6.912L107.946 153.21a6 6 0 0 1-6.024.084L2.984 97.71a4 4 0 0 1-.129-6.899z"/></g><g><g><path fill-opacity=".1" d="M46 89.807l54.578 31.512h20.467v-3.94l-6.822-3.938 64.814-37.42-54.58-31.511z"/></g><g><path fill="#ebf5ff" d="M66.47 81.927l54.58 31.512 78.456-45.298-54.579-31.511z"/></g><g><path fill="#d1dbe8" d="M121.05 113.437v7.878l78.457-45.297V68.14z"/></g><g><path fill="#6f9af1" d="M66.47 89.808l54.58 31.511v-7.878L66.47 81.93z"/></g><g><path fill="#ebf5ff" d="M66.47 70.117l54.58 31.511 78.457-45.297-54.58-31.511z"/></g><g><path fill="#d1dbe8" d="M121.05 101.627v7.878l78.457-45.297V56.33z"/></g><g><path fill="#6f9af1" d="M121.05 109.5L66.47 77.987V70.11l54.58 31.511z"/></g><g><path fill="#ebf5ff" d="M144.928 13L66.47 58.297l54.58 31.512 78.457-45.298z"/></g><g><path fill="#425ffe" d="M127.758 77.933l-3.411 1.97-10.485-6.054 3.41-1.97zm-13.485-7.786l-3.411 1.97-12.737-7.354 3.41-1.97zM83.52 56.331l3.411-1.97 11.605 6.7-3.411 1.97zm51.06 17.663l-3.41 1.97-10.486-6.054 3.411-1.97zm-13.485-7.786l-3.411 1.97-12.737-7.354 3.411-1.97zM90.342 52.392l3.412-1.97 11.604 6.7-3.41 1.97zm51.06 17.663l-3.41 1.97-10.486-6.054 3.411-1.97zm-13.485-7.786l-3.41 1.97-12.738-7.354 3.412-1.97zM97.165 48.453l3.41-1.97 11.606 6.7-3.412 1.97zm51.06 17.663l-3.41 1.97-10.486-6.054 3.41-1.97zM134.74 58.33l-3.411 1.97-12.737-7.354 3.41-1.97zm-30.753-13.816l3.411-1.97 11.605 6.7-3.411 1.97zm51.06 17.663l-3.41 1.97-10.486-6.054 3.411-1.97zm-13.485-7.786l-3.411 1.97-12.737-7.354 3.411-1.97zM110.81 40.575l3.412-1.97 11.604 6.7-3.41 1.97zm51.061 17.663l-3.411 1.97-10.486-6.054 3.412-1.97zm-13.485-7.785l-3.411 1.969-12.737-7.354 3.41-1.97zm-30.753-13.817l3.411-1.969 11.605 6.7-3.411 1.97zm51.06 17.663l-3.41 1.97-10.486-6.054 3.41-1.97zm-13.485-7.785l-3.411 1.97-12.737-7.355 3.411-1.97zm-30.753-13.817l3.411-1.97 11.605 6.7-3.411 1.97zm51.06 17.663l-3.41 1.97-10.486-6.054 3.411-1.97zm-13.485-7.785l-3.41 1.97-12.738-7.355 3.411-1.969zm-30.752-13.817l3.411-1.969 11.604 6.7-3.41 1.97zm51.06 17.664l-3.411 1.97-10.486-6.055 3.412-1.97zm-13.485-7.786l-3.412 1.97-12.736-7.354 3.41-1.97zM138.099 24.82l3.411-1.97 11.605 6.7-3.411 1.97z"/></g><g><path fill="#d1dbe8" d="M121.05 89.807v7.878l78.457-45.297V44.51z"/></g><g><path fill="#6f9af1" d="M121.05 97.69L66.47 66.177V58.3l54.58 31.511z"/></g></g></g></g></svg>