<svg xmlns="http://www.w3.org/2000/svg" width="259" height="175" viewBox="0 0 259 175"><defs><linearGradient id="m07ba" x1="95.13" x2="95.13" y1="-29.46" y2="64.76" gradientUnits="userSpaceOnUse"><stop offset="0" stop-color="#fb9eaf"/><stop offset="1" stop-color="#d6394c"/></linearGradient><linearGradient id="m07bb" x1="147.73" x2="126.18" y1="25.54" y2="67.54" gradientUnits="userSpaceOnUse"><stop offset="0" stop-color="#fb9eaf"/><stop offset="1" stop-color="#d4273d"/></linearGradient><linearGradient id="m07bc" x1="157.18" x2="157.18" y1="-29.46" y2="64.76" gradientUnits="userSpaceOnUse"><stop offset="0" stop-color="#fb9eaf"/><stop offset="1" stop-color="#d6394c"/></linearGradient><linearGradient id="m07be" x1="126.16" x2="126.16" y1="13.32" y2="32.03" gradientUnits="userSpaceOnUse"><stop offset="0" stop-color="#fb9eaf"/><stop offset="1" stop-color="#f66577"/></linearGradient><linearGradient id="m07bf" x1="153.94" x2="153.94" y1="29.61" y2="78.16" gradientUnits="userSpaceOnUse"><stop offset="0" stop-color="#fbd1d7"/><stop offset="1" stop-color="#f5a4ae"/></linearGradient><linearGradient id="m07bg" x1="173.51" x2="173.51" y1="32.74" y2="100.7" gradientUnits="userSpaceOnUse"><stop offset="0" stop-color="#fbd1d7"/><stop offset="1" stop-color="#f5a4ae"/></linearGradient><linearGradient id="m07bh" x1="157.35" x2="163.24" y1="60.92" y2="100.71" gradientUnits="userSpaceOnUse"><stop offset="0" stop-color="#fbd1d7"/><stop offset="1" stop-color="#e17986"/></linearGradient><linearGradient id="m07bj" x1="165.33" x2="165.33" y1="46.33" y2="91.62" gradientUnits="userSpaceOnUse"><stop offset="0" stop-color="#fbd1d7"/><stop offset="1" stop-color="#f5a4ae"/></linearGradient><linearGradient id="m07bl" x1="98.49" x2="98.49" y1="36.94" y2="77.97" gradientUnits="userSpaceOnUse"><stop offset="0" stop-color="#dc5b72"/><stop offset="1" stop-color="#81111e"/></linearGradient><linearGradient id="m07bm" x1="79.1" x2="79.1" y1="61.55" y2="100.71" gradientUnits="userSpaceOnUse"><stop offset="0" stop-color="#dc5b72"/><stop offset="1" stop-color="#b72e3e"/></linearGradient><linearGradient id="m07bo" x1="87.19" x2="87.19" y1="39.07" y2="84.35" gradientUnits="userSpaceOnUse"><stop offset="0" stop-color="#dc5b72"/><stop offset="1" stop-color="#b72e3e"/></linearGradient><linearGradient id="m07bp" x1="95.33" x2="95.33" y1="65.04" y2="100.71" gradientUnits="userSpaceOnUse"><stop offset="0" stop-color="#dc5b72"/><stop offset="1" stop-color="#81111e"/></linearGradient><linearGradient id="m07bq" x1="126.35" x2="126.35" y1="97.47" y2="110.08" gradientUnits="userSpaceOnUse"><stop offset="0" stop-color="#f3699b"/><stop offset="1" stop-color="#d42650"/></linearGradient><linearGradient id="m07bs" x1="126.35" x2="126.35" y1="88.14" y2="106.85" gradientUnits="userSpaceOnUse"><stop offset="0" stop-color="#ec4e88"/><stop offset="1" stop-color="#d42650"/></linearGradient><linearGradient id="m07bv" x1="146.34" x2="199.22" y1="97.47" y2="58.26" gradientUnits="userSpaceOnUse"><stop offset="0" stop-opacity="0"/><stop offset="1"/></linearGradient><clipPath id="m07bd"><path d="M126.108 13.32c-14.146 0-28.276 3.126-39.038 9.379l16.175 9.34c12.651-7.353 33.212-7.347 45.935 0l16.072-9.34c-10.83-6.252-24.995-9.379-39.144-9.379z"/></clipPath><clipPath id="m07bi"><path d="M149.12 55.67c12.723 7.346 12.8 19.255.149 26.606l16.175 9.34c21.525-12.51 21.469-32.783-.188-45.286z"/></clipPath><clipPath id="m07bk"><path d="M102.847 48.645c-.299.18-.553.375-.836.56-.396.257-.802.511-1.169.777-.322.234-.61.478-.91.72-.339.273-.684.542-.995.822-.063.056-.14.109-.201.165-.42.386-.803.78-1.169 1.18-.075.081-.14.166-.212.249-.218.244-.437.489-.634.737-.155.198-.292.399-.434.597-.053.073-.11.144-.157.217-.258.372-.5.748-.715 1.127-.073.127-.131.254-.197.38l-.125.242c-.204.406-.39.814-.544 1.225-.038.1-.065.2-.1.3-.027.078-.051.156-.077.232-.138.43-.26.863-.348 1.298-.018.085-.025.171-.04.256-.015.077-.026.154-.038.232-.07.458-.123.917-.135 1.376-.004.095-.004.19-.004.285l-.067 16.353c.001-.555.055-1.107.14-1.662.014-.076.025-.154.037-.23a11.42 11.42 0 0 1 .39-1.552 12.645 12.645 0 0 1 .72-1.76v-.001l.124-.24c.267-.508.568-1.013.91-1.507.05-.074.106-.145.158-.219.323-.45.682-.894 1.067-1.332.074-.082.14-.168.216-.253.419-.454.88-.903 1.369-1.341.309-.28.655-.55.994-.822.3-.242.59-.486.91-.72.366-.266.771-.52 1.166-.777.41-.267.797-.54 1.237-.796l.065-16.353-.396.235"/></clipPath><clipPath id="m07bn"><path d="M87.255 84.355l16.135-9.34c-12.723-7.346-12.791-19.26-.15-26.607L87.065 39.07c-21.515 12.505-21.468 32.782.19 45.285"/></clipPath><clipPath id="m07br"><path d="M103.396 88.14L87.26 97.48c21.656 12.503 56.664 12.503 78.18 0l-16.108-9.34c-12.643 7.346-33.212 7.346-45.936 0"/></clipPath><clipPath id="m07bt"><path d="M87.07 39.07l16.176 9.34H75.89"/></clipPath><clipPath id="m07bu"><path d="M165.443 97.48H134.62v-4.441s7.973-.972 14.716-4.899z"/></clipPath><clipPath id="m07bw"><path d="M149.18 31.517l15.619-9.076c.148.084.304.163.453.249l-16.072 9.34c-12.723-7.347-33.284-7.353-45.935 0L87.07 22.69c.149-.086.304-.165.453-.25l15.722 9.077c12.651-7.352 33.212-7.346 45.935 0z"/></clipPath><clipPath id="m07bx"><path d="M165.434 91.037c10.625-6.174 15.98-14.238 16.09-22.327.147 8.283-5.211 16.587-16.09 22.91l-16.174-9.34c.17-.097.313-.205.478-.305"/></clipPath><clipPath id="m07by"><path d="M93.835 61.4c-.145-4.777 2.836-9.565 8.935-13.27l.478.277"/></clipPath><clipPath id="m07bz"><path d="M87.264 83.765l15.656-9.06c.166.1.309.207.48.305l-16.136 9.34c-10.97-6.334-16.384-14.66-16.272-22.96.144 8.105 5.56 16.192 16.272 22.375z"/></clipPath><clipPath id="m07bA"><path d="M87.504 97.33c21.595 12.318 56.237 12.318 77.693 0l.242.14c-21.515 12.504-56.523 12.504-78.179 0"/></clipPath></defs><g><g><g><path fill-opacity=".27" d="M148.837 21.46a8 8 0 0 1 8.12-.137l99.111 56.152a4 4 0 0 1 .085 6.912L107.946 173.21a6 6 0 0 1-6.024.084L2.984 117.71a4 4 0 0 1-.129-6.899z"/></g><g><path fill="#263144" d="M148.834 11.457a8 8 0 0 1 8.12-.138l89.727 50.836 11.377-1.503v9.767a4.004 4.004 0 0 1-1.908 3.964l-148.207 88.823a6 6 0 0 1-6.023.085L2.98 107.706a4 4 0 0 1-2.04-3.412v-.035-9.635L16.26 92.6z"/></g><g><path fill="#3c485e" d="M148.837 1.46a8 8 0 0 1 8.12-.137l99.111 56.152a4 4 0 0 1 .085 6.912L107.946 153.21a6 6 0 0 1-6.024.084L2.984 97.71a4 4 0 0 1-.129-6.899z"/></g><g><g><g><path fill-opacity=".1" d="M165.196 55.26c21.642 12.502 21.765 32.774.254 45.283-10.774 6.267-24.935 9.391-39.105 9.376H49.516c-14.171.015-28.367-3.11-39.212-9.376-3.715-2.147-6.796-4.522-9.242-7.048.188-1.85 2.238-2.96 2.238-2.96L76.262 45.88h49.726m-22.605 45.316c1.197.691 2.485 1.297 3.809 1.858 1.317-.56 2.597-1.167 3.787-1.86 12.642-7.347 12.565-19.254-.15-26.598-1.197-.691-2.484-1.297-3.808-1.858-1.317.56-2.598 1.167-3.788 1.858"/></g></g><g><path fill="url(#m07ba)" d="M87 55.416l16.175 9.338.066-33.725-16.175-8.339z"/></g><g><path fill="url(#m07bb)" d="M126.924 25.544a59.445 59.445 0 0 0-1.778.007c-.134.004-.268.003-.402.001-.162 0-.325-.001-.487.004-.175.006-.347.028-.52.035-.736.032-1.463.086-2.195.146-.295.024-.592.031-.885.06-.14.013-.28.035-.421.049-.219.023-.436.053-.656.079-.756.09-1.506.196-2.253.32-.18.028-.363.055-.545.085-.087.017-.179.028-.267.044-.355.063-.7.153-1.053.224-.598.121-1.198.24-1.786.382-.435.105-.855.23-1.284.345-.56.153-1.119.305-1.665.475-.12.039-.244.066-.36.104-.67.217-1.328.45-1.975.698-.093.035-.182.075-.272.112a36.666 36.666 0 0 0-2.68 1.17c-.752.364-1.489.74-2.194 1.151l-.066 33.725a32.572 32.572 0 0 1 2.79-1.43c.677-.314 1.37-.612 2.079-.89.094-.036.184-.077.277-.112.759-.29 1.541-.552 2.333-.8.549-.174 1.11-.324 1.67-.477.425-.116.847-.24 1.281-.345.59-.143 1.19-.262 1.79-.384.438-.087.872-.188 1.314-.266.183-.031.369-.057.55-.089.745-.12 1.496-.225 2.25-.316.218-.026.438-.055.658-.078.43-.048.869-.074 1.304-.11a55.86 55.86 0 0 1 2.195-.147c.469-.019.938-.028 1.408-.038a48.937 48.937 0 0 1 3.266.034 50.722 50.722 0 0 1 3.148.212 48.59 48.59 0 0 1 1.62.183 50.318 50.318 0 0 1 3.175.503c.45.086.901.175 1.346.272.681.15 1.35.32 2.017.496.432.114.869.22 1.294.348.23.067.456.139.684.211.67.21 1.33.436 1.977.677.187.069.375.133.56.205.592.227 1.162.483 1.733.736.276.123.561.233.834.361.82.39 1.616.802 2.383 1.244l.065-33.725a33.535 33.535 0 0 0-2.384-1.244c-.27-.129-.555-.24-.832-.362-.486-.219-.967-.442-1.47-.642-.087-.032-.175-.061-.261-.094-.185-.07-.376-.136-.56-.206a46.128 46.128 0 0 0-1.978-.676c-.228-.07-.454-.144-.685-.211-.154-.048-.306-.1-.461-.145-.272-.076-.557-.13-.832-.203a45.383 45.383 0 0 0-2.018-.494c-.18-.04-.355-.095-.54-.133-.266-.056-.537-.09-.806-.14-.571-.108-1.143-.21-1.722-.3-.232-.035-.458-.087-.692-.12-.252-.035-.507-.053-.76-.085a52.384 52.384 0 0 0-1.619-.18c-.26-.027-.516-.066-.778-.088-.24-.02-.486-.022-.726-.038a50.472 50.472 0 0 0-1.642-.088c-.279-.012-.552-.038-.832-.046h-.103c-.085 0-.17.001-.254.003-.1.001-.2.002-.302.001z"/></g><g><g><path fill="url(#m07bc)" d="M165.247 22.69l-.067 32.726-16.07 9.338.066-33.725z"/></g></g><g><g/><g clip-path="url(#m07bd)"><path fill="url(#m07be)" d="M126.108 13.32c-14.146 0-28.276 3.126-39.038 9.379l16.175 9.34c12.651-7.353 33.212-7.347 45.935 0l16.072-9.34c-10.83-6.252-24.995-9.379-39.144-9.379z"/></g></g><g><g><path fill="url(#m07bf)" d="M149.12 64.757c6.403 3.698 9.603 8.552 9.59 13.397l.066-9.088c.012-4.846-3.253-9.7-9.656-13.396z"/></g></g><g><g><path fill="url(#m07bg)" d="M165.44 91.61v9.09c.227-.131.453-.264.676-.398.209-.125.401-.258.607-.386.337-.209.674-.42 1-.632.302-.198.593-.4.885-.6.314-.216.628-.433.932-.654.28-.205.553-.411.824-.619.293-.223.584-.449.866-.678.26-.209.51-.422.76-.632.27-.232.54-.464.8-.699.107-.095.222-.188.328-.284.097-.091.179-.184.275-.274a34.9 34.9 0 0 0 1.253-1.25c.133-.138.274-.278.404-.418.506-.552.987-1.11 1.436-1.674.017-.023.04-.047.06-.07.1-.132.187-.264.285-.392.272-.357.536-.713.783-1.073.134-.196.257-.393.384-.589.21-.327.416-.654.607-.982.052-.09.115-.178.166-.268.075-.135.135-.269.207-.403a21.64 21.64 0 0 0 1.107-2.365c.05-.126.11-.25.157-.376.042-.112.072-.223.112-.337.096-.266.183-.533.265-.801a17.159 17.159 0 0 0 .412-1.537c.031-.146.075-.29.104-.434.02-.098.028-.198.046-.296.052-.276.093-.552.133-.829.032-.24.065-.484.088-.725.029-.278.045-.558.06-.838.011-.16.03-.322.036-.484.005-.163.007-.324.008-.488l.064-8.995c-.004.293-.024.588-.04.883-.017.277-15.65 21.253-16.09 21.507z"/></g></g><g><g><path fill="url(#m07bh)" d="M149.26 91.368l16.175 9.34V90.619L149.26 82.28z"/></g></g><g><g/><g clip-path="url(#m07bi)"><path fill="url(#m07bj)" d="M165.247 46.33c21.657 12.503 21.713 32.776.188 45.285l-16.175-9.34c6.667-3.873 9.8-9.013 9.409-14.084.004.17.004.339 0 .509-.143-4.725-3.32-9.427-9.559-13.03l.479-.278z"/></g></g><g><g/><g clip-path="url(#m07bk)"><path fill="url(#m07bl)" d="M102.847 48.645c-.299.18-.553.375-.836.56-.396.257-.802.511-1.169.777-.322.234-.61.478-.91.72-.339.273-.684.542-.995.822-.063.056-.14.109-.201.165-.42.386-.803.78-1.169 1.18-.075.081-.14.166-.212.249-.218.244-.437.489-.634.737-.155.198-.292.399-.434.597-.053.073-.11.144-.157.217-.258.372-.5.748-.715 1.127-.073.127-.131.254-.197.38l-.125.242c-.204.406-.39.814-.544 1.225-.038.1-.065.2-.1.3-.027.078-.051.156-.077.232-.138.43-.26.863-.348 1.298-.018.085-.025.171-.04.256-.015.077-.026.154-.038.232-.07.458-.123.917-.135 1.376-.004.095-.004.19-.004.285l-.067 16.353c.001-.555.055-1.107.14-1.662.014-.076.025-.154.037-.23a11.42 11.42 0 0 1 .39-1.552 12.645 12.645 0 0 1 .72-1.76v-.001l.124-.24c.267-.508.568-1.013.91-1.507.05-.074.106-.145.158-.219.323-.45.682-.894 1.067-1.332.074-.082.14-.168.216-.253.419-.454.88-.903 1.369-1.341.309-.28.655-.55.994-.822.3-.242.59-.486.91-.72.366-.266.771-.52 1.166-.777.41-.267.797-.54 1.237-.796l.065-16.353-.396.235"/></g></g><g><g><path fill="url(#m07bm)" d="M70.94 77.903c-.014 4.64 1.702 9.283 5.147 13.579a32.938 32.938 0 0 0 4.02 4.166c.51.445 1.042.886 1.595 1.322a46.848 46.848 0 0 0 5.555 3.734V83.35C76.36 77.058 70.981 69.799 71.006 61.55z"/></g></g><g><g/><g clip-path="url(#m07bn)"><path fill="url(#m07bo)" d="M87.255 84.355l16.135-9.34c-12.723-7.346-12.791-19.26-.15-26.607L87.065 39.07c-21.515 12.505-21.468 32.782.19 45.285"/></g></g><g><g><path fill="url(#m07bp)" d="M87.26 83.35v17.352l16.136-9.34V75.01z"/></g></g><g><g><path fill="url(#m07bq)" d="M87.26 97.47v3.231a55.363 55.363 0 0 0 3.63 1.911c.12.059.237.12.357.177a64.654 64.654 0 0 0 3.662 1.593c.108.045.213.099.324.141.091.038.19.068.284.104a67.2 67.2 0 0 0 2.92 1.068c.151.051.308.097.461.148.861.287 1.734.555 2.615.812.145.044.286.093.432.135.168.048.34.088.507.134.556.154 1.116.303 1.678.445.343.086.684.175 1.03.257.613.148 1.232.286 1.854.42.234.05.463.11.698.157.063.014.127.023.19.035.563.118 1.132.222 1.703.325.311.06.624.122.938.176.744.129 1.492.245 2.242.354.137.02.272.045.407.064l.015.001c1.762.25 3.54.448 5.33.596l.03.004c.298.024.6.04.897.06.576.042 1.154.087 1.733.119.364.02.73.03 1.093.046.532.022 1.065.048 1.596.061.042 0 .084.004.13.004.293.009.585.006.88.009.53.01 1.06.019 1.59.019h.15c.373 0 .747-.01 1.12-.015.541-.008 1.083-.015 1.625-.032.1-.004.198-.004.296-.006.249-.009.496-.028.744-.037a94.235 94.235 0 0 0 1.87-.095c.373-.023.744-.05 1.114-.077.595-.044 1.19-.093 1.783-.15.206-.017.416-.028.622-.05.145-.015.286-.036.432-.05a91.608 91.608 0 0 0 2.758-.33c.148-.02.295-.036.44-.056a83.075 83.075 0 0 0 3.13-.5c.097-.018.196-.029.293-.046.272-.05.542-.108.815-.16.486-.093.97-.186 1.453-.287a95.867 95.867 0 0 0 2.578-.581c.39-.093.775-.191 1.16-.292a66.208 66.208 0 0 0 2.52-.695c.455-.135.905-.27 1.353-.411.195-.061.392-.117.587-.179.139-.046.271-.098.41-.145.813-.268 1.615-.55 2.408-.846.163-.06.33-.113.49-.175a66.177 66.177 0 0 0 2.758-1.126c.236-.103.467-.21.701-.315a58.726 58.726 0 0 0 2.05-.966 55.167 55.167 0 0 0 3.295-1.753V97.47c-.407.236-19.828 8.384-38.805 8.413-19.601.029-38.78-8.07-39.376-8.413z"/></g></g><g><g/><g clip-path="url(#m07br)"><path fill="url(#m07bs)" d="M103.396 88.14L87.26 97.48c21.656 12.503 56.664 12.503 78.18 0l-16.108-9.34c-12.643 7.346-33.212 7.346-45.936 0"/></g></g><g><g><g/><g clip-path="url(#m07bt)"><path fill-opacity=".1" d="M87.07 39.07l16.176 9.34H75.89s2.836-4.317 11.18-9.34"/></g></g><g><g/><g clip-path="url(#m07bu)"><path fill="url(#m07bv)" d="M165.443 97.48H134.62v-4.441s7.973-.972 14.716-4.899z"/></g></g><g><g/><g clip-path="url(#m07bw)"><path fill="#d8d8d8" fill-opacity=".16" d="M149.18 31.517c-12.723-7.346-33.284-7.352-45.935 0L87.523 22.44c-.149.085-.304.164-.453.25l16.175 9.34c12.651-7.353 33.212-7.347 45.935 0l16.072-9.34c-.15-.086-.305-.165-.453-.249z"/></g></g><g><g><g/></g><g><g/><g clip-path="url(#m07bx)"><path fill="#d8d8d8" fill-opacity=".16" d="M165.434 91.037l-15.696-9.062c-.165.1-.307.208-.478.306l16.174 9.34c10.879-6.324 16.237-14.628 16.09-22.911-.11 8.089-5.465 16.153-16.09 22.327"/></g></g></g><g><g><g/><g clip-path="url(#m07by)"><path fill="#d8d8d8" fill-opacity=".16" d="M93.835 61.4c.108-4.713 3.23-9.4 9.413-12.993l-.478-.277c-6.099 3.705-9.08 8.493-8.935 13.27"/></g></g><g><g/><g clip-path="url(#m07bz)"><path fill="#d8d8d8" fill-opacity=".16" d="M87.264 83.765C76.55 77.582 71.136 69.495 70.992 61.39c-.112 8.3 5.303 16.626 16.272 22.96l16.136-9.34c-.171-.098-.314-.205-.48-.306z"/></g></g></g><g><g/><g clip-path="url(#m07bA)"><path fill="#d8d8d8" fill-opacity=".16" d="M87.504 97.33l-.244.14c21.656 12.504 56.664 12.504 78.179 0l-.242-.14c-21.456 12.318-56.098 12.318-77.693 0"/></g></g></g></g></g></g></svg>