<svg xmlns="http://www.w3.org/2000/svg" width="259" height="211" viewBox="0 0 259 211"><defs><mask id="ukkjb" width="2" height="2" x="-1" y="-1"><path fill="#fff" d="M96 54h20v21H96z"/><path d="M136.844 63.884l-4.084-5.076v13.76a2.04 2.04 0 0 0 2.042 2.037 2.04 2.04 0 0 0 2.042-2.037v-8.684m11.534-9.125l-3.675 4.327c.895-.06 1.74.195 2.368.852.631.66.863 1.58.863 2.473v10.157c0 1.11.927 2.037 2.037 2.037 1.11 0 2.037-.927 2.037-2.037V56.034c0-.832-.53-1.602-1.305-1.9a2.058 2.058 0 0 0-2.325.625m-6.841 12.486c.82.328 1.794.069 2.347-.619l2.424-3.018a2.04 2.04 0 0 0-.314-2.868 2.061 2.061 0 0 0-2.87.313l-.834 1.04-5.89-7.334c-.748-.931-2.18-1.011-3.029-.172a2.058 2.058 0 0 0-.155 2.727l7.48 9.312c.23.287.522.493.84.619m0 0a13.617 13.617 0 0 0 .001 0z"/></mask><filter id="ukkja" width="42" height="44" x="85" y="43" filterUnits="userSpaceOnUse"><feOffset dy="1" in="SourceGraphic" result="FeOffset1198Out"/><feGaussianBlur in="FeOffset1198Out" result="FeGaussianBlur1199Out" stdDeviation="0.4 0.4"/></filter><linearGradient id="ukkjc" x1="142.38" x2="142.38" y1="54.39" y2="74.61" gradientUnits="userSpaceOnUse"><stop offset="0" stop-color="#fff"/><stop offset="1" stop-color="#daeffa"/></linearGradient><filter id="ukkjd" width="200%" height="200%" x="-50%" y="-50%"><feGaussianBlur in="SourceGraphic" result="FeGaussianBlur1207Out" stdDeviation="0 0"/></filter><mask id="ukkje"><path fill="#fff" d="M136.844 63.884l-4.084-5.076v13.76a2.04 2.04 0 0 0 2.042 2.037 2.04 2.04 0 0 0 2.042-2.037v-8.684m11.534-9.125l-3.675 4.327c.895-.06 1.74.195 2.368.852.631.66.863 1.58.863 2.473v10.157c0 1.11.927 2.037 2.037 2.037 1.11 0 2.037-.927 2.037-2.037V56.034c0-.832-.53-1.602-1.305-1.9a2.058 2.058 0 0 0-2.325.625m-6.841 12.486c.82.328 1.794.069 2.347-.619l2.424-3.018a2.04 2.04 0 0 0-.314-2.868 2.061 2.061 0 0 0-2.87.313l-.834 1.04-5.89-7.334c-.748-.931-2.18-1.011-3.029-.172a2.058 2.058 0 0 0-.155 2.727l7.48 9.312c.23.287.522.493.84.619m0 0a13.617 13.617 0 0 0 .001 0z"/></mask></defs><g><g><g><path fill-opacity=".27" d="M148.837 57.46a8 8 0 0 1 8.12-.137l99.111 56.152a4 4 0 0 1 .085 6.912L107.946 209.21a6 6 0 0 1-6.024.084L2.984 153.71a4 4 0 0 1-.129-6.899z"/></g><g><path fill="#263144" d="M148.834 47.457a8 8 0 0 1 8.12-.138l89.727 50.836 11.377-1.503v9.767a4.004 4.004 0 0 1-1.908 3.964l-148.207 88.823a6 6 0 0 1-6.023.085L2.98 143.706a4 4 0 0 1-2.04-3.412v-.035-9.635l15.32-2.024z"/></g><g><path fill="#3c485e" d="M148.837 37.46a8 8 0 0 1 8.12-.137l99.111 56.152a4 4 0 0 1 .085 6.912L107.946 189.21a6 6 0 0 1-6.024.084L2.984 133.71a4 4 0 0 1-.129-6.899z"/></g><g><path fill-opacity=".1" d="M118 137c16.569 0 30-6.492 30-14.5S134.569 108 118 108c-16.569 0-30 6.492-30 14.5s13.431 14.5 30 14.5z"/></g></g><g transform="matrix(-1 0 0 1 248 0)"><g><g><path d="M79.27 102.302c3.907-.03 7.991-.61 12.242-1.749 10.257-2.744 18.606-8.023 21.75-10.009 1.141-.722 1.42-.894 1.666-.944l.26 1.297c.015-.004.039-.008.065-.02-.137.058-.693.41-1.285.782-3.19 2.018-11.665 7.376-22.115 10.171-3.92 1.05-7.708 1.64-11.35 1.773a63.79 63.79 0 0 1-1.233-1.301"/></g><g><path d="M164.521 90.98c.056.139.4.7.764 1.295.982 1.602 2.776 4.526 4.655 8.354-.309.362-.625.722-.944 1.077-1.943-4.016-3.825-7.09-4.837-8.74-.705-1.15-.873-1.432-.919-1.677l1.299-.242c-.004-.017-.008-.04-.018-.067"/></g><g><path d="M174.516 94.447a.405.405 0 0 0 0-.81c-9.274 0-16.818-12.446-16.818-27.743 0-15.3 7.544-27.746 16.818-27.746a.403.403 0 1 0 0-.808c-9.72 0-17.626 12.809-17.626 28.554s7.906 28.553 17.626 28.553"/></g><g><path d="M177.837 88.538a.405.405 0 0 0 0-.81c-3.426 0-6.54-2.235-8.77-6.296-2.21-4.024-3.427-9.544-3.427-15.541 0-12.066 5.934-21.883 13.23-21.883a.404.404 0 0 0 0-.808c-7.742 0-14.04 10.18-14.04 22.69 0 13.122 5.47 22.648 13.007 22.648"/></g><g><path fill="#3d5afe" d="M123.854.61c33.481 0 60.625 27.144 60.625 60.626 0 33.481-27.144 60.623-60.625 60.623-33.482 0-60.624-27.142-60.624-60.623C63.23 27.754 90.372.61 123.854.61z"/></g><g><path fill-opacity=".15" d="M149.897 6.48c13.327 11.122 21.812 27.85 21.812 46.566 0 33.481-27.142 60.623-60.624 60.623a60.365 60.365 0 0 1-26.035-5.866c10.516 8.775 24.045 14.06 38.812 14.06 33.482 0 60.626-27.142 60.626-60.624 0-24.162-14.14-45.017-34.591-54.759"/></g><g><path fill="#fff" d="M133.025 18.826a43.111 43.111 0 0 1 7.176-.606c2.243 0 4.447.178 6.601.513-1.865-9.746-7.298-14.642-11.504-17.028A60.86 60.86 0 0 0 123.856.61c-1.539 0-3.057.077-4.566.19 9.528 4.48 12.694 13.3 13.735 18.026"/></g><g><path fill="#fff" d="M130.83 19.26c-3.608-13.29-12.52-17.33-15.292-18.08l-.95.139c-3.124.337-8.611 1.923-11.528 2.844 11.446 6.768 14.714 19.4 14.714 19.4 3.437-1.84 9.18-3.438 13.056-4.304z"/></g><g><path fill="#2424b2" d="M103.06 65.804c0 21.653 16.628 39.204 37.14 39.204 20.514 0 37.142-17.55 37.142-39.204 0-21.651-16.628-39.204-37.141-39.204-20.513 0-37.141 17.553-37.141 39.204"/></g><g><path fill="#2940e2" d="M105.07 65.803c0 20.484 15.73 37.086 35.133 37.086 19.404 0 35.133-16.602 35.133-37.086 0-20.48-15.729-37.083-35.133-37.083-19.404 0-35.133 16.602-35.133 37.083"/></g></g><g><g><g><path fill="#0f1843" d="M84.65 71.765H64.14c.175.999.374 1.99.598 2.97h19.91a1.486 1.486 0 0 0 0-2.97m2.913-6.45H63.365c.066.997.156 1.987.27 2.97h23.927a1.486 1.486 0 0 0 0-2.97m-.127-12.276c0-.82-.666-1.485-1.485-1.485H63.998a60.626 60.626 0 0 0-.402 2.97H85.95c.82 0 1.485-.666 1.485-1.485M81.326 78.96H65.863c.305 1.002.636 1.992.992 2.97h14.471a1.486 1.486 0 0 0 0-2.97M65.398 45.103c-.27.98-.515 1.97-.737 2.97h16.665a1.486 1.486 0 0 0 0-2.97zM75.521 85.49h-7.244a60.344 60.344 0 0 0 1.395 2.97h5.849a1.486 1.486 0 0 0 0-2.97m-7.947-46.837c-.393.977-.76 1.968-1.103 2.97h9.05a1.486 1.486 0 0 0 0-2.97zm-4.345 22.58v.172h24.333a1.486 1.486 0 0 0 0-2.97h-24.27c-.041.928-.063 1.86-.063 2.798"/></g></g></g><g><g><path fill="#2424b2" d="M109.69 65.807c0 17.786 13.66 32.206 30.512 32.206 16.85 0 30.51-14.42 30.51-32.206 0-17.787-13.66-32.207-30.51-32.207-16.852 0-30.512 14.42-30.512 32.207"/></g><g><path fill="#102c5d" d="M111.08 65.81c0 16.978 13.038 30.739 29.122 30.739 16.083 0 29.122-13.761 29.122-30.74 0-16.976-13.039-30.739-29.122-30.739-16.084 0-29.122 13.763-29.122 30.74"/></g><g><g filter="url(#ukkja)"><path fill="none" d="M136.844 63.884l-4.084-5.076v13.76a2.04 2.04 0 0 0 2.042 2.037 2.04 2.04 0 0 0 2.042-2.037v-8.684m11.534-9.125l-3.675 4.327c.895-.06 1.74.195 2.368.852.631.66.863 1.58.863 2.473v10.157c0 1.11.927 2.037 2.037 2.037 1.11 0 2.037-.927 2.037-2.037V56.034c0-.832-.53-1.602-1.305-1.9a2.058 2.058 0 0 0-2.325.625m-6.841 12.486c.82.328 1.794.069 2.347-.619l2.424-3.018a2.04 2.04 0 0 0-.314-2.868 2.061 2.061 0 0 0-2.87.313l-.834 1.04-5.89-7.334c-.748-.931-2.18-1.011-3.029-.172a2.058 2.058 0 0 0-.155 2.727l7.48 9.312c.23.287.522.493.84.619m0 0a13.617 13.617 0 0 0 .001 0z" mask="url(&quot;#ukkjb&quot;)"/><path fill-opacity=".03" d="M136.844 63.884l-4.084-5.076v13.76a2.04 2.04 0 0 0 2.042 2.037 2.04 2.04 0 0 0 2.042-2.037v-8.684m11.534-9.125l-3.675 4.327c.895-.06 1.74.195 2.368.852.631.66.863 1.58.863 2.473v10.157c0 1.11.927 2.037 2.037 2.037 1.11 0 2.037-.927 2.037-2.037V56.034c0-.832-.53-1.602-1.305-1.9a2.058 2.058 0 0 0-2.325.625m-6.841 12.486c.82.328 1.794.069 2.347-.619l2.424-3.018a2.04 2.04 0 0 0-.314-2.868 2.061 2.061 0 0 0-2.87.313l-.834 1.04-5.89-7.334c-.748-.931-2.18-1.011-3.029-.172a2.058 2.058 0 0 0-.155 2.727l7.48 9.312c.23.287.522.493.84.619m0 0a13.617 13.617 0 0 0 .001 0z"/></g><path fill="url(#ukkjc)" d="M136.844 63.884l-4.084-5.076v13.76a2.04 2.04 0 0 0 2.042 2.037 2.04 2.04 0 0 0 2.042-2.037v-8.684m11.534-9.125l-3.675 4.327c.895-.06 1.74.195 2.368.852.631.66.863 1.58.863 2.473v10.157c0 1.11.927 2.037 2.037 2.037 1.11 0 2.037-.927 2.037-2.037V56.034c0-.832-.53-1.602-1.305-1.9a2.058 2.058 0 0 0-2.325.625m-6.841 12.486c.82.328 1.794.069 2.347-.619l2.424-3.018a2.04 2.04 0 0 0-.314-2.868 2.061 2.061 0 0 0-2.87.313l-.834 1.04-5.89-7.334c-.748-.931-2.18-1.011-3.029-.172a2.058 2.058 0 0 0-.155 2.727l7.48 9.312c.23.287.522.493.84.619m0 0a13.617 13.617 0 0 0 .001 0z"/><path fill-opacity=".06" d="M96 76V53h20v23zm40.844-13.116v8.684a2.04 2.04 0 0 1-2.042 2.037 2.04 2.04 0 0 1-2.042-2.037v-13.76l4.084 5.076m11.534-9.125a2.058 2.058 0 0 1 2.325-.625 2.058 2.058 0 0 1 1.305 1.9v16.534c0 1.11-.927 2.037-2.037 2.037a2.057 2.057 0 0 1-2.037-2.037V61.411c0-.894-.232-1.812-.863-2.473-.628-.657-1.473-.911-2.368-.852l3.675-4.327m-6.841 12.486a2.029 2.029 0 0 1-.84-.619l-7.481-9.312a2.058 2.058 0 0 1 .155-2.727c.85-.84 2.28-.759 3.029.172l5.89 7.333.834-1.039a2.061 2.061 0 0 1 2.87-.313 2.04 2.04 0 0 1 .314 2.868l-2.424 3.018a2.065 2.065 0 0 1-2.347.619c-.008-.003-.31-.122 0 0m0 0z" filter="url(#ukkjd)" mask="url(&quot;#ukkje&quot;)"/></g><g><path fill="#0f1843" d="M163.475 67.11c0-16.976-13.038-30.74-29.122-30.74-1.031 0-2.051.058-3.053.17a27.682 27.682 0 0 1 8.902-1.47c16.084 0 29.122 13.763 29.122 30.74 0 15.889-11.419 28.961-26.069 30.573 11.728-3.972 20.22-15.575 20.22-29.273"/></g></g></g></g></svg>