<svg xmlns="http://www.w3.org/2000/svg" width="259" height="215" viewBox="0 0 259 215"><defs><mask id="zqpob" width="2" height="2" x="-1" y="-1"><path fill="#fff" d="M159 70h35v24h-35z"/><path d="M159.006 88.641a5 5 0 0 1 2.517-4.35l24.494-14.01a5 5 0 0 1 7.483 4.34v.084a5 5 0 0 1-2.524 4.344L166.482 93.01a5 5 0 0 1-7.476-4.334z"/></mask><filter id="zqpoa" width="57" height="47" x="147" y="60" filterUnits="userSpaceOnUse"><feOffset dx="-2" dy="3" in="SourceGraphic" result="FeOffset1349Out"/><feGaussianBlur in="FeOffset1349Out" result="FeGaussianBlur1350Out" stdDeviation="0 0"/></filter><mask id="zqpod" width="2" height="2" x="-1" y="-1"><path fill="#fff" d="M134 32h35v24h-35z"/><path d="M134.006 50.641a5 5 0 0 1 2.517-4.35l24.494-14.01a5 5 0 0 1 7.483 4.34v.084a5 5 0 0 1-2.524 4.344L141.482 55.01a5 5 0 0 1-7.476-4.334z"/></mask><filter id="zqpoc" width="57" height="47" x="122" y="22" filterUnits="userSpaceOnUse"><feOffset dx="-2" dy="3" in="SourceGraphic" result="FeOffset1365Out"/><feGaussianBlur in="FeOffset1365Out" result="FeGaussianBlur1366Out" stdDeviation="0 0"/></filter><mask id="zqpof" width="2" height="2" x="-1" y="-1"><path fill="#fff" d="M76 40h35v24H76z"/><path d="M76.006 58.641a5 5 0 0 1 2.517-4.35l24.494-14.01a5 5 0 0 1 7.483 4.34v.084a5 5 0 0 1-2.524 4.344L83.482 63.01a5 5 0 0 1-7.476-4.334z"/></mask><filter id="zqpoe" width="57" height="47" x="64" y="30" filterUnits="userSpaceOnUse"><feOffset dx="-2" dy="3" in="SourceGraphic" result="FeOffset1396Out"/><feGaussianBlur in="FeOffset1396Out" result="FeGaussianBlur1397Out" stdDeviation="0 0"/></filter></defs><g><g transform="matrix(-1 0 0 1 259 0)"><g><path fill-opacity=".27" d="M148.837 61.46a8 8 0 0 1 8.12-.137l99.111 56.152a4 4 0 0 1 .085 6.912L107.946 213.21a6 6 0 0 1-6.024.084L2.984 157.71a4 4 0 0 1-.129-6.899z"/></g><g><path fill="#263144" d="M148.834 51.457a8 8 0 0 1 8.12-.138l89.727 50.836 11.377-1.503v9.767a4.004 4.004 0 0 1-1.908 3.964l-148.207 88.823a6 6 0 0 1-6.023.085L2.98 147.706a4 4 0 0 1-2.04-3.412v-.035-9.635l15.32-2.024z"/></g><g><path fill="#3c485e" d="M148.837 41.46a8 8 0 0 1 8.12-.137l99.111 56.152a4 4 0 0 1 .085 6.912L107.946 193.21a6 6 0 0 1-6.024.084L2.984 137.71a4 4 0 0 1-.129-6.899z"/></g><g><path fill-opacity=".11" d="M168.596 151.95l26.406-15.797L108.552 86 87.11 105.616z"/></g><g><path fill-opacity=".11" d="M208.596 124.95l26.406-15.797L148.552 59 127.11 78.616z"/></g></g><g><g><g><g><path fill="#ebf5ff" d="M51.29 64.859l.016 61.068 79.975-45.837.23-61.34z"/></g><g><path fill="#cadcf7" d="M120 44v17.255l-16.74 9.564V53.512zm-19.13 11.62v17.255l-16.74 9.564V65.132zM120 64.74v17.254l-16.74 9.564V74.25zm-38.26 1.702v17.255L65 93.261V75.954zm19.13 9.917v17.255l-16.74 9.564V85.87zM81.74 87.181v17.255L65 114V96.693z"/></g><g><path fill="#1731ca" d="M128.596 18.75L49 63.958l2.291.9 80.222-46.108z"/></g><g><path fill="#6f9af1" d="M49.233 124.574l2.074 1.354-.016-61.068-2.291-.9z"/></g></g></g><g><g/></g><g><g/></g><g><g><g><path fill="#ebf5ff" d="M91.12 66.065l.022 86.903 113.81-65.227L205.28.45z"/></g><g><path fill="#cadcf7" d="M196 33.14v21.632l-21 11.99V45.064zm0 26v21.632l-21 11.99V71.064zm-72 41v21.632l-21 11.99v-21.698zm24-13.568v21.632l-21 11.99V98.497zM124 74.14v21.632l-21 11.99V86.064zm48-2.135v21.632l-21 11.99V83.928zm-24-11.433v21.632l-21 11.99V72.497zm24-14.567v21.632l-21 11.99V57.928z"/></g></g></g><g><g><path fill="#1731ca" d="M201.13.45L87.86 64.784l3.261 1.281L205.281.45z"/></g></g><g><g><path fill="#6f9af1" d="M87.86 64.78l.332 86.257 2.952 1.927-.023-86.902z"/></g></g><g><path fill-opacity=".11" d="M131.515 175.11l-26.405-15.797 86.45-50.153 21.442 19.616z"/></g><g><path fill="#3d5afe" d="M91.12 66.065L205.28.45l-.078 11.703-114.06 65.44z"/></g><g><path fill="#ebf5ff" d="M131.79 93.829v81.281l81.208-46.334V47.74z"/></g><g><path fill="#cadcf7" d="M208 75v21.632l-21 11.99V86.924zm-24 14.568v21.631l-21 11.99v-21.697zM208 101v21.632l-21 11.99v-21.698zm-48 2.135v21.632l-21 11.99V115.06zm24 12.433v21.631l-21 11.99v-21.697zm-24 13.567v21.632l-21 11.99V141.06z"/></g><g><path fill="#3d5afe" d="M131 93.618l82-45.878v11.61l-81.978 45.795z"/></g><g><g filter="url(#zqpoa)"><path fill="none" d="M159.006 88.641a5 5 0 0 1 2.517-4.35l24.494-14.01a5 5 0 0 1 7.483 4.34v.084a5 5 0 0 1-2.524 4.344L166.482 93.01a5 5 0 0 1-7.476-4.334z" mask="url(&quot;#zqpob&quot;)"/><path fill-opacity=".05" d="M159.006 88.641a5 5 0 0 1 2.517-4.35l24.494-14.01a5 5 0 0 1 7.483 4.34v.084a5 5 0 0 1-2.524 4.344L166.482 93.01a5 5 0 0 1-7.476-4.334z"/></g><path fill="#fd808b" d="M159.006 88.641a5 5 0 0 1 2.517-4.35l24.494-14.01a5 5 0 0 1 7.483 4.34v.084a5 5 0 0 1-2.524 4.344L166.482 93.01a5 5 0 0 1-7.476-4.334z"/></g><g><g filter="url(#zqpoc)"><path fill="none" d="M134.006 50.641a5 5 0 0 1 2.517-4.35l24.494-14.01a5 5 0 0 1 7.483 4.34v.084a5 5 0 0 1-2.524 4.344L141.482 55.01a5 5 0 0 1-7.476-4.334z" mask="url(&quot;#zqpod&quot;)"/><path fill-opacity=".05" d="M134.006 50.641a5 5 0 0 1 2.517-4.35l24.494-14.01a5 5 0 0 1 7.483 4.34v.084a5 5 0 0 1-2.524 4.344L141.482 55.01a5 5 0 0 1-7.476-4.334z"/></g><path fill="#fd808b" d="M134.006 50.641a5 5 0 0 1 2.517-4.35l24.494-14.01a5 5 0 0 1 7.483 4.34v.084a5 5 0 0 1-2.524 4.344L141.482 55.01a5 5 0 0 1-7.476-4.334z"/></g><g><path fill="#3d5afe" d="M51 64.877l80.513-46.117v11.61l-80.49 46.034z"/></g><g><path fill="#1731ca" d="M213.002 47.74l-2.973-1.7-81.209 46.088 2.974 1.7z"/></g><g><path fill="#6f9af1" d="M128.82 173.412l2.974 1.699V93.829l-2.974-1.699z"/></g><g><g filter="url(#zqpoe)"><path fill="none" d="M76.006 58.641a5 5 0 0 1 2.517-4.35l24.494-14.01a5 5 0 0 1 7.483 4.34v.084a5 5 0 0 1-2.524 4.344L83.482 63.01a5 5 0 0 1-7.476-4.334z" mask="url(&quot;#zqpof&quot;)"/><path fill-opacity=".05" d="M76.006 58.641a5 5 0 0 1 2.517-4.35l24.494-14.01a5 5 0 0 1 7.483 4.34v.084a5 5 0 0 1-2.524 4.344L83.482 63.01a5 5 0 0 1-7.476-4.334z"/></g><path fill="#fd808b" d="M76.006 58.641a5 5 0 0 1 2.517-4.35l24.494-14.01a5 5 0 0 1 7.483 4.34v.084a5 5 0 0 1-2.524 4.344L83.482 63.01a5 5 0 0 1-7.476-4.334z"/></g></g></g></svg>