<svg xmlns="http://www.w3.org/2000/svg" width="931" height="1267" viewBox="0 0 931 1267"><g><g><path fill="none" stroke="#95a0dd" stroke-dasharray="55 6" stroke-linecap="round" stroke-linejoin="round" stroke-miterlimit="50" stroke-opacity=".5" stroke-width="3" d="M36 680v0l350.756 206.784a97 97 0 0 1 47.718 85.538l-1.732 84.92a97 97 0 0 0 44.551 83.59L641 1246v0"/></g><g><path fill="none" stroke="#95a0dd" stroke-dasharray="55 6" stroke-linecap="round" stroke-linejoin="round" stroke-miterlimit="50" stroke-opacity=".5" stroke-width="3" d="M16 686v0l367.567 217.278a73 73 0 0 1 35.852 63.214l-.514 100.861a97 97 0 0 0 44.376 81.98L630 1257v0"/></g><g><path fill="none" stroke="#95a0dd" stroke-dasharray="55 6" stroke-linecap="round" stroke-linejoin="round" stroke-miterlimit="50" stroke-opacity=".5" stroke-width="3" d="M2 695v0l371.021 219.32a66 66 0 0 1 32.414 57.16l-.538 103.529a95 95 0 0 0 41.44 78.957L609 1265v0"/></g><g><path fill="none" stroke="#95a0dd" stroke-dasharray="55 6" stroke-linecap="round" stroke-linejoin="round" stroke-miterlimit="50" stroke-opacity=".5" stroke-width="3" d="M54 673v0l349.289 205.918c30.969 18.258 49.3 52.145 47.634 88.057l-3.677 79.255a97 97 0 0 0 44.967 86.426L660 1239v0"/></g><g><path fill="none" stroke="#95a0dd" stroke-dasharray="55 6" stroke-linecap="round" stroke-linejoin="round" stroke-miterlimit="50" stroke-opacity=".5" stroke-width="3" d="M68 666v0l350.666 206.73a96 96 0 0 1 47.2 85.682l-2.925 94.05a74 74 0 0 0 34.143 64.67L677 1232v0"/></g><g><path fill="none" stroke="#95a0dd" stroke-dasharray="55 6" stroke-linecap="round" stroke-linejoin="round" stroke-miterlimit="50" stroke-opacity=".5" stroke-width="3" d="M36 680v0l373.67 220.716a100 100 0 0 0 38.507 13.133l229.318 28.54a100 100 0 0 1 39.555 13.76L921 1080v0"/></g><g><path fill="none" stroke="#95a0dd" stroke-dasharray="55 6" stroke-linecap="round" stroke-linejoin="round" stroke-miterlimit="50" stroke-opacity=".5" stroke-width="3" d="M28 693v0l373.832 220.812A100 100 0 0 0 439.98 926.9l229.713 29.436a100 100 0 0 1 39.195 13.714L913 1094v0"/></g><g><path fill="none" stroke="#95a0dd" stroke-dasharray="55 6" stroke-linecap="round" stroke-linejoin="round" stroke-miterlimit="50" stroke-opacity=".5" stroke-width="3" d="M28 710v0l373.832 220.812A100 100 0 0 0 439.98 943.9l229.713 29.436a100 100 0 0 1 39.195 13.714L913 1111v0"/></g><g><path fill="none" stroke="#95a0dd" stroke-dasharray="55 6" stroke-linecap="round" stroke-linejoin="round" stroke-miterlimit="50" stroke-opacity=".5" stroke-width="3" d="M41 665v0l373.832 220.812A100 100 0 0 0 452.98 898.9l229.713 29.436a100 100 0 0 1 39.195 13.714L926 1066v0"/></g><g><path fill="none" stroke="#95a0dd" stroke-dasharray="55 6" stroke-linecap="round" stroke-linejoin="round" stroke-miterlimit="50" stroke-opacity=".5" stroke-width="3" d="M41 650v0l377.023 222.697a82 82 0 0 0 31.28 10.732l233.39 29.907a100 100 0 0 1 39.195 13.714L926 1051v0"/></g><g><g><path fill="none" stroke="#95a0dd" stroke-dasharray="55 6" stroke-linecap="round" stroke-linejoin="round" stroke-miterlimit="50" stroke-opacity=".5" stroke-width="3" d="M826 143L594 12"/></g><g><path fill="none" stroke="#95a0dd" stroke-dasharray="55 6" stroke-linecap="round" stroke-linejoin="round" stroke-miterlimit="50" stroke-opacity=".5" stroke-width="3" d="M852 139L620 8"/></g><g><path fill="none" stroke="#95a0dd" stroke-dasharray="55 6" stroke-linecap="round" stroke-linejoin="round" stroke-miterlimit="50" stroke-opacity=".5" stroke-width="3" d="M873 133L641 2"/></g><g><path fill="none" stroke="#95a0dd" stroke-dasharray="55 6" stroke-linecap="round" stroke-linejoin="round" stroke-miterlimit="50" stroke-opacity=".5" stroke-width="3" d="M903 133L671 2"/></g><g><path fill="none" stroke="#95a0dd" stroke-dasharray="55 6" stroke-linecap="round" stroke-linejoin="round" stroke-miterlimit="50" stroke-opacity=".5" stroke-width="3" d="M929 133L697 2"/></g></g><g><path fill="none" stroke="#95a0dd" stroke-dasharray="55 6" stroke-linecap="round" stroke-linejoin="round" stroke-miterlimit="50" stroke-opacity=".5" stroke-width="3" d="M858 149v0L132.147 545.637A56 56 0 0 0 103 594.778V675"/></g><g><path fill="none" stroke="#95a0dd" stroke-dasharray="55 6" stroke-linecap="round" stroke-linejoin="round" stroke-miterlimit="50" stroke-opacity=".5" stroke-width="3" d="M845 139v0L120.486 534.382a61 61 0 0 0-31.777 53.052L88 675v0"/></g><g><path fill="none" stroke="#95a0dd" stroke-dasharray="55 6" stroke-linecap="round" stroke-linejoin="round" stroke-miterlimit="50" stroke-opacity=".5" stroke-width="3" d="M870 159v0L146.01 555.76A52 52 0 0 0 119 601.363V675"/></g><g><path fill="none" stroke="#95a0dd" stroke-dasharray="55 6" stroke-linecap="round" stroke-linejoin="round" stroke-miterlimit="50" stroke-opacity=".5" stroke-width="3" d="M904 159v0L162.668 563.114a49 49 0 0 0-25.524 41.53L135 675v0"/></g><g><path fill="none" stroke="#95a0dd" stroke-dasharray="55 6" stroke-linecap="round" stroke-linejoin="round" stroke-miterlimit="50" stroke-opacity=".5" stroke-width="3" d="M921 167v0L171.543 575.811a43 43 0 0 0-22.384 36.274L147 675v0"/></g></g></svg>