<?xml version="1.0" encoding="UTF-8"?>
<svg width="353px" height="263px" viewBox="0 0 353 263" version="1.1" xmlns="http://www.w3.org/2000/svg" xmlns:xlink="http://www.w3.org/1999/xlink">
    <!-- Generator: Sketch 59 (86127) - https://sketch.com -->
    <title>run-t-s-mob-3</title>
    <desc>Created with Sketch.</desc>
    <defs>
        <path d="M51.19282,22.7980725 C51.7913725,23.1441 52.43497,23.44713 53.096995,23.7276375 C53.7556075,23.44713 54.3957925,23.1441 54.9909325,22.79739 C61.311565,19.12281 61.273345,13.167315 54.9158575,9.4941 C54.317305,9.1480725 53.6737075,8.8450425 53.0116825,8.564535 C52.35307,8.8450425 51.712885,9.1480725 51.117745,9.4941 M82.09915,4.8251175 C92.9201875,11.0768175 92.9816125,21.212625 82.226095,27.467055 C76.8391225,30.6004125 69.7588675,32.162655 62.673835,32.1552277 L62.578285,32.1552277 L62.482735,32.1552277 L62.3878675,32.1552277 L62.2923175,32.1552277 L62.19745,32.1552277 L62.1019,32.1552277 L62.00635,32.1552277 L61.9114825,32.1552277 L61.8159325,32.1552277 L61.7203825,32.1552277 L61.625515,32.1552277 L61.529965,32.1552277 L61.434415,32.1552277 L61.3395475,32.1552277 L61.2439975,32.1552277 L61.1484475,32.1552277 L61.05358,32.1552277 L60.95803,32.1552277 L60.86248,32.1552277 L60.7676125,32.1552277 L60.6720625,32.1552277 L60.577195,32.1552277 L60.481645,32.1552277 L60.386095,32.1552277 L60.2912275,32.1552277 L60.1956775,32.1552277 L60.1001275,32.1552277 L60.00526,32.1552277 L59.9103925,32.1552277 L59.81416,32.1552277 L59.719975,32.1552277 L59.624425,32.1552277 L59.528875,32.1552277 L59.4340075,32.1552277 L59.3384575,32.1552277 L59.2429075,32.1552277 L59.14804,32.1552277 L59.05249,32.1552277 L58.95694,32.1552277 L58.8620725,32.1552277 L58.7665225,32.1552277 L58.671655,32.1552277 L58.576105,32.1552277 L58.480555,32.1552277 L58.3856875,32.1552277 L58.2901375,32.1552277 L58.1945875,32.1552277 L58.09972,32.1552277 L58.00417,32.1552277 L57.90862,32.1552277 L57.8137525,32.1552277 L57.7182025,32.1552277 L57.6226525,32.1552277 L57.527785,32.1552277 L57.432235,32.1552277 L57.336685,32.1552277 L57.2418175,32.1552277 L57.1462675,32.1552277 L57.0514,32.1552277 L56.95585,32.1552277 L56.8603,32.1552277 L56.7654325,32.1552277 L56.6698825,32.1552277 L56.5743325,32.1552277 L56.479465,32.1552277 L56.383915,32.1552277 L56.288365,32.1552277 L56.1934975,32.1552277 L56.0979475,32.1552277 L56.00308,32.1552277 L55.90753,32.1552277 L55.8126625,32.1552277 L55.7171125,32.1552277 L55.622245,32.1552277 L55.526695,32.1552277 L55.431145,32.1552277 L55.3362775,32.1552277 L55.2407275,32.1552277 L55.14586,32.1552277 L55.05031,32.1552277 L54.95476,32.1552277 L54.8598925,32.1552277 L54.7643425,32.1552277 L54.6687925,32.1552277 L54.573925,32.1552277 L54.478375,32.1552277 L54.382825,32.1552277 L54.2879575,32.1552277 L54.1924075,32.1552277 L54.0968575,32.1552277 L54.00199,32.1552277 L53.90644,32.1552277 L53.81089,32.1552277 L53.7160225,32.1552277 L53.6204725,32.1552277 L53.5249225,32.1552277 L53.430055,32.1552277 L53.334505,32.1552277 L53.2396375,32.1552277 L53.1440875,32.1552277 L53.0485375,32.1552277 L52.95367,32.1552277 L52.85812,32.1552277 L52.76257,32.1552277 L52.6677025,32.1552277 L52.572835,32.1552277 L52.4766025,32.1552277 L52.3824175,32.1552277 L52.2868675,32.1552277 L52.190635,32.1552277 L52.09645,32.1552277 L52.0009,32.1552277 L51.90535,32.1552277 L51.8104825,32.1552277 L51.7149325,32.1552277 L51.620065,32.1552277 L51.524515,32.1552277 L51.428965,32.1552277 L51.3340975,32.1552277 L51.2385475,32.1552277 L51.1429975,32.1552277 L51.04813,32.1552277 L50.95258,32.1552277 L50.85703,32.1552277 L50.7621625,32.1552277 L50.6666125,32.1552277 L50.5710625,32.1552277 L50.476195,32.1552277 L50.380645,32.1552277 L50.285095,32.1552277 L50.1902275,32.1552277 L50.0946775,32.1552277 L49.9991275,32.1552277 L49.90426,32.1552277 L49.80871,32.1552277 L49.7138425,32.1552277 L49.6182925,32.1552277 L49.5227425,32.1552277 L49.427875,32.1552277 L49.332325,32.1552277 L49.236775,32.1552277 L49.1419075,32.1552277 L49.04704,32.1552277 L48.9508075,32.1552277 L48.85594,32.1552277 L48.7610725,32.1552277 L48.6655225,32.1552277 L48.5699725,32.1552277 L48.475105,32.1552277 L48.379555,32.1552277 L48.2846875,32.1552277 L48.1891375,32.1552277 L48.0935875,32.1552277 L47.99872,32.1552277 L47.90317,32.1552277 L47.8083025,32.1552277 L47.7127525,32.1552277 L47.6172025,32.1552277 L47.522335,32.1552277 L47.426785,32.1552277 L47.331235,32.1552277 L47.2363675,32.1552277 L47.1408175,32.1552277 L47.0452675,32.1552277 L46.9504,32.1552277 L46.85485,32.1552277 L46.7593,32.1552277 L46.6644325,32.1552277 L46.5688825,32.1552277 L46.4733325,32.1552277 L46.378465,32.1552277 L46.282915,32.1552277 L46.1880475,32.1552277 L46.0924975,32.1552277 L45.9969475,32.1552277 L45.90208,32.1552277 L45.80653,32.1552277 L45.71098,32.1552277 L45.6161125,32.1552277 L45.5205625,32.1552277 L45.4250125,32.1552277 L45.330145,32.1552277 L45.234595,32.1552277 L45.1397275,32.1552277 L45.0441775,32.1552277 L44.94931,32.1552277 L44.85376,32.1552277 L44.75821,32.1552277 L44.6633425,32.1552277 L44.5677925,32.1552277 L25.1165425,32.1552277 L25.0209925,32.1552277 L24.926125,32.1552277 L24.830575,32.1552277 L24.735025,32.1552277 L24.6401575,32.1552277 L24.54529,32.1552277 L24.44974,32.1552277 L24.35419,32.1552277 L24.2593225,32.1552277 C17.1736075,32.162655 10.0756075,30.6004125 4.653145,27.467055 C2.79547295,26.3938115 1.2550422,25.2060176 0.0312009312,23.9430035 C0.0945677909,23.3266081 0.467834473,22.8333518 1.15100098,22.4632346 L37.6323242,0.135593637 L44.5800775,0.135593637 L44.674945,0.135593637 L44.770495,0.135593637 L44.866045,0.135593637 L44.9609125,0.135593637 L45.0564625,0.135593637 L45.15133,0.135593637 L45.24688,0.135593637 L45.3417475,0.135593637 L45.4372975,0.135593637 L45.5328475,0.135593637 L45.627715,0.135593637 L45.723265,0.135593637 L45.818815,0.135593637 L45.9136825,0.135593637 L46.0092325,0.135593637 L46.1041,0.135593637 L46.19965,0.135593637 L46.2952,0.135593637 L46.3900675,0.135593637 L46.4856175,0.135593637 L46.5811675,0.135593637 L46.676035,0.135593637 L46.771585,0.135593637 L46.867135,0.135593637 L46.9620025,0.135593637 L47.0575525,0.135593637 L47.1531025,0.135593637 L47.24797,0.135593637 L47.34352,0.135593637 L47.43907,0.135593637 L47.5339375,0.135593637 L47.6294875,0.135593637 L47.724355,0.135593637 L47.819905,0.135593637 L47.915455,0.135593637 L48.0103225,0.135593637 L48.1058725,0.135593637 L48.2014225,0.135593637 L48.29629,0.135593637 L48.3911575,0.135593637 L48.48739,0.135593637 L48.581575,0.135593637 L48.677125,0.135593637 L48.772675,0.135593637 L48.8675425,0.135593637 L48.9630925,0.135593637 L49.0586425,0.135593637 L49.15351,0.135593637 L49.24906,0.135593637 L49.34461,0.135593637 L49.4394775,0.135593637 L49.5350275,0.135593637 L49.629895,0.135593637 L49.725445,0.135593637 L49.820995,0.135593637 L49.9158625,0.135593637 L50.0114125,0.135593637 L50.1069625,0.135593637 L50.20183,0.135593637 L50.29738,0.135593637 L50.39293,0.135593637 L50.4877975,0.135593637 L50.5833475,0.135593637 L50.6788975,0.135593637 L50.773765,0.135593637 L50.869315,0.135593637 L50.964865,0.135593637 L51.0597325,0.135593637 L51.1552825,0.135593637 L51.25015,0.135593637 L51.3457,0.135593637 L51.44125,0.135593637 L51.5361175,0.135593637 L51.6316675,0.135593637 L51.7272175,0.135593637 L51.822085,0.135593637 L51.917635,0.135593637 L52.013185,0.135593637 L52.1080525,0.135593637 L52.2036025,0.135593637 L52.29847,0.135593637 L52.39402,0.135593637 L52.4888875,0.135593637 L52.5844375,0.135593637 L52.679305,0.135593637 L52.774855,0.135593637 L52.870405,0.135593637 L52.9652725,0.135593637 L53.0608225,0.135593637 L53.15569,0.135593637 L53.25124,0.135593637 L53.34679,0.135593637 L53.4416575,0.135593637 L53.5372075,0.135593637 L53.6327575,0.135593637 L53.727625,0.135593637 L53.823175,0.135593637 L53.918725,0.135593637 L54.0135925,0.135593637 L54.1091425,0.135593637 L54.2046925,0.135593637 L54.29956,0.135593637 L54.39511,0.135593637 L54.49066,0.135593637 L54.5855275,0.135593637 L54.6810775,0.135593637 L54.7766275,0.135593637 L54.871495,0.135593637 L54.967045,0.135593637 L55.0619125,0.135593637 L55.1574625,0.135593637 L55.2530125,0.135593637 L55.34788,0.135593637 L55.44343,0.135593637 L55.53898,0.135593637 L55.6338475,0.135593637 L55.7293975,0.135593637 L55.824265,0.135593637 L55.9191325,0.135593637 L56.0146825,0.135593637 L56.1102325,0.135593637 L56.2051,0.135593637 L56.30065,0.135593637 L56.3962,0.135593637 L56.4910675,0.135593637 L56.5866175,0.135593637 L56.681485,0.135593637 L56.777035,0.135593637 L56.872585,0.135593637 L56.9674525,0.135593637 L57.0630025,0.135593637 L57.1585525,0.135593637 L57.25342,0.135593637 L57.34897,0.135593637 L57.44452,0.135593637 L57.5393875,0.135593637 L57.6349375,0.135593637 L57.7304875,0.135593637 L57.825355,0.135593637 L57.920905,0.135593637 L58.016455,0.135593637 L58.1113225,0.135593637 L58.2068725,0.135593637 L58.3024225,0.135593637 L58.39729,0.135593637 L58.49284,0.135593637 L58.5877075,0.135593637 L58.6832575,0.135593637 L58.7788075,0.135593637 L58.873675,0.135593637 L58.969225,0.135593637 L59.064775,0.135593637 L59.1596425,0.135593637 L59.2551925,0.135593637 L59.3507425,0.135593637 L59.4449275,0.135593637 L59.5404775,0.135593637 L59.6360275,0.135593637 L59.730895,0.135593637 L59.826445,0.135593637 L59.921995,0.135593637 L60.0168625,0.135593637 L60.1124125,0.135593637 L60.2079625,0.135593637 L60.30283,0.135593637 L60.39838,0.135593637 L60.4932475,0.135593637 L60.5887975,0.135593637 L60.6843475,0.135593637 L60.779215,0.135593637 L60.874765,0.135593637 L60.970315,0.135593637 L61.0651825,0.135593637 L61.1607325,0.135593637 L61.2562825,0.135593637 L61.35115,0.135593637 L61.4467,0.135593637 L61.54225,0.135593637 L61.6371175,0.135593637 L61.7326675,0.135593637 L61.8282175,0.135593637 L61.923085,0.135593637 L62.018635,0.135593637 L62.1135025,0.135593637 L62.2090525,0.135593637 L62.3046025,0.135593637 L62.39947,0.135593637 L62.49502,0.135593637" id="path-1"></path>
        <linearGradient x1="50%" y1="-123.963644%" x2="50%" y2="100%" id="linearGradient-3">
            <stop stop-color="#FB9EAF" offset="0%"></stop>
            <stop stop-color="#D6394C" offset="100%"></stop>
        </linearGradient>
        <linearGradient x1="96.8551938%" y1="13.6537107%" x2="50%" y2="91.5075508%" id="linearGradient-4">
            <stop stop-color="#FB9EAF" offset="0%"></stop>
            <stop stop-color="#D4273D" offset="100%"></stop>
        </linearGradient>
        <linearGradient x1="50%" y1="-123.963644%" x2="50%" y2="100%" id="linearGradient-5">
            <stop stop-color="#FB9EAF" offset="0%"></stop>
            <stop stop-color="#D6394C" offset="100%"></stop>
        </linearGradient>
        <path d="M19.643715,0.075075 C12.5709675,0.075075 5.5057275,1.638 0.1248975,4.7645325 L0.1248975,4.7645325 L8.2125225,9.4341975 C14.5379325,5.7582525 24.81843,5.7609825 31.1800125,9.4341975 L31.1800125,9.4341975 L39.2157675,4.7645325 C33.8008125,1.6386825 26.71851,0.075075 19.643715,0.075075 Z" id="path-6"></path>
        <linearGradient x1="50%" y1="0%" x2="50%" y2="100%" id="linearGradient-8">
            <stop stop-color="#FB9EAF" offset="0%"></stop>
            <stop stop-color="#F66577" offset="100%"></stop>
        </linearGradient>
        <linearGradient x1="50%" y1="-115.890917%" x2="50%" y2="100%" id="linearGradient-9">
            <stop stop-color="#FBD1D7" offset="0%"></stop>
            <stop stop-color="#F5A4AE" offset="100%"></stop>
        </linearGradient>
        <linearGradient x1="50%" y1="-115.890917%" x2="50%" y2="100%" id="linearGradient-10">
            <stop stop-color="#FBD1D7" offset="0%"></stop>
            <stop stop-color="#F5A4AE" offset="100%"></stop>
        </linearGradient>
        <linearGradient x1="50%" y1="-115.890917%" x2="78.0700124%" y2="100%" id="linearGradient-11">
            <stop stop-color="#FBD1D7" offset="0%"></stop>
            <stop stop-color="#E17986" offset="100%"></stop>
        </linearGradient>
        <path d="M0.435435,4.87305 C6.7970175,8.546265 6.8352375,14.5010775 0.5098275,18.17634 L0.5098275,18.17634 L8.5974525,22.846005 C19.359795,16.591575 19.3318125,6.455085 8.5032675,0.203385 L8.5032675,0.203385 L0.435435,4.87305 Z" id="path-12"></path>
        <linearGradient x1="50%" y1="0%" x2="50%" y2="100%" id="linearGradient-14">
            <stop stop-color="#FBD1D7" offset="0%"></stop>
            <stop stop-color="#F5A4AE" offset="100%"></stop>
        </linearGradient>
        <path d="M4.6020975,0.1499925 C4.45263,0.2400825 4.325685,0.33768 4.183725,0.4298175 L4.183725,0.4298175 C3.9858,0.55881 3.7830975,0.685755 3.599505,0.8188425 L3.599505,0.8188425 C3.438435,0.93555 3.2944275,1.0577175 3.1442775,1.17852 L3.1442775,1.17852 C2.9750175,1.31502 2.802345,1.4494725 2.646735,1.589385 L2.646735,1.589385 C2.61534,1.6173675 2.57712,1.643985 2.5464075,1.6719675 L2.5464075,1.6719675 C2.33688,1.865115 2.1450975,2.0623575 1.9621875,2.2616475 L1.9621875,2.2616475 C1.92465,2.3025975 1.89189,2.3449125 1.8557175,2.386545 L1.8557175,2.386545 C1.7472,2.5087125 1.6373175,2.63088 1.5390375,2.755095 L1.5390375,2.755095 C1.4612325,2.8540575 1.3929825,2.954385 1.3220025,3.0533475 L1.3220025,3.0533475 C1.295385,3.0902025 1.2674025,3.1256925 1.243515,3.161865 L1.243515,3.161865 C1.1145225,3.3481875 0.9930375,3.535875 0.885885,3.72561 L0.885885,3.72561 C0.8497125,3.7890825 0.820365,3.852555 0.787605,3.9160275 L0.787605,3.9160275 C0.7664475,3.956295 0.74529,3.9965625 0.724815,4.03683 L0.724815,4.03683 C0.6231225,4.2395325 0.5303025,4.4436 0.45318,4.6490325 L0.45318,4.6490325 C0.43407,4.6995375 0.42042,4.74936 0.402675,4.7991825 L0.402675,4.7991825 C0.3897075,4.838085 0.3774225,4.8769875 0.364455,4.9152075 L0.364455,4.9152075 C0.2955225,5.130195 0.2340975,5.3465475 0.1904175,5.564265 L0.1904175,5.564265 C0.181545,5.60658 0.1781325,5.6495775 0.170625,5.6918925 L0.170625,5.6918925 C0.1631175,5.730795 0.1576575,5.769015 0.151515,5.8079175 L0.151515,5.8079175 C0.1167075,6.0372375 0.09009,6.2665575 0.0839475,6.4958775 L0.0839475,6.4958775 C0.0819,6.5436525 0.0819,6.5914275 0.0819,6.63852 L0.0819,6.63852 L0.0484575,14.81487 C0.04914,14.537775 0.0757575,14.2613625 0.118755,13.9842675 L0.118755,13.9842675 C0.12558,13.9460475 0.13104,13.907145 0.1371825,13.868925 L0.1371825,13.868925 C0.18291,13.60821 0.24843,13.3495425 0.331695,13.0929225 L0.331695,13.0929225 C0.3446625,13.0533375 0.356265,13.0151175 0.3705975,12.9755325 L0.3705975,12.9755325 C0.45864,12.719595 0.566475,12.46434 0.692055,12.2124975 L0.692055,12.2124975 C0.71253,12.1729125 0.733005,12.132645 0.7541625,12.0923775 L0.7541625,12.0923775 C0.88725,11.8384875 1.0380825,11.5859625 1.20939,11.3388975 L1.20939,11.3388975 C1.23396,11.3020425 1.2619425,11.2665525 1.2878775,11.2296975 L1.2878775,11.2296975 C1.44963,11.0044725 1.6291275,10.78266 1.8215925,10.5635775 L1.8215925,10.5635775 C1.8584475,10.5226275 1.8912075,10.47963 1.9294275,10.437315 L1.9294275,10.437315 C2.138955,10.2100425 2.36964,9.9855 2.613975,9.7664175 L2.613975,9.7664175 C2.76822,9.626505 2.941575,9.49137 3.110835,9.3555525 L3.110835,9.3555525 C3.260985,9.23475 3.405675,9.1125825 3.5660625,8.9951925 L3.5660625,8.9951925 C3.7489725,8.8627875 3.951675,8.73516 4.1489175,8.60685 L4.1489175,8.60685 C4.3536675,8.4737625 4.5474975,8.3372625 4.7672625,8.2089525 L4.7672625,8.2089525 L4.8000225,0.0326025 C4.7331375,0.0721875 4.6676175,0.11109 4.6020975,0.1499925" id="path-15"></path>
        <linearGradient x1="50%" y1="-38.8106345%" x2="50%" y2="100%" id="linearGradient-17">
            <stop stop-color="#DC5B72" offset="0%"></stop>
            <stop stop-color="#81111E" offset="100%"></stop>
        </linearGradient>
        <linearGradient x1="50%" y1="0%" x2="50%" y2="100%" id="linearGradient-18">
            <stop stop-color="#DC5B72" offset="0%"></stop>
            <stop stop-color="#B72E3E" offset="100%"></stop>
        </linearGradient>
        <path d="M8.409765,22.78374 L16.4775975,18.114075 C10.116015,14.44086 10.08189,8.4833175 16.4025225,4.8101025 L16.4025225,4.8101025 L8.3148975,0.14112 C-2.4426675,6.3935025 -2.41878,16.53204 8.409765,22.78374" id="path-19"></path>
        <linearGradient x1="50%" y1="0%" x2="50%" y2="100%" id="linearGradient-21">
            <stop stop-color="#DC5B72" offset="0%"></stop>
            <stop stop-color="#B72E3E" offset="100%"></stop>
        </linearGradient>
        <linearGradient x1="50%" y1="-38.8106345%" x2="50%" y2="100%" id="linearGradient-22">
            <stop stop-color="#DC5B72" offset="0%"></stop>
            <stop stop-color="#81111E" offset="100%"></stop>
        </linearGradient>
        <linearGradient x1="50%" y1="0%" x2="50%" y2="100%" id="linearGradient-23">
            <stop stop-color="#F3699B" offset="0%"></stop>
            <stop stop-color="#D42650" offset="100%"></stop>
        </linearGradient>
        <path d="M8.2875975,0.1049475 L0.219765,4.7746125 C11.0476275,11.0263125 28.551705,11.0263125 39.3099525,4.7746125 L39.3099525,4.7746125 L31.25577,0.1049475 C24.934455,3.7781625 14.6498625,3.7781625 8.2875975,0.1049475" id="path-24"></path>
        <linearGradient x1="50%" y1="0%" x2="50%" y2="100%" id="linearGradient-26">
            <stop stop-color="#EC4E88" offset="0%"></stop>
            <stop stop-color="#D42650" offset="100%"></stop>
        </linearGradient>
        <path d="M5.7423975,0.14112 L13.8300225,4.810785 L0.15204,4.810785" id="path-27"></path>
        <path d="M15.42177,4.7746125 L0.0102375,4.7746125 L0.0102375,2.55444 C0.0102375,2.55444 3.99672,2.0685 7.36827,0.1049475 L15.42177,4.7746125 Z" id="path-29"></path>
        <linearGradient x1="38.0154693%" y1="54.5903923%" x2="209.590767%" y2="16.0028529%" id="linearGradient-31">
            <stop stop-color="#000000" stop-opacity="0" offset="0%"></stop>
            <stop stop-color="#000000" offset="100%"></stop>
        </linearGradient>
        <path d="M31.1800125,4.55826 L38.9891775,0.0203175 C39.06357,0.06195 39.141375,0.101535 39.2157675,0.1445325 L31.1800125,4.8141975 C24.81843,1.1409825 14.5379325,1.1382525 8.2125225,4.8141975 L0.1248975,0.1445325 C0.19929,0.101535 0.277095,0.06195 0.3514875,0.019635 L8.2125225,4.55826 C14.5379325,0.882315 24.81843,0.885045 31.1800125,4.55826 Z" id="path-32"></path>
        <path d="M5.2177125,6.768195 C5.14605,4.4060625 3.5565075,2.05485 0.4347525,0.25305 L0.67431,0.1145025" id="path-34"></path>
        <path d="M8.09677,11.6345775 C13.40935,8.54763 16.0867975,4.51542 16.1413975,0.470925 C16.2151075,4.612335 13.536295,8.764665 8.09677,11.926005 L0.0098275,7.25634 C0.09514,7.2072 0.16612,7.1532825 0.2487025,7.10346" id="path-36"></path>
        <path d="M0.0935025,7.05432 C0.0211575,4.6662525 1.5117375,2.2720425 4.5611475,0.4197375 L4.8000225,0.558285" id="path-38"></path>
        <path d="M8.409765,11.41413 L16.23804,6.883695 C16.3206225,6.9342 16.392285,6.987435 16.4775975,7.036575 L8.409765,11.70624 C2.925195,8.53944 0.2177175,4.3768725 0.2736825,0.22659 C0.3460275,4.279275 3.053505,8.322405 8.409765,11.41413 Z" id="path-40"></path>
        <path d="M0.3419325,0.451815 C11.1390825,6.610695 28.46025,6.610695 39.1884675,0.451815 L39.30927,0.5221125 C28.551705,6.7738125 11.0476275,6.7738125 0.219765,0.5221125" id="path-42"></path>
    </defs>
    <g id="Product-page" stroke="none" stroke-width="1" fill="none" fill-rule="evenodd">
        <g id="product_mobile" transform="translate(-22.000000, -5951.000000)">
            <g id="run-t-s-mob-3" transform="translate(21.000000, 5875.000000)">
                <g id="Group-5">
                    <g id="!!!!1">
                        <g id="Group-29-Copy" transform="translate(279.000000, 154.000000) scale(-1, 1) translate(-279.000000, -154.000000) translate(48.000000, 0.000000)" stroke="#95A0DD">
                            <path d="M17,15 L191.622329,117.946173 C207.184735,127.120774 216.587853,143.976692 216.219303,162.038418 L215.387926,202.782085 C215.033333,220.159834 223.728942,236.474863 238.352687,245.869433 L319.5,298 L319.5,298" id="Path-14-Copy-12" stroke-opacity="0.237489073" stroke-width="34.5"></path>
                            <path d="M17,15 L191.622329,117.946173 C207.184735,127.120774 216.587853,143.976692 216.219303,162.038418 L215.387926,202.782085 C215.033333,220.159834 223.728942,236.474863 238.352687,245.869433 L319.5,298 L319.5,298" id="Path-14-Copy-13" stroke-opacity="0.5" stroke-width="1.5" stroke-linecap="round" stroke-linejoin="round" stroke-dasharray="27.5,3"></path>
                            <path d="M7,18 L190.783444,126.639234 C201.950906,133.240615 208.775339,145.27338 208.709292,158.245891 L208.456719,207.854854 C208.369829,224.921265 216.993871,240.853206 231.330715,250.111975 L314,303.5 L314,303.5" id="Path-14-Copy-14" stroke-opacity="0.5" stroke-width="1.5" stroke-linecap="round" stroke-linejoin="round" stroke-dasharray="27.5,3"></path>
                            <path d="M0,22.5 L185.510584,132.160192 C195.608269,138.129199 201.778461,149.00976 201.717497,160.739576 L201.45536,211.175758 C201.369002,227.791299 209.542353,243.364298 223.265743,252.731915 L303.5,307.5 L303.5,307.5" id="Path-14-Copy-15" stroke-opacity="0.5" stroke-width="1.5" stroke-linecap="round" stroke-linejoin="round" stroke-dasharray="27.5,3"></path>
                            <path d="M26,11.5 L199.866011,114.000296 C215.829311,123.411238 225.278588,140.87915 224.419649,159.390092 L222.663134,197.244628 C221.830948,215.179015 230.678125,232.18282 245.842486,241.794112 L329,294.5 L329,294.5" id="Path-14-Copy-16" stroke-opacity="0.5" stroke-width="1.5" stroke-linecap="round" stroke-linejoin="round" stroke-dasharray="27.5,3"></path>
                            <path d="M33,8 L207.312718,110.763646 C223.039811,120.035336 232.463281,137.141772 231.895949,155.389616 L230.470739,201.230573 C230.065514,214.264353 236.551155,226.549093 247.542161,233.566314 L337.5,291 L337.5,291" id="Path-14-Copy-17" stroke-opacity="0.5" stroke-width="1.5" stroke-linecap="round" stroke-linejoin="round" stroke-dasharray="27.5,3"></path>
                            <path d="M17,15 L203.916024,125.406104 C209.763552,128.860076 216.253433,131.086577 222.98978,131.949788 L337.846545,146.6678 C344.786907,147.557154 351.463334,149.893308 357.444059,153.525182 L459.5,215.5 L459.5,215.5" id="Path-14-Copy-18" stroke-opacity="0.237489073" stroke-width="34.5"></path>
                            <path d="M17,15 L203.834594,125.357886 C209.734727,128.842927 216.288246,131.077978 223.088307,131.924289 L337.747633,146.194364 C344.75184,147.066082 351.492124,149.410862 357.525103,153.074464 L459.5,215 L459.5,215" id="Path-14-Copy-19" stroke-opacity="0.5" stroke-width="1.5" stroke-linecap="round" stroke-linejoin="round" stroke-dasharray="27.5,3"></path>
                            <path d="M13,21.5 L199.916024,131.906104 C205.763552,135.360076 212.253433,137.586577 218.98978,138.449788 L333.846545,153.1678 C340.786907,154.057154 347.463334,156.393308 353.444059,160.025182 L455.5,222 L455.5,222" id="Path-14-Copy-20" stroke-opacity="0.5" stroke-width="1.5" stroke-linecap="round" stroke-linejoin="round" stroke-dasharray="27.5,3"></path>
                            <path d="M13,30 L199.916024,140.406104 C205.763552,143.860076 212.253433,146.086577 218.98978,146.949788 L333.846545,161.6678 C340.786907,162.557154 347.463334,164.893308 353.444059,168.525182 L455.5,230.5 L455.5,230.5" id="Path-14-Copy-21" stroke-opacity="0.5" stroke-width="1.5" stroke-linecap="round" stroke-linejoin="round" stroke-dasharray="27.5,3"></path>
                            <path d="M19.5,7.5 L206.416024,117.906104 C212.263552,121.360076 218.753433,123.586577 225.48978,124.449788 L340.346545,139.1678 C347.286907,140.057154 353.963334,142.393308 359.944059,146.025182 L462,208 L462,208" id="Path-14-Copy-22" stroke-opacity="0.5" stroke-width="1.5" stroke-linecap="round" stroke-linejoin="round" stroke-dasharray="27.5,3"></path>
                            <path d="M19.5,0 L208.011413,111.348456 C212.806386,114.180713 218.128088,116.006443 223.651893,116.714277 L340.346545,131.6678 C347.286907,132.557154 353.963334,134.893308 359.944059,138.525182 L462,200.5 L462,200.5" id="Path-14-Copy-23" stroke-opacity="0.5" stroke-width="1.5" stroke-linecap="round" stroke-linejoin="round" stroke-dasharray="27.5,3"></path>
                        </g>
                        <g id="Group-5-Copy-5" transform="translate(0.000000, 155.000000)">
                            <path d="M52.5415161,21.6615319 L2.98570307,49.7376203 C2.02465703,50.2821056 1.68696785,51.5025799 2.23145319,52.463626 C2.40177511,52.7642534 2.64707599,53.0156274 2.94344884,53.1932492 L77.0469841,97.6048925 C77.9705336,98.1583932 79.1198758,98.174517 80.0585887,97.6471416 L129.527816,69.8549892 C130.490817,69.3139687 130.832899,68.0947185 130.291879,67.1317177 C130.124541,66.833862 129.883693,66.5838377 129.5923,66.4054851 L56.6014486,21.7301137 C55.361204,20.9709995 53.8066923,20.9447401 52.5415161,21.6615319 Z" id="Path-8-Copy-7" fill-opacity="0.269831731" fill="#000000" transform="translate(66.250000, 59.500000) scale(-1, 1) translate(-66.250000, -59.500000) "></path>
                            <path d="M79.9584839,16.6615319 L124.825433,42.0807867 L130.530396,41.3276978 L130.530396,46.3913574 C130.542524,46.7550646 130.460164,47.1254105 130.268547,47.463626 C130.098225,47.7642534 129.852924,48.0156274 129.556551,48.1932492 L55.4530159,92.6048925 C54.5294664,93.1583932 53.3801242,93.174517 52.4414113,92.6471416 L2.9721843,64.8549892 C2.23098249,64.4385769 1.85761648,63.6203772 1.97163286,62.8264776 L1.97167969,58.3139648 L9.60543289,57.3047867 L75.8985514,16.7301137 C77.138796,15.9709995 78.6933077,15.9447401 79.9584839,16.6615319 Z" id="Combined-Shape" fill="#263144"></path>
                            <path d="M52.5415161,11.6615319 L2.98570307,39.7376203 C2.02465703,40.2821056 1.68696785,41.5025799 2.23145319,42.463626 C2.40177511,42.7642534 2.64707599,43.0156274 2.94344884,43.1932492 L77.0469841,87.6048925 C77.9705336,88.1583932 79.1198758,88.174517 80.0585887,87.6471416 L129.527816,59.8549892 C130.490817,59.3139687 130.832899,58.0947185 130.291879,57.1317177 C130.124541,56.833862 129.883693,56.5838377 129.5923,56.4054851 L56.6014486,11.7301137 C55.361204,10.9709995 53.8066923,10.9447401 52.5415161,11.6615319 Z" id="Path-8-Copy-3" fill="#3C485E" transform="translate(66.250000, 49.500000) scale(-1, 1) translate(-66.250000, -49.500000) "></path>
                            <g id="Group-74" transform="translate(14.000000, 0.000000)">
                                <g id="Group-8" transform="translate(42.664045, 0.156960)">
                                    <polygon id="Fill-4" fill="#3D5AFE" points="9.267359 33.817451 0.472379 28.739696 0.472379 10.056911 9.267359 14.634801"></polygon>
                                    <polygon id="Fill-5" fill="#334CD7" points="9.265415 33.817505 18.060395 28.739615 18.060395 10.056965 9.265415 15.13472"></polygon>
                                    <polygon id="Fill-1" fill="#6F9AF1" points="9.249917 15.134801 0.454802 10.056911 9.195107 5.010881 17.989952 10.088636"></polygon>
                                    <polygon id="Fill-11" fill="#3D5AFE" points="12.171047 5.539946 12.171047 16.658141 12.171047 35.340926 20.946047 40.418681 20.946047 10.117836"></polygon>
                                    <polygon id="Fill-12" fill="#334CD7" points="20.95385 10.617755 20.91794 40.418735 29.72102 35.340845 29.72102 5.54"></polygon>
                                    <polygon id="Fill-18" fill="#3D5AFE" points="32.2194785 47.4179045 23.4244985 42.3401495 23.4244985 23.6574995 32.2194785 28.2352545"></polygon>
                                    <polygon id="Fill-19" fill="#334CD7" points="32.17451 47.417945 40.96949 42.34019 40.96949 23.657405 32.17451 28.735295"></polygon>
                                    <polygon id="Fill-22" fill="#6F9AF1" points="43.990115 42.80243 35.195 37.724675 43.93517 32.678645 52.730285 37.7564"></polygon>
                                    <polygon id="Fill-25" fill="#334CD7" points="43.943945 42.823625 43.943945 54.678515 52.738925 49.294985 52.738925 37.74587"></polygon>
                                    <polygon id="Fill-8" fill="#6F9AF1" points="12.171047 5.539946 20.966162 10.617836 29.706332 5.571671 20.911352 0.493916"></polygon>
                                    <polygon id="Fill-15" fill="#6F9AF1" points="32.24687 28.719365 23.45189 23.64161 32.19206 18.595445 40.98704 23.6732"></polygon>
                                    <polygon id="Fill-28" fill="#3D5AFE" points="44.031047 54.6570095 44.031047 42.8022545 35.256047 37.7243645 35.256047 49.5792545"></polygon>
                                </g>
                                <polygon id="Fill-29" fill-opacity="0.103638549" fill="#000000" points="76.058217 63.19092 30.987522 37.1694 29.135322 38.238735 1.032912 54.46371 46.103607 80.48523 70.874082 66.184005"></polygon>
                                <polygon id="Fill-31" fill="#CADCF7" points="0 49.679877 46.870515 76.740492 76.09491 59.867787 29.22453 32.807037"></polygon>
                                <path d="M59.664951,64.906365 L60.064686,64.675515 L17.203131,39.929475 L7.212861,45.69735 C7.191531,45.70194 7.169796,45.705585 7.148601,45.71031 L1.679616,48.82773 L44.541306,73.57377 L44.596926,73.6059 L52.137351,69.252285 L59.732991,64.93134 L59.664951,64.906365 Z" id="Fill-32" fill-opacity="0.103638549" fill="#000000"></path>
                                <polygon id="Fill-34" fill="#FFFFFF" points="30.653262 44.3895915 21.648897 39.1908765 26.550207 36.3611415 35.554707 41.5598565"></polygon>
                                <polygon id="Fill-35" fill="#FFFFFF" points="41.9575275 50.9160585 32.9531625 45.7173435 37.8544725 42.8876085 46.8589725 48.0863235"></polygon>
                                <polygon id="Fill-36" fill="#FFFFFF" points="53.2618065 57.4426065 44.2573065 52.2438915 49.1586165 49.4140215 58.1632515 54.6127365"></polygon>
                                <polygon id="Fill-37" fill="#FFFFFF" points="64.5659505 63.969141 55.5615855 58.770426 60.4628955 55.940556 69.4673955 61.139271"></polygon>
                                <polygon id="Fill-38" fill-opacity="0.103638549" fill="#000000" points="29.12463 32.760219 23.733405 35.872914 70.60392 62.933394 75.99501 59.820969"></polygon>
                                <polygon id="Fill-40" fill="#EBF5FF" points="44.7073695 70.975695 1.8458145 46.22952 17.3137095 37.299135 60.1752645 62.04531"></polygon>
                                <g id="Group-73" transform="translate(1.755000, 28.105230)">
                                    <path d="M5.504112,14.9748345 C8.232057,14.3701695 11.448027,14.5418895 13.953492,15.4261395 C14.937372,15.7733595 15.873867,16.2878445 15.999957,16.9481295 C16.129557,17.6266395 15.379362,18.2421045 15.062382,18.8980695 C14.321232,20.4311295 16.331247,22.1741145 19.033947,22.5106695 C22.172697,22.9014945 25.221672,21.6796095 28.423872,21.5921295 C30.148767,21.5450145 31.853412,21.8310795 33.468957,22.1896395 C35.389062,22.6156995 37.467387,23.3141895 37.825407,24.4823445 C38.314647,26.0791245 35.351127,27.2906145 34.580817,28.8454095 C33.746652,30.5284545 36.149247,32.4882495 39.181887,32.5981395 C41.428152,32.6796795 43.911612,31.9342095 45.791352,32.6551095 C46.219032,32.8191345 46.561392,33.0457995 46.940472,33.2457345 C48.381192,34.0064595 50.344092,34.3712295 52.285392,34.4591145 C54.226692,34.5468645 56.170557,34.3798695 58.088637,34.1957295 L42.896682,42.8384295 L0.035262,18.0922545 L5.504112,14.9748345 Z" id="Fill-41" fill-opacity="0.5" fill="#FFFFFF"></path>
                                    <path d="M5.58927,15.283728 C8.06868,14.742513 10.746675,14.811903 13.186935,15.517008 C13.787145,15.690483 14.390055,15.895278 14.929785,16.215228 C15.29955,16.434333 15.79635,16.781823 15.670125,17.276868 C15.53688,17.799048 15.066135,18.199458 14.819895,18.668718 C14.61942,19.051173 14.544495,19.468728 14.61888,19.895193 C14.77035,20.762298 15.48801,21.435543 16.201755,21.881583 C17.221275,22.518378 18.42021,22.808358 19.60956,22.885308 C22.35951,23.063238 25.01847,22.148748 27.739935,21.947598 C29.17917,21.841353 30.61719,21.969603 32.03469,22.225023 C33.263325,22.446288 34.50789,22.709538 35.67402,23.164893 C36.356175,23.431518 37.544445,23.937228 37.559025,24.822423 C37.57131,25.557093 36.77292,26.170668 36.278685,26.603883 C35.60787,27.191808 34.84026,27.757728 34.381665,28.540323 C33.96411,29.253123 34.03431,30.080538 34.488585,30.758778 C35.03385,31.573233 35.917425,32.104593 36.81558,32.450058 C37.98738,32.900823 39.23505,32.971698 40.476645,32.891508 C41.755635,32.809023 43.03989,32.589648 44.32455,32.676723 C44.96337,32.720058 45.574785,32.868693 46.14219,33.170148 C46.67706,33.454323 47.19276,33.744978 47.762055,33.958683 C50.33556,34.924203 53.21997,34.895988 55.92132,34.703478 C56.64465,34.651908 57.366765,34.585218 58.08861,34.516098 C58.49523,34.477083 58.499415,33.835968 58.08861,33.875388 C55.234305,34.148763 52.293735,34.407963 49.46562,33.786018 C48.86352,33.653718 48.26601,33.483483 47.695635,33.248178 C47.122965,33.011928 46.612125,32.656743 46.04337,32.414553 C44.88318,31.920723 43.57611,31.984713 42.346665,32.088933 C40.049505,32.283468 37.385955,32.648103 35.509995,30.958443 C34.986465,30.487023 34.52598,29.775033 34.833915,29.056158 C35.17344,28.263843 36.003015,27.690228 36.632925,27.143073 C37.228545,26.625753 37.959975,26.018793 38.153025,25.213788 C38.36565,24.326163 37.76949,23.606748 37.068165,23.148963 C36.100215,22.517163 34.9191,22.197618 33.80535,21.937878 C32.45346,21.622518 31.07484,21.374928 29.687445,21.293388 C28.289925,21.211443 26.90739,21.360078 25.52985,21.587823 C24.163515,21.813543 22.804875,22.107708 21.42261,22.220163 C20.12148,22.326138 18.78876,22.278483 17.55135,21.827448 C16.71138,21.521403 15.77232,20.988558 15.36867,20.148993 C15.21477,19.828638 15.180075,19.469133 15.30738,19.133928 C15.4953,18.639153 15.917985,18.266013 16.15059,17.793378 C16.377525,17.332758 16.403985,16.831773 16.102395,16.397343 C15.771645,15.921198 15.228,15.615963 14.710275,15.384978 C13.592205,14.886288 12.375855,14.610213 11.166525,14.449023 C9.87336,14.276763 8.560485,14.248953 7.261785,14.377068 C6.64254,14.438223 6.02694,14.533263 5.419035,14.665968 C5.01633,14.753853 5.1867,15.371613 5.58927,15.283728" id="Fill-43" fill="#656F9B"></path>
                                    <path d="M15.6965445,16.380603 C15.2270145,16.651548 14.4634545,16.650333 13.9910895,16.377498 C13.5185895,16.104798 13.5162945,15.663888 13.9856895,15.392808 C14.4552195,15.121728 15.2187795,15.123213 15.6911445,15.395913 C16.1636445,15.668748 16.1660745,16.109523 15.6965445,16.380603" id="Fill-45" fill="#5BF4CE"></path>
                                    <path d="M35.0263845,22.94676 C34.5568545,23.21784 33.7932945,23.216355 33.3209295,22.943655 C32.8484295,22.67082 32.8461345,22.230045 33.3155295,21.9591 C33.7850595,21.687885 34.5486195,21.68937 35.0211195,21.96207 C35.4934845,22.234905 35.4959145,22.67568 35.0263845,22.94676" id="Fill-47" fill="#5BF4CE"></path>
                                    <path d="M20.3365755,22.920786 C19.8670455,23.191866 19.1034855,23.190381 18.6311205,22.917681 C18.1586205,22.644846 18.1563255,22.203936 18.6257205,21.932991 C19.0952505,21.661911 19.8588105,21.663396 20.3311755,21.936096 C20.8036755,22.208931 20.8061055,22.649706 20.3365755,22.920786" id="Fill-49" fill="#5BF4CE"></path>
                                    <path d="M35.869878,31.3229565 C35.400348,31.5940365 34.636788,31.5925515 34.164288,31.3198515 C33.691923,31.0470165 33.689628,30.6061065 34.159023,30.3351615 C34.628553,30.0640815 35.392113,30.0655665 35.864478,30.3382665 C36.336978,30.6111015 36.339408,31.0518765 35.869878,31.3229565" id="Fill-51" fill="#5BF4CE"></path>
                                    <path d="M47.435976,33.508269 C46.966446,33.779349 46.202886,33.777999 45.730521,33.505299 C45.258021,33.232464 45.255726,32.791554 45.725121,32.520609 C46.194786,32.249529 46.958211,32.250879 47.430711,32.523579 C47.903076,32.796414 47.905641,33.237189 47.435976,33.508269" id="Fill-53" fill="#5BF4CE"></path>
                                    <polygon id="Fill-55" fill="#3D5AFE" points="69.2179155 30.277098 22.3476705 3.216348 27.7387605 0.103788 74.6092755 27.164403"></polygon>
                                    <polygon id="Fill-57" fill="#FFFFFF" points="35.200548 7.0207155 27.524988 2.5892055 28.191213 2.2044555 35.866908 6.6361005"></polygon>
                                    <polygon id="Fill-59" fill="#FFFFFF" points="29.3081355 5.5996515 25.8093405 3.5796465 26.4757005 3.1950315 29.9744955 5.2149015"></polygon>
                                    <polygon id="Fill-61" fill="#FFFFFF" points="46.2000105 13.371318 38.5244505 8.939673 39.1906755 8.555058 46.8663705 12.986568"></polygon>
                                    <polygon id="Fill-63" fill="#FFFFFF" points="40.3076115 11.9501865 36.8089515 9.9301815 37.4751765 9.5455665 40.9739715 11.5654365"></polygon>
                                    <polygon id="Fill-65" fill="#FFFFFF" points="57.7852245 20.060082 50.1096645 15.628437 50.7758895 15.243822 58.4515845 19.675332"></polygon>
                                    <polygon id="Fill-67" fill="#FFFFFF" points="51.8928255 18.638883 48.3941655 16.618878 49.0603905 16.234263 52.5591855 18.254133"></polygon>
                                    <polygon id="Fill-69" fill="#FFFFFF" points="68.7847005 26.410617 61.1091405 21.978972 61.7753655 21.594222 69.4510605 26.025867"></polygon>
                                    <polygon id="Fill-71" fill="#FFFFFF" points="62.892288 24.989418 59.393628 22.969413 60.059853 22.584798 63.558648 24.604668"></polygon>
                                </g>
                            </g>
                        </g>
                    </g>
                    <g id="Group-5-Copy-6" transform="translate(134.000000, 251.000000)">
                        <path d="M52.5415161,11.1615319 L2.98570307,39.2376203 C2.02465703,39.7821056 1.68696785,41.0025799 2.23145319,41.963626 C2.40177511,42.2642534 2.64707599,42.5156274 2.94344884,42.6932492 L77.0469841,87.1048925 C77.9705336,87.6583932 79.1198758,87.674517 80.0585887,87.1471416 L129.527816,59.3549892 C130.490817,58.8139687 130.832899,57.5947185 130.291879,56.6317177 C130.124541,56.333862 129.883693,56.0838377 129.5923,55.9054851 L56.6014486,11.2301137 C55.361204,10.4709995 53.8066923,10.4447401 52.5415161,11.1615319 Z" id="Path-8-Copy-7" fill-opacity="0.269831731" fill="#000000" transform="translate(66.250000, 49.000000) scale(-1, 1) translate(-66.250000, -49.000000) "></path>
                        <path d="M79.9584839,6.16153187 L124.825433,31.5807867 L130.530396,30.8276978 L130.530396,35.8913574 C130.542524,36.2550646 130.460164,36.6254105 130.268547,36.963626 C130.098225,37.2642534 129.852924,37.5156274 129.556551,37.6932492 L55.4530159,82.1048925 C54.5294664,82.6583932 53.3801242,82.674517 52.4414113,82.1471416 L2.9721843,54.3549892 C2.23098249,53.9385769 1.85761648,53.1203772 1.97163286,52.3264776 L1.97167969,47.8139648 L9.60543289,46.8047867 L75.8985514,6.23011366 C77.138796,5.47099947 78.6933077,5.44474012 79.9584839,6.16153187 Z" id="Combined-Shape" fill="#263144"></path>
                        <path d="M52.5415161,1.16153187 L2.98570307,29.2376203 C2.02465703,29.7821056 1.68696785,31.0025799 2.23145319,31.963626 C2.40177511,32.2642534 2.64707599,32.5156274 2.94344884,32.6932492 L77.0469841,77.1048925 C77.9705336,77.6583932 79.1198758,77.674517 80.0585887,77.1471416 L129.527816,49.3549892 C130.490817,48.8139687 130.832899,47.5947185 130.291879,46.6317177 C130.124541,46.333862 129.883693,46.0838377 129.5923,45.9054851 L56.6014486,1.23011366 C55.361204,0.47099947 53.8066923,0.444740119 52.5415161,1.16153187 Z" id="Path-8-Copy-3" fill="#3C485E" transform="translate(66.250000, 39.000000) scale(-1, 1) translate(-66.250000, -39.000000) "></path>
                        <g id="Group-73" transform="translate(2.000000, 7.000000)">
                            <g id="Group-3" transform="translate(0.000000, 16.305198)">
                                <mask id="mask-2" fill="white">
                                    <use xlink:href="#path-1"></use>
                                </mask>
                                <use id="Clip-2" fill-opacity="0.103638549" fill="#000000" xlink:href="#path-1"></use>
                            </g>
                            <polygon id="Fill-10" fill="url(#linearGradient-3)" points="43.0021375 21.210168 51.0897625 25.8791505 51.1225225 9.0168955 43.0348975 4.8472305"></polygon>
                            <path d="M62.96185,6.271198 C62.6649625,6.267103 62.36944,6.269833 62.0725525,6.2746105 C62.0056675,6.276658 61.9387825,6.2759755 61.8718975,6.275293 C61.79068,6.275293 61.7094625,6.2746105 61.628245,6.2773405 C61.540885,6.2800705 61.45489,6.2909905 61.3682125,6.294403 C61.000345,6.310783 60.6365725,6.3374005 60.2707525,6.3674305 C60.1233325,6.3797155 59.9745475,6.383128 59.8284925,6.3974605 C59.758195,6.4042855 59.68858,6.4152055 59.6176,6.4220305 C59.5084,6.433633 59.3998825,6.448648 59.29,6.4616155 C58.911895,6.5066605 58.53652,6.5598955 58.1631925,6.6213205 C58.0731025,6.635653 57.9816475,6.649303 57.890875,6.664318 C57.847195,6.672508 57.8014675,6.677968 57.757105,6.686158 C57.579655,6.717553 57.407665,6.762598 57.2308975,6.798088 C56.9319625,6.8588305 56.6316625,6.918208 56.337505,6.989188 C56.12047,7.0417405 55.91026,7.103848 55.695955,7.1618605 C55.41613,7.2383005 55.136305,7.314058 54.863305,7.3993705 C54.803245,7.4184805 54.7411375,7.4321305 54.683125,7.4512405 C54.3480175,7.559758 54.0190525,7.6764655 53.6955475,7.799998 C53.6491375,7.817743 53.604775,7.8375355 53.55973,7.855963 C53.203465,7.9945105 52.856755,8.143978 52.51687,8.300953 C52.417225,8.3466805 52.31758,8.393773 52.2199825,8.4408655 C51.843925,8.623093 51.475375,8.811463 51.1225225,9.0168955 L51.0897625,25.8791505 C51.4419325,25.6744005 51.8098,25.4860305 52.185175,25.3044855 C52.2841375,25.2567105 52.384465,25.209618 52.4847925,25.1638905 C52.8233125,25.0069155 53.1700225,24.8581305 53.52424,24.7189005 C53.5713325,24.7011555 53.6163775,24.6806805 53.6627875,24.6629355 C54.0422575,24.5182455 54.43333,24.3872055 54.82918,24.2629905 C55.103545,24.176313 55.3840525,24.101238 55.66456,24.024798 C55.8768175,23.9667855 56.08771,23.904678 56.304745,23.8521255 C56.599585,23.780463 56.899885,23.7210855 57.200185,23.660343 C57.418585,23.616663 57.63562,23.566158 57.85675,23.5272555 C57.948205,23.511558 58.041025,23.4985905 58.1317975,23.482893 C58.5044425,23.422833 58.8798175,23.3702805 59.2565575,23.324553 C59.3657575,23.3115855 59.47564,23.297253 59.5855225,23.2856505 C59.8011925,23.261763 60.020275,23.2487955 60.2379925,23.230368 C60.60313,23.1996555 60.9682675,23.1737205 61.3354525,23.1573405 C61.56955,23.1477855 61.80433,23.143008 62.03911,23.1382305 C62.3359975,23.1327705 62.632885,23.1300405 62.9284075,23.1341355 C63.1768375,23.137548 63.4252675,23.144373 63.6723325,23.155293 C63.94738,23.1655305 64.221745,23.179863 64.4954275,23.198973 C64.7465875,23.2160355 64.997065,23.237193 65.2461775,23.2610805 C65.5178125,23.2870155 65.7874,23.317728 66.056305,23.3525355 C66.2999575,23.383248 66.542245,23.417373 66.7831675,23.4549105 C67.071865,23.4999555 67.358515,23.549778 67.6438,23.604378 C67.869025,23.6473755 68.09425,23.691738 68.316745,23.7401955 C68.6573125,23.8152705 68.9917375,23.8999005 69.32548,23.987943 C69.54115,24.045273 69.75955,24.098508 69.97249,24.1619805 C70.08715,24.195423 70.200445,24.2315955 70.3144225,24.267768 C70.64953,24.372873 70.9791775,24.4854855 71.3026825,24.606288 C71.396185,24.640413 71.49037,24.6724905 71.58319,24.708663 C71.8787125,24.821958 72.1639975,24.950268 72.4492825,25.0765305 C72.5871475,25.1379555 72.72979,25.193238 72.86629,25.257393 C73.27579,25.452588 73.67437,25.6580205 74.057935,25.8791505 L74.0900125,9.0168955 C73.7078125,8.7957655 73.30855,8.5896505 72.8983675,8.3944555 C72.7632325,8.3303005 72.62059,8.275018 72.4820425,8.213593 C72.2390725,8.104393 71.9988325,7.992463 71.74699,7.892818 C71.7039925,7.876438 71.65963,7.8621055 71.6166325,7.8457255 C71.524495,7.8102355 71.428945,7.7774755 71.3368075,7.742668 C71.011255,7.6232305 70.68229,7.510618 70.347865,7.4048305 C70.2338875,7.3693405 70.1205925,7.3324855 70.00525,7.299043 C69.9281275,7.2751555 69.85237,7.2492205 69.774565,7.226698 C69.6387475,7.188478 69.496105,7.1618605 69.3589225,7.1250055 C69.0258625,7.0362805 68.690755,6.952333 68.349505,6.8779405 C68.259415,6.858148 68.172055,6.830848 68.0799175,6.811738 C67.94683,6.7837555 67.8110125,6.766693 67.67656,6.7414405 C67.391275,6.687523 67.1053075,6.6363355 66.8159275,6.591973 C66.6999025,6.574228 66.5866075,6.548293 66.4699,6.531913 C66.3436375,6.514168 66.21601,6.5052955 66.0897475,6.4889155 C65.821525,6.4547905 65.551255,6.4247605 65.2803025,6.3988255 C65.149945,6.385858 65.0223175,6.3660655 64.8912775,6.3551455 C64.7711575,6.344908 64.6483075,6.3442255 64.5281875,6.3360355 C64.2551875,6.3169255 63.981505,6.302593 63.70714,6.2923555 C63.56791,6.286213 63.43141,6.2732455 63.2914975,6.2691505 C63.274435,6.2691505 63.25669,6.2691505 63.2396275,6.2691505 C63.1973125,6.2691505 63.1549975,6.269833 63.1126825,6.2705155 C63.06286,6.271198 63.012355,6.2718805 62.96185,6.271198 Z" id="Fill-13" fill="url(#linearGradient-4)"></path>
                            <g id="Group-6" transform="translate(73.622500, 4.702698)" fill="url(#linearGradient-5)">
                                <polygon id="Fill-4" points="8.5032675 0.1445325 8.469825 16.50747 0.4347525 21.1764525 0.4675125 4.3141975"></polygon>
                            </g>
                            <g id="Group-9" transform="translate(42.910000, 0.082698)">
                                <mask id="mask-7" fill="white">
                                    <use xlink:href="#path-6"></use>
                                </mask>
                                <g id="Clip-8"></g>
                                <path d="M19.643715,0.075075 C12.5709675,0.075075 5.5057275,1.638 0.1248975,4.7645325 L0.1248975,4.7645325 L8.2125225,9.4341975 C14.5379325,5.7582525 24.81843,5.7609825 31.1800125,9.4341975 L31.1800125,9.4341975 L39.2157675,4.7645325 C33.8008125,1.6386825 26.71851,0.075075 19.643715,0.075075 Z" id="Fill-7" fill="url(#linearGradient-8)" mask="url(#mask-7)"></path>
                            </g>
                            <g id="Group-12" transform="translate(42.910000, 4.702698)"></g>
                            <g id="Group-15" transform="translate(50.942500, 6.250198)"></g>
                            <g id="Group-18" transform="translate(73.622500, 21.240198)" fill="url(#linearGradient-9)">
                                <path d="M0.435435,4.6389525 C3.6370425,6.487845 5.2368225,8.914815 5.2299975,11.33769 L5.2299975,11.33769 L5.26345727,6.793605 C5.2695825,4.37073 3.6370425,1.94376 0.435435,0.09555 L0.435435,0.09555 L0.435435,4.6389525 Z" id="Fill-16"></path>
                            </g>
                            <g id="Group-21" transform="translate(81.812500, 28.065198)" fill="url(#linearGradient-10)">
                                <path d="M0.4074525,11.24214 L0.4074525,15.7869075 C0.5207475,15.7213875 0.6340425,15.655185 0.74529,15.5883 C0.8497125,15.52551 0.945945,15.4593075 1.0490025,15.3951525 C1.21758,15.29073 1.3861575,15.1849425 1.549275,15.079155 C1.7001075,14.9801925 1.84548,14.8791825 1.991535,14.7795375 C2.14851,14.67102 2.305485,14.5625025 2.4576825,14.4519375 C2.597595,14.3495625 2.734095,14.246505 2.86923,14.142765 C3.0159675,14.030835 3.16134,13.9182225 3.3026175,13.8035625 C3.4322925,13.69914 3.5578725,13.59267 3.68277,13.487565 C3.817905,13.37154 3.9523575,13.255515 4.0820325,13.138125 C4.13595,13.09035 4.19328,13.04394 4.246515,12.996165 C4.2949725,12.9504375 4.3359225,12.9040275 4.3836975,12.8589825 C4.601415,12.652185 4.81026,12.444705 5.0102325,12.234495 C5.0771175,12.16488 5.147415,12.095265 5.2122525,12.0249675 C5.46546,11.7492375 5.7057,11.470095 5.9302425,11.1882225 C5.939115,11.17662 5.9507175,11.164335 5.9602725,11.1527325 C6.0107775,11.0872125 6.053775,11.02101 6.102915,10.956855 C6.2387325,10.7787225 6.3711375,10.60059 6.49467,10.42041 C6.561555,10.3228125 6.62298,10.22385 6.6864525,10.1262525 C6.7915575,9.9624525 6.894615,9.799335 6.990165,9.6348525 C7.0161,9.5898075 7.047495,9.5461275 7.0727475,9.5010825 C7.110285,9.433515 7.140315,9.36663 7.1764875,9.299745 C7.25088,9.1625625 7.3225425,9.024015 7.39011,8.8854675 C7.44744,8.7694425 7.5013575,8.6534175 7.5532275,8.53671 C7.615335,8.3967975 7.67403,8.256885 7.729995,8.1169725 C7.754565,8.0541825 7.7852775,7.992075 7.8084825,7.929285 C7.82964,7.87332 7.844655,7.817355 7.8644475,7.7607075 C7.9122225,7.62762 7.9559025,7.49385 7.9968525,7.36008 C8.0350725,7.238595 8.071245,7.1177925 8.104005,6.9949425 C8.1401775,6.8611725 8.172255,6.72672 8.2029675,6.591585 C8.218665,6.5185575 8.240505,6.446895 8.2548375,6.37455 C8.265075,6.32541 8.26917,6.2755875 8.2780425,6.2264475 C8.3039775,6.0885825 8.3244525,5.9507175 8.344245,5.81217 C8.360625,5.69205 8.377005,5.5698825 8.3886075,5.4497625 C8.40294,5.3105325 8.41113,5.17062 8.4186375,5.0307075 C8.4240975,4.9501725 8.4336525,4.8696375 8.4363825,4.78842 C8.4391125,4.7072025 8.439795,4.6266675 8.4404775,4.5447675 L8.472555,0.0470925 C8.4705075,0.19383 8.46027,0.34125 8.45208,0.48867 C8.44389,0.6272175 0.6272175,11.115195 0.4074525,11.24214 Z" id="Fill-19"></path>
                            </g>
                            <g id="Group-24" transform="translate(74.122500, 34.207698)" fill="url(#linearGradient-11)">
                                <polygon id="Fill-22" points="0.0098275 4.975425 8.0974525 9.64509 8.0974525 4.601005 0.0098275 0.43134"></polygon>
                            </g>
                            <g id="Group-27" transform="translate(73.622500, 16.462698)">
                                <mask id="mask-13" fill="white">
                                    <use xlink:href="#path-12"></use>
                                </mask>
                                <g id="Clip-26"></g>
                                <path d="M8.5032675,0.203385 L8.82488369,0.39209367 C19.3312931,6.65742659 19.2521716,16.6541193 8.5974525,22.846005 L8.5974525,22.846005 L0.5098275,18.17634 L0.769703702,18.0218971 C3.89526759,16.1218978 5.37659632,13.6492261 5.21897923,11.2030104 L5.2177125,11.388195 C5.16315752,9.58995881 4.22892724,7.79805122 2.40869828,6.25005071 C2.38916508,6.23223237 2.3686858,6.21496407 2.34809629,6.19772653 L2.40869828,6.25005071 C2.16389937,6.04186325 1.90307538,5.83808733 1.62621093,5.63930088 C1.60368271,5.62259318 1.58045739,5.60604161 1.55712099,5.58952508 L1.62621093,5.63930088 C1.53509662,5.57388154 1.44224509,5.50900257 1.34765579,5.44468456 L1.55712099,5.58952508 C1.47362112,5.53042738 1.38869898,5.47177838 1.30235471,5.41359346 L1.34765579,5.44468456 C1.1672933,5.32204326 0.9806125,5.20144156 0.787609589,5.08302228 C0.762596119,5.06731321 0.737376233,5.05194071 0.712049987,5.03660546 L0.4347525,4.87305 L0.5417525,4.810385 L8.5032675,0.203385 Z" id="Combined-Shape" fill="url(#linearGradient-14)" mask="url(#mask-13)"></path>
                            </g>
                            <g id="Group-30" transform="translate(46.322500, 17.670198)">
                                <mask id="mask-16" fill="white">
                                    <use xlink:href="#path-15"></use>
                                </mask>
                                <g id="Clip-29"></g>
                                <path d="M4.6020975,0.1499925 C4.45263,0.2400825 4.325685,0.33768 4.183725,0.4298175 L4.183725,0.4298175 C3.9858,0.55881 3.7830975,0.685755 3.599505,0.8188425 L3.599505,0.8188425 C3.438435,0.93555 3.2944275,1.0577175 3.1442775,1.17852 L3.1442775,1.17852 C2.9750175,1.31502 2.802345,1.4494725 2.646735,1.589385 L2.646735,1.589385 C2.61534,1.6173675 2.57712,1.643985 2.5464075,1.6719675 L2.5464075,1.6719675 C2.33688,1.865115 2.1450975,2.0623575 1.9621875,2.2616475 L1.9621875,2.2616475 C1.92465,2.3025975 1.89189,2.3449125 1.8557175,2.386545 L1.8557175,2.386545 C1.7472,2.5087125 1.6373175,2.63088 1.5390375,2.755095 L1.5390375,2.755095 C1.4612325,2.8540575 1.3929825,2.954385 1.3220025,3.0533475 L1.3220025,3.0533475 C1.295385,3.0902025 1.2674025,3.1256925 1.243515,3.161865 L1.243515,3.161865 C1.1145225,3.3481875 0.9930375,3.535875 0.885885,3.72561 L0.885885,3.72561 C0.8497125,3.7890825 0.820365,3.852555 0.787605,3.9160275 L0.787605,3.9160275 C0.7664475,3.956295 0.74529,3.9965625 0.724815,4.03683 L0.724815,4.03683 C0.6231225,4.2395325 0.5303025,4.4436 0.45318,4.6490325 L0.45318,4.6490325 C0.43407,4.6995375 0.42042,4.74936 0.402675,4.7991825 L0.402675,4.7991825 C0.3897075,4.838085 0.3774225,4.8769875 0.364455,4.9152075 L0.364455,4.9152075 C0.2955225,5.130195 0.2340975,5.3465475 0.1904175,5.564265 L0.1904175,5.564265 C0.181545,5.60658 0.1781325,5.6495775 0.170625,5.6918925 L0.170625,5.6918925 C0.1631175,5.730795 0.1576575,5.769015 0.151515,5.8079175 L0.151515,5.8079175 C0.1167075,6.0372375 0.09009,6.2665575 0.0839475,6.4958775 L0.0839475,6.4958775 C0.0819,6.5436525 0.0819,6.5914275 0.0819,6.63852 L0.0819,6.63852 L0.0484575,14.81487 C0.04914,14.537775 0.0757575,14.2613625 0.118755,13.9842675 L0.118755,13.9842675 C0.12558,13.9460475 0.13104,13.907145 0.1371825,13.868925 L0.1371825,13.868925 C0.18291,13.60821 0.24843,13.3495425 0.331695,13.0929225 L0.331695,13.0929225 C0.3446625,13.0533375 0.356265,13.0151175 0.3705975,12.9755325 L0.3705975,12.9755325 C0.45864,12.719595 0.566475,12.46434 0.692055,12.2124975 L0.692055,12.2124975 C0.71253,12.1729125 0.733005,12.132645 0.7541625,12.0923775 L0.7541625,12.0923775 C0.88725,11.8384875 1.0380825,11.5859625 1.20939,11.3388975 L1.20939,11.3388975 C1.23396,11.3020425 1.2619425,11.2665525 1.2878775,11.2296975 L1.2878775,11.2296975 C1.44963,11.0044725 1.6291275,10.78266 1.8215925,10.5635775 L1.8215925,10.5635775 C1.8584475,10.5226275 1.8912075,10.47963 1.9294275,10.437315 L1.9294275,10.437315 C2.138955,10.2100425 2.36964,9.9855 2.613975,9.7664175 L2.613975,9.7664175 C2.76822,9.626505 2.941575,9.49137 3.110835,9.3555525 L3.110835,9.3555525 C3.260985,9.23475 3.405675,9.1125825 3.5660625,8.9951925 L3.5660625,8.9951925 C3.7489725,8.8627875 3.951675,8.73516 4.1489175,8.60685 L4.1489175,8.60685 C4.3536675,8.4737625 4.5474975,8.3372625 4.7672625,8.2089525 L4.7672625,8.2089525 L4.8000225,0.0326025 C4.7331375,0.0721875 4.6676175,0.11109 4.6020975,0.1499925" id="Fill-28" fill="url(#linearGradient-17)" mask="url(#mask-16)"></path>
                            </g>
                            <g id="Group-33" transform="translate(34.720000, 23.970198)" fill="url(#linearGradient-18)">
                                <path d="M0.251119599,8.48211 C0.244335,10.8019275 1.1022375,13.1237925 2.8248675,15.27162 C3.39885,15.98688 4.0677,16.6837125 4.83483,17.35461 C5.0894025,17.577105 5.3555775,17.7975525 5.63199,18.0159525 C6.46191,18.6684225 7.38738,19.29291 8.409765,19.88259 L8.409765,11.20624 C2.960685,8.059915 0.271635,4.4301075 0.28392,0.30576 L0.251119599,8.48211 Z" id="Fill-31"></path>
                            </g>
                            <g id="Group-36" transform="translate(34.720000, 12.892698)">
                                <mask id="mask-20" fill="white">
                                    <use xlink:href="#path-19"></use>
                                </mask>
                                <g id="Clip-35"></g>
                                <path d="M8.409765,22.78374 L16.4775975,18.114075 C10.116015,14.44086 10.08189,8.4833175 16.4025225,4.8101025 L16.4025225,4.8101025 L8.3148975,0.14112 C-2.4426675,6.3935025 -2.41878,16.53204 8.409765,22.78374" id="Fill-34" fill="url(#linearGradient-21)" mask="url(#mask-20)"></path>
                            </g>
                            <g id="Group-39" transform="translate(42.910000, 30.795198)" fill="url(#linearGradient-22)">
                                <polygon id="Fill-37" points="0.219765 4.38124 0.219765 13.05759 8.2875975 8.387925 8.2875975 0.211575"></polygon>
                            </g>
                            <g id="Group-42" transform="translate(42.910000, 42.215198)" fill="url(#linearGradient-23)">
                                <path d="M0.219765,0.0221125 L0.219765,1.63759 C0.8046675,1.97611 1.412775,2.2921075 2.035215,2.59309 C2.0945925,2.6224375 2.1532875,2.65315 2.2133475,2.681815 C2.807805,2.96437 3.42069,3.227815 4.044495,3.4782925 C4.0984125,3.500815 4.150965,3.5274325 4.2062475,3.54859 C4.251975,3.5677 4.301115,3.582715 4.3482075,3.60046 C4.8273225,3.7881475 5.3132625,3.9669625 5.808075,4.1348575 C5.8838325,4.16011 5.96232,4.183315 6.03876,4.2085675 C6.4694175,4.3518925 6.905535,4.486345 7.34643,4.614655 C7.418775,4.636495 7.4890725,4.661065 7.5621,4.6822225 C7.6460475,4.70611 7.7320425,4.7259025 7.81599,4.7491075 C8.0937675,4.82623 8.3735925,4.9006225 8.6547825,4.9716025 C8.82609,5.0146 8.996715,5.0589625 9.1693875,5.0999125 C9.4765125,5.174305 9.785685,5.2432375 10.096905,5.3101225 C10.2136125,5.335375 10.3282725,5.3647225 10.4456625,5.38861 C10.4770575,5.395435 10.509135,5.4002125 10.54053,5.406355 C10.8224025,5.46505 11.107005,5.51692 11.39229,5.56879 C11.5479,5.5981375 11.7041925,5.6295325 11.8611675,5.6568325 C12.23313,5.7209875 12.60714,5.779 12.982515,5.8336 C13.050765,5.843155 13.1183325,5.8561225 13.1859,5.8656775 C13.18863,5.86636 13.1906775,5.86636 13.1934075,5.86636 C14.074515,5.9912575 14.96313,6.09022 15.8578875,6.16393 L15.873585,6.1659775 C16.02237,6.1782625 16.1732025,6.18577 16.3219875,6.1960075 C16.6100025,6.217165 16.8987,6.2396875 17.18808,6.255385 C17.3703075,6.2656225 17.5532175,6.2704 17.7347625,6.27859 C18.0009375,6.28951 18.2671125,6.3024775 18.532605,6.3093025 C18.5537625,6.3093025 18.57492,6.31135 18.5974425,6.31135 C18.74418,6.315445 18.890235,6.31408 19.037655,6.315445 C19.302465,6.3202225 19.5679575,6.325 19.8327675,6.325 L19.9078425,6.325 C20.094165,6.325 20.28117,6.3202225 20.4674925,6.3174925 C20.738445,6.3133975 21.0093975,6.309985 21.28035,6.301795 C21.3301725,6.2997475 21.3793125,6.2997475 21.4284525,6.2983825 C21.5526675,6.2942875 21.6762,6.2847325 21.800415,6.279955 C22.113,6.2669875 22.42422,6.2519725 22.73544,6.2328625 C22.9217625,6.22126 23.1074025,6.20761 23.29236,6.19396 C23.58993,6.17212 23.8875,6.14755 24.183705,6.1195675 C24.2867625,6.110695 24.3918675,6.105235 24.494925,6.094315 C24.56727,6.0868075 24.6375675,6.0758875 24.710595,6.0690625 C25.171965,6.020605 25.6326525,5.966005 26.0899275,5.9038975 C26.1636375,5.8943425 26.2373475,5.8861525 26.3096925,5.875915 C26.8352175,5.8028875 27.35733,5.7182575 27.874665,5.62612 C27.9231225,5.6172475 27.972945,5.6117875 28.0214025,5.602915 C28.15722,5.578345 28.292355,5.5489975 28.428855,5.5230625 C28.671825,5.4766525 28.9141125,5.4302425 29.155035,5.3797375 C29.3509125,5.3387875 29.545425,5.29579 29.7399375,5.25211 C29.9754,5.198875 30.21018,5.14564 30.4442775,5.0889925 C30.63879,5.0425825 30.8319375,4.9934425 31.0244025,4.9429375 C31.25577,4.88356 31.4857725,4.8228175 31.7150925,4.7586625 C31.9061925,4.70611 32.0959275,4.65151 32.2842975,4.595545 C32.51157,4.5279775 32.736795,4.46041 32.960655,4.3901125 C33.0582525,4.3594 33.1565325,4.3314175 33.25413,4.300705 C33.323745,4.2775 33.3899475,4.251565 33.45888,4.22836 C33.86565,4.0939075 34.26696,3.9533125 34.6634925,3.80521 C34.74471,3.77518 34.827975,3.7485625 34.9078275,3.71785 C35.3760225,3.5397175 35.8346625,3.350665 36.28716,3.1547875 C36.4052325,3.1029175 36.520575,3.0496825 36.637965,2.99713 C36.9839925,2.84152 37.325925,2.6811325 37.6623975,2.51392 C37.7879775,2.452495 37.9135575,2.3903875 38.0377725,2.326915 C38.4704775,2.1051025 38.8963575,1.87783 39.3099525,1.63759 L39.3099525,0.0221125 C39.1068362,0.14028924 29.3963926,4.21406694 19.9078425,4.22836 C10.1072392,4.24312312 0.517294196,0.193763959 0.219765,0.0221125 Z" id="Fill-40"></path>
                            </g>
                            <g id="Group-45" transform="translate(42.910000, 37.462698)">
                                <mask id="mask-25" fill="white">
                                    <use xlink:href="#path-24"></use>
                                </mask>
                                <g id="Clip-44"></g>
                                <path d="M8.2875975,0.1049475 L0.219765,4.7746125 C11.0476275,11.0263125 28.551705,11.0263125 39.3099525,4.7746125 L39.3099525,4.7746125 L31.25577,0.1049475 C24.934455,3.7781625 14.6498625,3.7781625 8.2875975,0.1049475" id="Fill-43" fill="url(#linearGradient-26)" mask="url(#mask-25)"></path>
                            </g>
                            <g id="Group-72" transform="translate(34.720000, 4.702698)">
                                <g id="Group-48" transform="translate(2.572500, 8.190000)">
                                    <mask id="mask-28" fill="white">
                                        <use xlink:href="#path-27"></use>
                                    </mask>
                                    <g id="Clip-47"></g>
                                    <path d="M5.7423975,0.14112 L13.8300225,4.810785 L0.15204,4.810785 C0.15204,4.810785 1.570275,2.65272 5.7423975,0.14112" id="Fill-46" fill-opacity="0.103638549" fill="#000000" mask="url(#mask-28)"></path>
                                </g>
                                <g id="Group-51" transform="translate(32.077500, 32.760000)">
                                    <mask id="mask-30" fill="white">
                                        <use xlink:href="#path-29"></use>
                                    </mask>
                                    <g id="Clip-50"></g>
                                    <path d="M15.42177,4.7746125 L0.0102375,4.7746125 L0.0102375,2.55444 C0.0102375,2.55444 3.99672,2.0685 7.36827,0.1049475 L15.42177,4.7746125 Z" id="Fill-49" fill="url(#linearGradient-31)" mask="url(#mask-30)"></path>
                                </g>
                                <g id="Group-54" transform="translate(8.190000, 0.000000)">
                                    <mask id="mask-33" fill="white">
                                        <use xlink:href="#path-32"></use>
                                    </mask>
                                    <g id="Clip-53"></g>
                                    <path d="M31.1800125,4.55826 C24.81843,0.885045 14.5379325,0.882315 8.2125225,4.55826 L0.3514875,0.019635 C0.277095,0.06195 0.19929,0.101535 0.1248975,0.1445325 L8.2125225,4.8141975 C14.5379325,1.1382525 24.81843,1.1409825 31.1800125,4.8141975 L39.2157675,0.1445325 C39.141375,0.101535 39.06357,0.06195 38.9891775,0.0203175 L31.1800125,4.55826 Z" id="Fill-52" fill-opacity="0.162041084" fill="#D8D8D8" mask="url(#mask-33)"></path>
                                </g>
                                <g id="Group-61" transform="translate(38.902500, 16.380000)">
                                    <g id="Group-57">
                                        <mask id="mask-35" fill="white">
                                            <use xlink:href="#path-34"></use>
                                        </mask>
                                        <g id="Clip-56"></g>
                                    </g>
                                    <g id="Group-60" transform="translate(0.500000, 6.300000)">
                                        <mask id="mask-37" fill="white">
                                            <use xlink:href="#path-36"></use>
                                        </mask>
                                        <g id="Clip-59"></g>
                                        <path d="M8.09677,11.6345775 L0.2487025,7.10346 C0.16612,7.1532825 0.09514,7.2072 0.0098275,7.25634 L8.09677,11.926005 C13.536295,8.764665 16.2151075,4.612335 16.1413975,0.470925 C16.0867975,4.51542 13.40935,8.54763 8.09677,11.6345775" id="Fill-58" fill-opacity="0.162041084" fill="#D8D8D8" mask="url(#mask-37)"></path>
                                    </g>
                                </g>
                                <g id="Group-68" transform="translate(0.000000, 12.442500)">
                                    <g id="Group-64" transform="translate(11.602500, 0.000000)">
                                        <mask id="mask-39" fill="white">
                                            <use xlink:href="#path-38"></use>
                                        </mask>
                                        <g id="Clip-63"></g>
                                        <path d="M0.0935025,7.05432 C0.14742,4.69833 1.7082975,2.354625 4.8000225,0.558285 L4.5611475,0.4197375 C1.5117375,2.2720425 0.0211575,4.6662525 0.0935025,7.05432" id="Fill-62" fill-opacity="0.162041084" fill="#D8D8D8" mask="url(#mask-39)"></path>
                                    </g>
                                    <g id="Group-67" transform="translate(0.000000, 6.825000)">
                                        <mask id="mask-41" fill="white">
                                            <use xlink:href="#path-40"></use>
                                        </mask>
                                        <g id="Clip-66"></g>
                                        <path d="M8.409765,11.41413 C3.053505,8.322405 0.3460275,4.279275 0.2736825,0.22659 C0.2177175,4.3768725 2.925195,8.53944 8.409765,11.70624 L16.4775975,7.036575 C16.392285,6.987435 16.3206225,6.9342 16.23804,6.883695 L8.409765,11.41413 Z" id="Fill-65" fill-opacity="0.162041084" fill="#D8D8D8" mask="url(#mask-41)"></path>
                                    </g>
                                </g>
                                <g id="Group-71" transform="translate(8.190000, 37.012500)">
                                    <mask id="mask-43" fill="white">
                                        <use xlink:href="#path-42"></use>
                                    </mask>
                                    <g id="Clip-70"></g>
                                    <path d="M0.3419325,0.451815 L0.219765,0.5221125 C11.0476275,6.7738125 28.551705,6.7738125 39.30927,0.5221125 L39.1884675,0.451815 C28.46025,6.610695 11.1390825,6.610695 0.3419325,0.451815" id="Fill-69" fill-opacity="0.162041084" fill="#D8D8D8" mask="url(#mask-43)"></path>
                                </g>
                            </g>
                        </g>
                    </g>
                </g>
                <circle id="Oval-Copy-5" fill="#FFFFFF" cx="134" cy="164" r="4"></circle>
                <circle id="Oval-Copy-10" fill="#FFFFFF" cx="330" cy="110" r="4"></circle>
                <circle id="Oval-Copy-11" fill="#FFFFFF" cx="258" cy="246" r="4"></circle>
            </g>
        </g>
    </g>
</svg>