<?xml version="1.0" encoding="UTF-8"?>
<svg width="375px" height="255px" viewBox="0 0 375 255" version="1.1" xmlns="http://www.w3.org/2000/svg" xmlns:xlink="http://www.w3.org/1999/xlink">
    <!-- Generator: Sketch 56.3 (81716) - https://sketch.com -->
    <title>run-t-s-mob-2</title>
    <desc>Created with Sketch.</desc>
    <defs>
        <polygon id="path-1" points="39.798 0.12375 0 22.727925 1.1457 23.17815 41.25645 0.12375"></polygon>
        <polygon id="path-3" points="0.11655 30.30975 1.153575 30.987 1.1457 0.45315 0 0.002925"></polygon>
        <path d="M63.501475,41.4363874 L75.7304145,34.4412424 C76.5375385,33.9795548 77.5661134,34.2595864 78.027801,35.0667103 C78.1734058,35.3212572 78.25,35.6094207 78.25,35.9026696 C78.25,37.6972994 77.2873469,39.3540204 75.7281916,40.2426885 L63.5149319,47.2038524 C62.7096687,47.6628265 61.684802,47.3821036 61.225828,46.5768405 C61.0820639,46.3246085 61.0061917,46.0393956 61.005625,45.7490703 C61.0021475,43.9674566 61.9549894,42.3210014 63.501475,41.4363874 Z" id="path-5"></path>
        <filter x="-11.6%" y="1.4%" width="117.4%" height="110.1%" filterUnits="objectBoundingBox" id="filter-6">
            <feOffset dx="-1" dy="2" in="SourceAlpha" result="shadowOffsetOuter1"></feOffset>
            <feColorMatrix values="0 0 0 0 0   0 0 0 0 0   0 0 0 0 0  0 0 0 0.0546055507 0" type="matrix" in="shadowOffsetOuter1"></feColorMatrix>
        </filter>
        <path d="M51.001475,22.4363874 L63.2304145,15.4412424 C64.0375385,14.9795548 65.0661134,15.2595864 65.527801,16.0667103 C65.6734058,16.3212572 65.75,16.6094207 65.75,16.9026696 C65.75,18.6972994 64.7873469,20.3540204 63.2281916,21.2426885 L51.0149319,28.2038524 C50.2096687,28.6628265 49.184802,28.3821036 48.725828,27.5768405 C48.5820639,27.3246085 48.5061917,27.0393956 48.505625,26.7490703 C48.5021475,24.9674566 49.4549894,23.3210014 51.001475,22.4363874 Z" id="path-7"></path>
        <filter x="-11.6%" y="1.4%" width="117.4%" height="110.1%" filterUnits="objectBoundingBox" id="filter-8">
            <feOffset dx="-1" dy="2" in="SourceAlpha" result="shadowOffsetOuter1"></feOffset>
            <feColorMatrix values="0 0 0 0 0   0 0 0 0 0   0 0 0 0 0  0 0 0 0.0546055507 0" type="matrix" in="shadowOffsetOuter1"></feColorMatrix>
        </filter>
        <path d="M22.001475,26.4363874 L34.2304145,19.4412424 C35.0375385,18.9795548 36.0661134,19.2595864 36.527801,20.0667103 C36.6734058,20.3212572 36.75,20.6094207 36.75,20.9026696 C36.75,22.6972994 35.7873469,24.3540204 34.2281916,25.2426885 L22.0149319,32.2038524 C21.2096687,32.6628265 20.184802,32.3821036 19.725828,31.5768405 C19.5820639,31.3246085 19.5061917,31.0393956 19.505625,30.7490703 C19.5021475,28.9674566 20.4549894,27.3210014 22.001475,26.4363874 Z" id="path-9"></path>
        <filter x="-11.6%" y="1.4%" width="117.4%" height="110.1%" filterUnits="objectBoundingBox" id="filter-10">
            <feOffset dx="-1" dy="2" in="SourceAlpha" result="shadowOffsetOuter1"></feOffset>
            <feColorMatrix values="0 0 0 0 0   0 0 0 0 0   0 0 0 0 0  0 0 0 0.0546055507 0" type="matrix" in="shadowOffsetOuter1"></feColorMatrix>
        </filter>
    </defs>
    <g id="Product-page" stroke="none" stroke-width="1" fill="none" fill-rule="evenodd">
        <g id="product_mobile" transform="translate(0.000000, -5440.000000)">
            <g id="run-t-s-mob-2" transform="translate(-33.000000, 5440.000000)">
                <g id="Group-10-Copy" transform="translate(77.000000, 58.000000)" stroke="#95A0DD">
                    <path d="M375.5,201.714844 L30,5" id="Path-11" stroke-opacity="0.237489073" stroke-width="34.5"></path>
                    <path d="M345.5,201.714844 L0,5" id="Path-11-Copy" stroke-opacity="0.5" stroke-width="1.5" stroke-linecap="round" stroke-linejoin="round" stroke-dasharray="27.5,3"></path>
                    <path d="M358.5,199.714844 L13,3" id="Path-11-Copy-2" stroke-opacity="0.5" stroke-width="1.5" stroke-linecap="round" stroke-linejoin="round" stroke-dasharray="27.5,3"></path>
                    <path d="M369,196.714844 L23.5,0" id="Path-11-Copy-3" stroke-opacity="0.5" stroke-width="1.5" stroke-linecap="round" stroke-linejoin="round" stroke-dasharray="27.5,3"></path>
                    <path d="M384,196.714844 L38.5,0" id="Path-11-Copy-4" stroke-opacity="0.5" stroke-width="1.5" stroke-linecap="round" stroke-linejoin="round" stroke-dasharray="27.5,3"></path>
                    <path d="M397,196.714844 L51.5,0" id="Path-11-Copy-5" stroke-opacity="0.5" stroke-width="1.5" stroke-linecap="round" stroke-linejoin="round" stroke-dasharray="27.5,3"></path>
                </g>
                <g id="Group-11">
                    <g id="IMG">
                        <g id="Group-10-Copy-2" transform="translate(77.000000, 58.000000)" stroke="#95A0DD">
                            <path d="M375.5,201.714844 L30,5" id="Path-11" stroke-opacity="0.237489073" stroke-width="34.5"></path>
                            <path d="M345.5,201.714844 L0,5" id="Path-11-Copy" stroke-opacity="0.5" stroke-width="1.5" stroke-linecap="round" stroke-linejoin="round" stroke-dasharray="27.5,3"></path>
                            <path d="M358.5,199.714844 L13,3" id="Path-11-Copy-2" stroke-opacity="0.5" stroke-width="1.5" stroke-linecap="round" stroke-linejoin="round" stroke-dasharray="27.5,3"></path>
                            <path d="M369,196.714844 L23.5,0" id="Path-11-Copy-3" stroke-opacity="0.5" stroke-width="1.5" stroke-linecap="round" stroke-linejoin="round" stroke-dasharray="27.5,3"></path>
                            <path d="M384,196.714844 L38.5,0" id="Path-11-Copy-4" stroke-opacity="0.5" stroke-width="1.5" stroke-linecap="round" stroke-linejoin="round" stroke-dasharray="27.5,3"></path>
                            <path d="M397,196.714844 L51.5,0" id="Path-11-Copy-5" stroke-opacity="0.5" stroke-width="1.5" stroke-linecap="round" stroke-linejoin="round" stroke-dasharray="27.5,3"></path>
                        </g>
                        <g id="Group-4">
                            <path d="M96.7664843,1.47550655 L2.89815843,54.5505323 C1.93664472,55.0941914 1.59790659,56.314375 2.14156564,57.2758887 C2.30279153,57.5610323 2.53158698,57.8022107 2.80784482,57.9782285 L123.748406,135.03556 C124.680487,135.629435 125.863605,135.662738 126.827617,135.122235 L220.118457,82.8157892 C221.08192,82.2755931 221.425046,81.0566361 220.88485,80.0931726 C220.726927,79.8115092 220.503151,79.5722728 220.232649,79.3959121 L100.919856,1.6067115 C99.6685095,0.790862271 98.0668298,0.740265233 96.7664843,1.47550655 Z" id="Path-8-Copy-4" fill="#95A0DD" opacity="0.18"></path>
                            <g id="Group-5-Copy-2" transform="translate(116.000000, 66.500000) scale(-1, 1) translate(-116.000000, -66.500000) translate(49.500000, 22.500000)">
                                <path d="M52.5415161,11.1615319 L2.98570307,39.2376203 C2.02465703,39.7821056 1.68696785,41.0025799 2.23145319,41.963626 C2.40177511,42.2642534 2.64707599,42.5156274 2.94344884,42.6932492 L77.0469841,87.1048925 C77.9705336,87.6583932 79.1198758,87.674517 80.0585887,87.1471416 L129.527816,59.3549892 C130.490817,58.8139687 130.832899,57.5947185 130.291879,56.6317177 C130.124541,56.333862 129.883693,56.0838377 129.5923,55.9054851 L56.6014486,11.2301137 C55.361204,10.4709995 53.8066923,10.4447401 52.5415161,11.1615319 Z" id="Path-8-Copy-7" fill-opacity="0.269831731" fill="#000000" transform="translate(66.250000, 49.000000) scale(-1, 1) translate(-66.250000, -49.000000) "></path>
                                <path d="M124.825954,31.5814169 L130.530396,30.8276978 L130.530396,35.8913574 C130.542518,36.2550909 130.460158,36.6254225 130.268547,36.963626 C130.098225,37.2642534 129.852924,37.5156274 129.556551,37.6932492 L55.4530159,82.1048925 C54.5294664,82.6583932 53.3801242,82.674517 52.4414113,82.1471416 L2.9721843,54.3549892 C2.23088108,53.93852 1.85751432,53.1201533 1.97167969,52.3261517 L1.97167969,47.8139648 L9.60686618,46.8051393 L75.8985514,6.23011366 C77.138796,5.47099947 78.6933077,5.44474012 79.9584839,6.16153187 L124.825954,31.5814169 Z" id="Combined-Shape" fill="#263144"></path>
                                <path d="M52.5415161,1.16153187 L2.98570307,29.2376203 C2.02465703,29.7821056 1.68696785,31.0025799 2.23145319,31.963626 C2.40177511,32.2642534 2.64707599,32.5156274 2.94344884,32.6932492 L77.0469841,77.1048925 C77.9705336,77.6583932 79.1198758,77.674517 80.0585887,77.1471416 L129.527816,49.3549892 C130.490817,48.8139687 130.832899,47.5947185 130.291879,46.6317177 C130.124541,46.333862 129.883693,46.0838377 129.5923,45.9054851 L56.6014486,1.23011366 C55.361204,0.47099947 53.8066923,0.444740119 52.5415161,1.16153187 Z" id="Path-8-Copy-3" fill="#3C485E" transform="translate(66.250000, 39.000000) scale(-1, 1) translate(-66.250000, -39.000000) "></path>
                                <polygon id="Path-12-Copy" fill-opacity="0.109484266" fill="#000000" transform="translate(72.027031, 39.987500) scale(-1, 1) translate(-72.027031, -39.987500) " points="58.256785 56.475 45.0539717 48.5767367 88.2791436 23.5 98.99991 33.3081"></polygon>
                                <polygon id="Path-12-Copy-2" fill-opacity="0.109484266" fill="#000000" transform="translate(92.027031, 26.487500) scale(-1, 1) translate(-92.027031, -26.487500) " points="78.256785 42.975 65.0539717 35.0767367 108.279144 10 118.99991 19.8081"></polygon>
                            </g>
                            <g id="Group-117" transform="translate(70.000000, 3.000000)">
                                <g id="Group-3" transform="translate(5.625000, 9.253675)">
                                    <g id="Group-7" transform="translate(0.000000, 0.002925)">
                                        <polygon id="Fill-1" fill="#EBF5FF" points="1.5207 23.175225 1.5288 53.709075 41.51625 30.791025 41.63145 0.120825"></polygon>
                                        <path d="M16.7445652,34.3341016 L16.7445652,42.9614713 L8.375,47.7434 L8.375,39.0899202 L16.7445652,34.3341016 Z M26.3097826,28.9229467 L26.3097826,37.5503165 L17.9402174,42.3322451 L17.9402174,33.6787654 L26.3097826,28.9229467 Z M16.7445652,23.964539 L16.7445652,32.5919088 L8.375,37.3738374 L8.375,28.7203577 L16.7445652,23.964539 Z M35.875,23.1129626 L35.875,31.7403323 L27.5054348,36.522261 L27.5054348,27.8687812 L35.875,23.1129626 Z M26.3097826,18.5533842 L26.3097826,27.1807539 L17.9402174,31.9626826 L17.9402174,23.3092028 L26.3097826,18.5533842 Z M35.875,12.7434 L35.875,21.3707697 L27.5054348,26.1526984 L27.5054348,17.4992186 L35.875,12.7434 Z" id="Combined-Shape-Copy-6" fill="#CADCF7"></path>
                                        <polygon id="Fill-4" fill="#1731CA" points="40.173 0.120825 0.375 22.725 1.5207 23.175225 41.63145 0.120825"></polygon>
                                        <polygon id="Fill-7" fill="#6F9AF1" points="0.49155 53.031825 1.528575 53.709075 1.5207 23.175225 0.375 22.725"></polygon>
                                    </g>
                                </g>
                                <g id="Group-6" transform="translate(0.000000, 8.753675)">
                                    <mask id="mask-2" fill="white">
                                        <use xlink:href="#path-1"></use>
                                    </mask>
                                    <g id="Clip-5"></g>
                                </g>
                                <g id="Group-9" transform="translate(0.000000, 31.478675)">
                                    <mask id="mask-4" fill="white">
                                        <use xlink:href="#path-3"></use>
                                    </mask>
                                    <g id="Clip-8"></g>
                                </g>
                                <g id="Group-22" transform="translate(26.750000, 0.153675)">
                                    <g id="Group-21">
                                        <polygon id="Fill-19" fill="#EBF5FF" points="0.308925 32.879025 0.320175 76.33035 57.2247 43.716825 57.38895 0.071325"></polygon>
                                        <path d="M16.75,49.9139201 L16.75,60.7297868 L6.25,66.724743 L6.25,55.8761429 L16.75,49.9139201 Z M28.75,43.1301226 L28.75,53.9459893 L18.25,59.9409454 L18.25,49.0923454 L28.75,43.1301226 Z M16.75,36.9139201 L16.75,47.7297868 L6.25,53.724743 L6.25,42.8761429 L16.75,36.9139201 Z M40.75,35.846325 L40.75,46.6621917 L30.25,52.6571479 L30.25,41.8085478 L40.75,35.846325 Z M28.75,30.1301226 L28.75,40.9459893 L18.25,46.9409454 L18.25,36.0923454 L28.75,30.1301226 Z M40.75,22.846325 L40.75,33.6621917 L30.25,39.6571479 L30.25,28.8085478 L40.75,22.846325 Z M52.75,29.4139201 L52.75,40.2297868 L42.25,46.224743 L42.25,35.3761429 L52.75,29.4139201 Z M52.75,16.4139201 L52.75,27.2297868 L42.25,33.224743 L42.25,22.3761429 L52.75,16.4139201 Z" id="Combined-Shape" fill="#CADCF7"></path>
                                    </g>
                                </g>
                                <g id="Group-25" transform="translate(25.400000, 0.153675)" fill="#1731CA">
                                    <polygon id="Fill-23" points="56.6631 0.071325 0.02835 32.238225 1.658925 32.879025 58.738725 0.071325"></polygon>
                                </g>
                                <g id="Group-28" transform="translate(25.400000, 32.328675)" fill="#6F9AF1">
                                    <polygon id="Fill-26" points="0.02835 0.063225 0.194175 43.191675 1.670175 44.15535 1.658925 0.704025"></polygon>
                                </g>
                                <polygon id="Path-12" fill-opacity="0.109484266" fill="#000000" points="47.25645 87.553675 34.0536367 79.6554117 77.2788086 54.578675 87.999575 64.386775"></polygon>
                                <polygon id="Fill-29" fill="#3D5AFE" points="27.0589925 33.0327225 84.1387925 0.2250225 84.1000925 6.0765975 27.0702425 38.7963225"></polygon>
                                <polygon id="Fill-75" fill="#EBF5FF" points="47.3954 46.912825 47.3954 87.553675 87.999575 64.386775 87.999575 23.86855"></polygon>
                                <path d="M61.5,64.5675951 L61.5,75.3834618 L51,81.378418 L51,70.5298179 L61.5,64.5675951 Z M73.5,57.7837976 L73.5,68.5996643 L63,74.5946204 L63,63.7460204 L73.5,57.7837976 Z M61.5,51.5675951 L61.5,62.3834618 L51,68.378418 L51,57.5298179 L61.5,51.5675951 Z M85.5,50.5 L85.5,61.3158667 L75,67.3108229 L75,56.4622228 L85.5,50.5 Z M73.5,44.7837976 L73.5,55.5996643 L63,61.5946204 L63,50.7460204 L73.5,44.7837976 Z M85.5,37.5 L85.5,48.3158667 L75,54.3108229 L75,43.4622228 L85.5,37.5 Z" id="Combined-Shape" fill="#CADCF7"></path>
                                <polygon id="Fill-29-Copy" fill="#3D5AFE" points="47 46.8077 87.999575 23.86855 87.999575 29.6738892 47.01125 52.5713"></polygon>
                                <g id="Fill-29-Copy-3">
                                    <use fill="black" fill-opacity="1" filter="url(#filter-6)" xlink:href="#path-5"></use>
                                    <use fill="#FD808B" fill-rule="evenodd" xlink:href="#path-5"></use>
                                </g>
                                <g id="Fill-29-Copy-4">
                                    <use fill="black" fill-opacity="1" filter="url(#filter-8)" xlink:href="#path-7"></use>
                                    <use fill="#FD808B" fill-rule="evenodd" xlink:href="#path-7"></use>
                                </g>
                                <polygon id="Fill-29-Copy-2" fill="#3D5AFE" points="7 32.43897 47.25645 9.38057393 47.25645 15.1859131 7.01125 38.20257"></polygon>
                                <polygon id="Fill-98" fill="#1731CA" points="87.999665 23.86873 86.512865 23.01913 45.908465 46.06318 47.395265 46.91278"></polygon>
                                <polygon id="Fill-101" fill="#6F9AF1" points="45.908375 86.704075 47.3954 87.553675 47.3954 46.912825 45.908375 46.063225"></polygon>
                                <g id="Fill-29-Copy-5">
                                    <use fill="black" fill-opacity="1" filter="url(#filter-10)" xlink:href="#path-9"></use>
                                    <use fill="#FD808B" fill-rule="evenodd" xlink:href="#path-9"></use>
                                </g>
                            </g>
                        </g>
                    </g>
                    <circle id="Oval-Copy-4" fill="#FFFFFF" cx="175" cy="109" r="4"></circle>
                </g>
            </g>
        </g>
    </g>
</svg>