<?xml version="1.0" encoding="UTF-8"?>
<svg width="354px" height="229px" viewBox="0 0 354 229" version="1.1" xmlns="http://www.w3.org/2000/svg" xmlns:xlink="http://www.w3.org/1999/xlink">
    <!-- Generator: Sketch 56.3 (81716) - https://sketch.com -->
    <title>run-t-s-mob-1</title>
    <desc>Created with Sketch.</desc>
    <defs>
        <path d="M6.81876495,10.06984 L18.953467,10.06984 C19.363327,10.06984 19.695967,10.40248 19.695967,10.81234 C19.695967,11.2222 19.363327,11.55484 18.953467,11.55484 L6.78717975,11.55484 C6.78709993,11.5261394 6.78706,11.4974293 6.78706,11.46871 C6.78706,10.9998574 6.79770448,10.5334913 6.81876495,10.06984 Z M6.97053635,8.114491 C7.02543834,7.61574765 7.09243989,7.12064767 7.17124107,6.629491 L18.147211,6.629491 C18.557071,6.629491 18.889711,6.962131 18.889711,7.371991 C18.889711,7.781851 18.557071,8.114491 18.147211,8.114491 L6.97053635,8.114491 Z M7.50308031,4.889269 C7.61368196,4.38952041 7.73661826,3.8944085 7.87155349,3.404269 L15.835264,3.404269 C16.245124,3.404269 16.577764,3.736909 16.577764,4.146769 C16.577764,4.556629 16.245124,4.889269 15.835264,4.889269 L7.50308031,4.889269 Z M8.40798641,1.663552 C8.57917036,1.16251083 8.76310984,0.667381729 8.95941754,0.178552 L12.933079,0.178552 C13.342939,0.178552 13.675579,0.511192 13.675579,0.921052 C13.675579,1.330912 13.342939,1.663552 12.933079,1.663552 L8.40798641,1.663552 Z M10.008359,25.082299 C9.76286686,24.5946903 9.53015124,24.0995438 9.31065177,23.597299 L12.932782,23.597299 C13.342642,23.597299 13.675282,23.929939 13.675282,24.339799 C13.675282,24.749659 13.342642,25.082299 12.932782,25.082299 L10.008359,25.082299 Z M8.59968627,21.818368 C8.42199118,21.3291178 8.25653466,20.8339945 8.10368679,20.333368 L15.835561,20.333368 C16.245421,20.333368 16.578061,20.666008 16.578061,21.075868 C16.578061,21.485728 16.245421,21.818368 15.835561,21.818368 L8.59968627,21.818368 Z M7.54165258,18.220411 C7.43007101,17.7298295 7.33038832,17.234723 7.2429241,16.735411 L17.496979,16.735411 C17.906839,16.735411 18.239479,17.068051 18.239479,17.477911 C18.239479,17.887771 17.906839,18.220411 17.496979,18.220411 L7.54165258,18.220411 Z M6.98997354,14.995189 C6.93303352,14.5036774 6.88784966,14.0085813 6.85471044,13.510189 L18.953467,13.510189 C19.363327,13.510189 19.695967,13.842829 19.695967,14.252689 C19.695967,14.662549 19.363327,14.995189 18.953467,14.995189 L6.98997354,14.995189 Z" id="path-1"></path>
        <linearGradient x1="50%" y1="1.9013074%" x2="50%" y2="100%" id="linearGradient-3">
            <stop stop-color="#FFFFFF" offset="0%"></stop>
            <stop stop-color="#DAEFFA" offset="100%"></stop>
        </linearGradient>
        <path d="M19.1630559,15.4329093 L21.2,12.8952174 L21.2,19.7751797 C21.2,20.3377792 20.7440045,20.7938744 20.1815279,20.7938744 C19.6190514,20.7938744 19.1630559,20.3377792 19.1630559,19.7751797 L19.1630559,15.4329093 Z M13.3961732,10.8707797 L15.2334253,13.0343687 C14.7862051,13.0046117 14.3634916,13.1318816 14.0495064,13.4603858 C13.7339159,13.7904955 13.6178035,14.2498019 13.6178035,14.6965847 L13.6178035,19.7751797 C13.6178035,20.3302864 13.1544239,20.7938744 12.5993314,20.7938744 C12.044346,20.7938744 11.5808594,20.3302864 11.5808594,19.7751797 L11.5808594,11.5079857 C11.5808594,11.0919233 11.8460452,10.7070093 12.2335505,10.5581174 C12.6434221,10.4004483 13.1208208,10.5277182 13.3961732,10.8707797 Z M16.8146949,17.1135361 C16.8090231,17.1157839 16.9740419,17.0505969 16.8146949,17.1135361 C16.4050374,17.2777346 15.9182212,17.1481098 15.6422267,16.804299 L14.4308047,15.2951495 C14.0781867,14.8557524 14.1483892,14.2136226 14.5875832,13.8609275 C15.0211054,13.5127281 15.6736895,13.5843375 16.0214917,14.0177403 L16.4385334,14.5372029 L19.3814757,10.8707797 C19.7552829,10.405158 20.4701503,10.3650182 20.8946831,10.78472 C21.2614272,11.1473698 21.2948162,11.7462556 20.9721628,12.1481889 L17.2347331,16.804299 C17.1199048,16.9474108 16.9740419,17.0505969 16.8146949,17.1135361 Z" id="path-4"></path>
        <filter x="-20.8%" y="-9.7%" width="141.6%" height="138.8%" filterUnits="objectBoundingBox" id="filter-5">
            <feOffset dx="0" dy="1" in="SourceAlpha" result="shadowOffsetOuter1"></feOffset>
            <feGaussianBlur stdDeviation="0.5" in="shadowOffsetOuter1" result="shadowBlurOuter1"></feGaussianBlur>
            <feColorMatrix values="0 0 0 0 0   0 0 0 0 0   0 0 0 0 0  0 0 0 0.034618433 0" type="matrix" in="shadowBlurOuter1"></feColorMatrix>
        </filter>
        <filter x="-15.6%" y="-4.9%" width="131.2%" height="129.1%" filterUnits="objectBoundingBox" id="filter-6">
            <feOffset dx="0" dy="-1" in="SourceAlpha" result="shadowOffsetInner1"></feOffset>
            <feComposite in="shadowOffsetInner1" in2="SourceAlpha" operator="arithmetic" k2="-1" k3="1" result="shadowInnerInner1"></feComposite>
            <feColorMatrix values="0 0 0 0 0   0 0 0 0 0   0 0 0 0 0  0 0 0 0.0638020833 0" type="matrix" in="shadowInnerInner1"></feColorMatrix>
        </filter>
    </defs>
    <g id="Product-page" stroke="none" stroke-width="1" fill="none" fill-rule="evenodd">
        <g id="product_mobile" transform="translate(-21.000000, -4917.000000)">
            <g id="run-t-s-mob-1" transform="translate(20.000000, 4917.000000)">
                <g id="Group-5">
                    <g id="Group-10" transform="translate(24.000000, 32.000000)" stroke="#95A0DD">
                        <path d="M375.5,201.714844 L30,5" id="Path-11" stroke-opacity="0.237489073" stroke-width="34.5"></path>
                        <path d="M345.5,201.714844 L0,5" id="Path-11-Copy" stroke-opacity="0.5" stroke-width="1.5" stroke-linecap="round" stroke-linejoin="round" stroke-dasharray="27.5,3"></path>
                        <path d="M358.5,199.714844 L13,3" id="Path-11-Copy-2" stroke-opacity="0.5" stroke-width="1.5" stroke-linecap="round" stroke-linejoin="round" stroke-dasharray="27.5,3"></path>
                        <path d="M369,196.714844 L23.5,0" id="Path-11-Copy-3" stroke-opacity="0.5" stroke-width="1.5" stroke-linecap="round" stroke-linejoin="round" stroke-dasharray="27.5,3"></path>
                        <path d="M384,196.714844 L38.5,0" id="Path-11-Copy-4" stroke-opacity="0.5" stroke-width="1.5" stroke-linecap="round" stroke-linejoin="round" stroke-dasharray="27.5,3"></path>
                        <path d="M397,196.714844 L51.5,0" id="Path-11-Copy-5" stroke-opacity="0.5" stroke-width="1.5" stroke-linecap="round" stroke-linejoin="round" stroke-dasharray="27.5,3"></path>
                    </g>
                    <g id="IMG">
                        <g id="Group-5-Copy-5">
                            <path d="M52.5415161,10.6615319 L2.98570307,38.7376203 C2.02465703,39.2821056 1.68696785,40.5025799 2.23145319,41.463626 C2.40177511,41.7642534 2.64707599,42.0156274 2.94344884,42.1932492 L77.0469841,86.6048925 C77.9705336,87.1583932 79.1198758,87.174517 80.0585887,86.6471416 L129.527816,58.8549892 C130.490817,58.3139687 130.832899,57.0947185 130.291879,56.1317177 C130.124541,55.833862 129.883693,55.5838377 129.5923,55.4054851 L56.6014486,10.7301137 C55.361204,9.97099947 53.8066923,9.94474012 52.5415161,10.6615319 Z" id="Path-8-Copy-5" fill-opacity="0.269831731" fill="#000000" transform="translate(66.250000, 48.500000) scale(-1, 1) translate(-66.250000, -48.500000) "></path>
                            <path d="M124.825954,31.5814169 L130.530396,30.8276978 L130.530396,35.8913574 C130.542518,36.2550909 130.460158,36.6254225 130.268547,36.963626 C130.098225,37.2642534 129.852924,37.5156274 129.556551,37.6932492 L55.4530159,82.1048925 C54.5294664,82.6583932 53.3801242,82.674517 52.4414113,82.1471416 L2.9721843,54.3549892 C2.23088108,53.93852 1.85751432,53.1201533 1.97167969,52.3261517 L1.97167969,47.8139648 L9.60686618,46.8051393 L75.8985514,6.23011366 C77.138796,5.47099947 78.6933077,5.44474012 79.9584839,6.16153187 L124.825954,31.5814169 Z" id="Combined-Shape" fill="#263144"></path>
                            <path d="M52.5415161,1.16153187 L2.98570307,29.2376203 C2.02465703,29.7821056 1.68696785,31.0025799 2.23145319,31.963626 C2.40177511,32.2642534 2.64707599,32.5156274 2.94344884,32.6932492 L77.0469841,77.1048925 C77.9705336,77.6583932 79.1198758,77.674517 80.0585887,77.1471416 L129.527816,49.3549892 C130.490817,48.8139687 130.832899,47.5947185 130.291879,46.6317177 C130.124541,46.333862 129.883693,46.0838377 129.5923,45.9054851 L56.6014486,1.23011366 C55.361204,0.47099947 53.8066923,0.444740119 52.5415161,1.16153187 Z" id="Path-8-Copy-3" fill="#3C485E" transform="translate(66.250000, 39.000000) scale(-1, 1) translate(-66.250000, -39.000000) "></path>
                            <g id="Group-20" transform="translate(24.500000, 7.000000)">
                                <polygon id="Fill-1" fill-opacity="0.103638549" fill="#000000" points="0 38.404392 27.289236 54.16008 37.52268 54.16008 37.52268 52.19058 34.111584 50.221236 66.5184 31.511376 39.228384 15.755688"></polygon>
                                <polygon id="Fill-2" fill="#EBF5FF" points="10.2333348 34.46547 37.5228828 50.221158 76.7515788 27.572454 76.7515788 27.572298 49.4620308 11.816766"></polygon>
                                <polygon id="Fill-3" fill="#D1DBE8" points="37.5228828 50.221158 37.5228828 54.160002 76.7515788 31.511454 76.7515788 27.572454"></polygon>
                                <polygon id="Fill-4" fill="#6F9AF1" points="10.2331944 38.404392 37.5228984 54.16008 37.5228984 50.221236 10.2331944 34.465548"></polygon>
                                <polygon id="Fill-5" fill="#EBF5FF" points="10.2331944 28.5571572 37.5228984 44.3126892 76.7515944 21.6641412 76.7515944 21.6639852 49.4620464 5.9084532"></polygon>
                                <polygon id="Fill-6" fill="#D1DBE8" points="37.5228828 44.3127048 37.5228828 48.2517048 76.7515788 25.6031568 76.7515788 21.6641568"></polygon>
                                <polygon id="Fill-7" fill="#6F9AF1" points="37.5228828 48.2517204 10.2331788 32.4960324 10.2331788 28.5571884 37.5228828 44.3127204"></polygon>
                                <polygon id="Fill-8" fill="#EBF5FF" points="49.4620776 7.8e-05 10.2332256 22.648782 37.5229296 38.40447 76.7516256 15.755766 76.7516256 15.75561"></polygon>
                                <path d="M53.3531058,10.1243316 L55.058739,9.13957628 L61.4271924,12.8164359 L59.721577,13.8011809 L53.3531058,10.1243316 Z M51.8531109,9.25830656 L46.0509036,5.9083908 L47.7564516,4.9235628 L53.5587483,8.27354884 L51.8531109,9.25830656 Z M49.9419356,12.0937867 L51.6475321,11.1090526 L58.0160275,14.7858879 L56.3104311,15.770622 L49.9419356,12.0937867 Z M48.441935,11.227765 L42.6396204,7.8778128 L44.3453244,6.8931408 L50.1475314,10.2430309 L48.441935,11.227765 Z M46.530748,14.0632518 L48.2363534,13.0785126 L54.6048068,16.7553722 L52.8992435,17.7400871 L46.530748,14.0632518 Z M45.0307474,13.1972301 L39.2284932,9.8473128 L40.9340412,8.8624848 L46.7363626,12.2124851 L45.0307474,13.1972301 Z M43.119589,16.0327005 L44.8251074,15.0480114 L51.1936029,18.7248467 L49.4880845,19.7095358 L43.119589,16.0327005 Z M41.6195883,15.1666788 L35.817288,11.8167348 L37.522836,10.8320628 L43.3251068,14.1819897 L41.6195883,15.1666788 Z M39.7083624,18.0021881 L41.4139677,17.0174489 L47.7824212,20.6943085 L46.0768579,21.6790234 L39.7083624,18.0021881 Z M38.2083618,17.1361664 L32.4060828,13.7862348 L34.1116308,12.8014068 L39.913977,16.1514215 L38.2083618,17.1361664 Z M36.2972034,19.9716368 L38.0027218,18.9869477 L44.3712173,22.663783 L42.6656988,23.6484721 L36.2972034,19.9716368 Z M34.7972027,19.1056151 L28.9948776,15.7556568 L30.7004256,14.7709848 L36.5027212,18.120926 L34.7972027,19.1056151 Z M32.885988,21.941118 L34.5916211,20.9563627 L40.9600746,24.6332223 L39.2544591,25.6179673 L32.885988,21.941118 Z M31.385993,21.075093 L25.5837504,17.7251568 L27.2892984,16.7403288 L33.0916304,20.0903352 L31.385993,21.075093 Z M29.4748483,23.9105555 L31.1803945,22.9258503 L37.548848,26.6027099 L35.8432774,27.5874291 L29.4748483,23.9105555 Z M27.9748632,23.0445247 L22.1725452,19.6945008 L23.8780932,18.7098288 L29.6804038,22.0598229 L27.9748632,23.0445247 Z M26.0636564,25.8800231 L27.7692026,24.8953179 L34.1376981,28.5721533 L32.4321276,29.5568724 L26.0636564,25.8800231 Z M24.5636614,25.0139981 L18.76134,21.6640164 L20.466888,20.6793444 L26.269202,24.0292962 L24.5636614,25.0139981 Z M61.221572,14.6672059 L62.9271832,13.6824633 L68.1699016,16.7093739 L66.464305,17.6941081 L61.221572,14.6672059 Z M57.8104317,16.6366437 L59.5160282,15.6519096 L64.7587812,18.6788003 L63.0531847,19.6635344 L57.8104317,16.6366437 Z M54.3992441,18.6061089 L56.1047976,17.6213996 L61.347516,20.6483103 L59.6419972,21.6329995 L54.3992441,18.6061089 Z M50.9880851,20.5755575 L52.6936036,19.5908684 L57.9363566,22.6177591 L56.2308381,23.6024482 L50.9880851,20.5755575 Z M47.5768585,22.5450452 L49.2824119,21.5603359 L54.5251303,24.5872466 L52.8196115,25.5719358 L47.5768585,22.5450452 Z M44.1656995,24.5144938 L45.8712179,23.5298047 L51.1139709,26.5566954 L49.4084525,27.5413845 L44.1656995,24.5144938 Z M40.7544541,26.4839923 L42.4600653,25.4992497 L47.7027837,28.5261603 L45.9971871,29.5108945 L40.7544541,26.4839923 Z M37.3432625,28.4534598 L39.0488387,27.4687374 L44.2915571,30.495648 L42.5859609,31.480382 L37.3432625,28.4534598 Z M33.9321225,30.4228974 L35.6376988,29.438175 L40.8804518,32.4650656 L39.1748555,33.4497996 L33.9321225,30.4228974 Z" id="Combined-Shape" fill="#425FFE"></path>
                                <polygon id="Fill-18" fill="#D1DBE8" points="37.5228828 38.404392 37.5228828 42.343236 76.7515788 19.694688 76.7515788 15.755688"></polygon>
                                <polygon id="Fill-19" fill="#6F9AF1" points="37.5228828 42.3433764 10.2331788 26.5876884 10.2331788 22.6486884 37.5228828 38.4043764"></polygon>
                            </g>
                        </g>
                        <g id="Group-26" transform="translate(185.000000, 88.000000)">
                            <g id="Group-5-Copy-6" transform="translate(0.000000, 18.000000)">
                                <path d="M52.5415161,11.1615319 L2.98570307,39.2376203 C2.02465703,39.7821056 1.68696785,41.0025799 2.23145319,41.963626 C2.40177511,42.2642534 2.64707599,42.5156274 2.94344884,42.6932492 L77.0469841,87.1048925 C77.9705336,87.6583932 79.1198758,87.674517 80.0585887,87.1471416 L129.527816,59.3549892 C130.490817,58.8139687 130.832899,57.5947185 130.291879,56.6317177 C130.124541,56.333862 129.883693,56.0838377 129.5923,55.9054851 L56.6014486,11.2301137 C55.361204,10.4709995 53.8066923,10.4447401 52.5415161,11.1615319 Z" id="Path-8-Copy-6" fill-opacity="0.269831731" fill="#000000" transform="translate(66.250000, 49.000000) scale(-1, 1) translate(-66.250000, -49.000000) "></path>
                                <path d="M124.825954,31.5814169 L130.530396,30.8276978 L130.530396,35.8913574 C130.542518,36.2550909 130.460158,36.6254225 130.268547,36.963626 C130.098225,37.2642534 129.852924,37.5156274 129.556551,37.6932492 L55.4530159,82.1048925 C54.5294664,82.6583932 53.3801242,82.674517 52.4414113,82.1471416 L2.9721843,54.3549892 C2.23088108,53.93852 1.85751432,53.1201533 1.97167969,52.3261517 L1.97167969,47.8139648 L9.60686618,46.8051393 L75.8985514,6.23011366 C77.138796,5.47099947 78.6933077,5.44474012 79.9584839,6.16153187 L124.825954,31.5814169 Z" id="Combined-Shape" fill="#263144"></path>
                                <path d="M52.5415161,1.16153187 L2.98570307,29.2376203 C2.02465703,29.7821056 1.68696785,31.0025799 2.23145319,31.963626 C2.40177511,32.2642534 2.64707599,32.5156274 2.94344884,32.6932492 L77.0469841,77.1048925 C77.9705336,77.6583932 79.1198758,77.674517 80.0585887,77.1471416 L129.527816,49.3549892 C130.490817,48.8139687 130.832899,47.5947185 130.291879,46.6317177 C130.124541,46.333862 129.883693,46.0838377 129.5923,45.9054851 L56.6014486,1.23011366 C55.361204,0.47099947 53.8066923,0.444740119 52.5415161,1.16153187 Z" id="Path-8-Copy-3" fill="#3C485E" transform="translate(66.250000, 39.000000) scale(-1, 1) translate(-66.250000, -39.000000) "></path>
                                <ellipse id="Oval" fill-opacity="0.103638549" fill="#000000" cx="60.5" cy="43.75" rx="15" ry="7.25"></ellipse>
                            </g>
                            <g id="Group-87-Copy" transform="translate(63.000000, 37.500000) scale(-1, 1) translate(-63.000000, -37.500000) translate(25.000000, 0.000000)">
                                <g id="Group-21" transform="translate(7.480000, 0.398860)">
                                    <path d="M8.152991,51.254082 C10.106261,51.239232 12.148631,50.949162 14.274161,50.379912 C19.402361,49.007772 23.577191,46.368432 25.149311,45.375462 C25.719551,45.014112 25.859141,44.927982 25.981901,44.903232 L26.111591,45.551682 C26.119511,45.549702 26.131391,45.547722 26.144261,45.541782 C26.075951,45.570492 25.797761,45.746712 25.501751,45.932832 C23.906861,46.941642 19.669661,49.620582 14.444441,51.018462 C12.484241,51.543162 10.590371,51.838182 8.769761,51.904512 C8.560871,51.690672 8.355941,51.473862 8.152991,51.254082" id="Fill-1" fill="#000000"></path>
                                    <path d="M50.78051,45.590589 C50.80823,45.659889 50.98049,45.941049 51.16265,46.238049 C51.65369,47.038959 52.55063,48.501189 53.49014,50.414859 C53.3357,50.596029 53.1773,50.776209 53.01791,50.953419 C52.04672,48.945699 51.10523,47.408229 50.59934,46.583559 C50.2469,46.008369 50.16275,45.867789 50.13998,45.745029 L50.78942,45.624249 C50.78744,45.615339 50.78546,45.604449 50.78051,45.590589" id="Fill-3" fill="#000000"></path>
                                    <path d="M55.778921,47.32497 C55.890791,47.32497 55.980881,47.23389 55.980881,47.12202 C55.980881,47.01114 55.890791,46.92006 55.778921,46.92006 C51.141761,46.92006 47.369861,40.69692 47.369861,33.04818 C47.369861,25.39845 51.141761,19.17531 55.778921,19.17531 C55.890791,19.17531 55.980881,19.08522 55.980881,18.97335 C55.980881,18.86148 55.890791,18.77139 55.778921,18.77139 C50.919011,18.77139 46.965941,25.1757 46.965941,33.04818 C46.965941,40.92066 50.919011,47.32497 55.778921,47.32497" id="Fill-5" fill="#000000"></path>
                                    <path d="M57.436478,44.371899 C57.548348,44.371899 57.638438,44.280819 57.638438,44.168949 C57.638438,44.058069 57.548348,43.966989 57.436478,43.966989 C55.723778,43.966989 54.166508,42.849279 53.051768,40.818789 C51.946928,38.807109 51.338078,36.046989 51.338078,33.048279 C51.338078,27.015219 54.305108,22.106799 57.953258,22.106799 C58.065128,22.106799 58.155218,22.015719 58.155218,21.904839 C58.155218,21.792969 58.065128,21.702879 57.953258,21.702879 C54.082358,21.702879 50.933168,26.792469 50.933168,33.048279 C50.933168,39.609009 53.668538,44.371899 57.436478,44.371899" id="Fill-7" fill="#000000"></path>
                                    <path d="M30.448682,0.406494 C47.189582,0.406494 60.761492,13.978404 60.761492,30.719304 C60.761492,47.460204 47.189582,61.031124 30.448682,61.031124 C13.707782,61.031124 0.136862,47.460204 0.136862,30.719304 C0.136862,13.978404 13.707782,0.406494 30.448682,0.406494 Z" id="Fill-9" fill="#3D5AFE"></path>
                                    <path d="M43.466192,3.339666 C50.129882,8.900496 54.372032,17.265006 54.372032,26.622486 C54.372032,43.363386 40.801112,56.934306 24.060212,56.934306 C19.399292,56.934306 14.986862,55.879956 11.042702,54.000936 C16.300592,58.388616 23.065262,61.030926 30.448682,61.030926 C47.189582,61.030926 60.761492,47.460006 60.761492,30.719106 C60.761492,18.638136 53.691902,8.210466 43.466192,3.339666" id="Fill-11" fill-opacity="0.152371066" fill="#000000"></path>
                                    <path d="M35.033867,9.514593 C36.202067,9.317583 37.399967,9.211653 38.621627,9.211653 C39.743297,9.211653 40.845167,9.300753 41.922287,9.468063 C40.989707,4.595283 38.273147,2.147013 36.170387,0.954063 C34.317107,0.599643 32.405417,0.406593 30.449177,0.406593 C29.679947,0.406593 28.920617,0.445203 28.166237,0.501633 C32.930117,2.742003 34.513127,7.151463 35.033867,9.514593" id="Fill-13" fill="#FFFFFF"></path>
                                    <path d="M33.935759,9.729522 C32.131979,3.084642 27.675989,1.065042 26.289989,0.689832 L25.814789,0.759132 C24.2529407,0.927769639 21.50918,1.7209902 20.05091,2.1813402 C25.7741,5.5651602 27.407699,11.881782 27.407699,11.881782 C29.126339,10.961082 31.998329,10.162152 33.935759,9.729522 Z" id="Fill-15" fill="#FFFFFF"></path>
                                    <path d="M20.05091,33.004323 C20.05091,43.830963 28.36493,52.606323 38.62133,52.606323 C48.87773,52.606323 57.19175,43.830963 57.19175,33.004323 C57.19175,22.178673 48.87773,13.402323 38.62133,13.402323 C28.36493,13.402323 20.05091,22.178673 20.05091,33.004323" id="Fill-17" fill="#2424B2"></path>
                                    <path d="M21.054473,33.004323 C21.054473,43.245873 28.919033,51.547023 38.621033,51.547023 C48.323033,51.547023 56.187593,43.245873 56.187593,33.004323 C56.187593,22.763763 48.323033,14.462613 38.621033,14.462613 C28.919033,14.462613 21.054473,22.763763 21.054473,33.004323" id="Fill-19" fill="#2940E2"></path>
                                </g>
                                <g id="Group-46" transform="translate(0.330000, 19.098860)">
                                    <g id="Group-24"></g>
                                    <g id="Group-45" transform="translate(0.500000, 0.550000)">
                                        <mask id="mask-2" fill="white">
                                            <use xlink:href="#path-1"></use>
                                        </mask>
                                        <use id="Combined-Shape" fill="#0F1843" xlink:href="#path-1"></use>
                                    </g>
                                </g>
                                <g id="Group-86" transform="translate(30.800000, 17.008860)">
                                    <path d="M0.045529,16.394323 C0.045529,25.287493 6.875539,32.497663 15.301429,32.497663 C23.726329,32.497663 30.556339,25.287493 30.556339,16.394323 C30.556339,7.501153 23.726329,0.290983 15.301429,0.290983 C6.875539,0.290983 0.045529,7.501153 0.045529,16.394323" id="Fill-47" fill="#2424B2"></path>
                                    <path d="M0.740212,16.394323 C0.740212,24.883573 7.259362,31.764073 15.301132,31.764073 C23.342902,31.764073 29.862052,24.883573 29.862052,16.394323 C29.862052,7.906063 23.342902,1.024573 15.301132,1.024573 C7.259362,1.024573 0.740212,7.906063 0.740212,16.394323" id="Fill-49" fill="#102C5D"></path>
                                    <g id="m" transform="translate(16.390430, 15.642507) scale(-1, 1) translate(-16.390430, -15.642507) ">
                                        <use fill="black" fill-opacity="1" filter="url(#filter-5)" xlink:href="#path-4"></use>
                                        <use fill="url(#linearGradient-3)" fill-rule="evenodd" xlink:href="#path-4"></use>
                                        <use fill="black" fill-opacity="1" filter="url(#filter-6)" xlink:href="#path-4"></use>
                                    </g>
                                    <path d="M26.937493,17.044456 C26.937493,8.556196 20.418343,1.674706 12.376573,1.674706 C11.860783,1.674706 11.350933,1.703416 10.849993,1.758856 C12.252823,1.283656 13.747723,1.024276 15.301033,1.024276 C23.342803,1.024276 29.861953,7.905766 29.861953,16.394026 C29.861953,24.338776 24.152623,30.874756 16.827613,31.680616 C22.691383,29.694676 26.937493,23.893276 26.937493,17.044456" id="Fill-51" fill="#0F1843"></path>
                                </g>
                            </g>
                        </g>
                    </g>
                </g>
                <circle id="Oval" fill="#FFFFFF" cx="112" cy="76" r="4"></circle>
                <circle id="Oval-Copy-2" fill="#FFFFFF" cx="352" cy="197" r="4"></circle>
            </g>
        </g>
    </g>
</svg>